<svg width="150" height="52" viewBox="0 0 150 52" fill="none" xmlns="http://www.w3.org/2000/svg">
<path d="M7.64951 14.7496H74.5126C75.6559 14.7496 76.5695 15.6759 76.5695 16.8192C76.5695 17.9626 75.6433 18.8888 74.4999 18.8888H59.4175C55.8431 18.8888 52.5006 21.2724 51.8589 24.7888C51.0243 29.3558 54.5555 33.3748 58.9791 33.3748H64.1531C65.2954 33.3748 66.2216 34.3011 66.2216 35.4444C66.2216 36.5867 65.2954 37.5129 64.1531 37.5129H24.2367C20.6624 37.5129 17.3198 39.8976 16.6781 43.4129C15.8446 47.9799 19.3747 52 23.7984 52H106.137C109.712 52 113.055 49.6164 113.697 46.099C114.53 41.533 111 37.5129 106.576 37.5129H74.4999C73.3566 37.5129 72.4304 36.5867 72.4304 35.4444C72.4304 34.3011 73.3566 33.3748 74.4999 33.3748H141.318C144.893 33.3748 148.235 30.9912 148.877 27.4748C149.711 22.9078 146.181 18.8888 141.757 18.8888H84.8468C83.7045 18.8888 82.7772 17.9626 82.7772 16.8192C82.7772 15.6759 83.7045 14.7496 84.8468 14.7496H89.5824C93.1567 14.7496 96.4993 12.366 97.141 8.84965C97.9745 4.28266 94.4444 0.263625 90.0207 0.263625H7.24275C2.81381 0.263625 -0.719445 4.29109 0.125669 8.8644C0.772677 12.3713 4.08359 14.7496 7.64951 14.7496Z" fill="#DABE6F"/>
</svg>
