<svg width="208" height="58" viewBox="0 0 208 58" fill="none" xmlns="http://www.w3.org/2000/svg">
<g clip-path="url(#clip0_27_730)">
<path fill-rule="evenodd" clip-rule="evenodd" d="M194.067 0C194.75 7.57936 200.559 13.6808 208 14.8118V46.1882C201.57 47.1655 196.359 51.8538 194.621 58H12.3789C10.7316 52.1757 5.96618 47.6606 0 46.372V14.628C6.95658 13.1255 12.2806 7.23633 12.9327 0H194.067Z" fill="#CA3828"/>
<g filter="url(#filter0_d_27_730)">
<mask id="path-2-inside-1_27_730" fill="white">
<path fill-rule="evenodd" clip-rule="evenodd" d="M14.684 2H192.335C193.005 9.08427 198.702 14.7872 206 15.8443V45.1712C199.694 46.0847 194.583 50.4668 192.878 56.2115H14.1409C12.5252 50.7677 7.85145 46.5475 2 45.343V15.6726C8.82281 14.2682 14.0445 8.76367 14.684 2Z"/>
</mask>
<path d="M192.335 2L193.331 1.90586L193.245 1H192.335V2ZM14.684 2V1H13.7741L13.6885 1.90586L14.684 2ZM206 15.8443H207V14.9788L206.143 14.8547L206 15.8443ZM206 45.1712L206.143 46.1609L207 46.0368V45.1712H206ZM192.878 56.2115V57.2115H193.625L193.837 56.4961L192.878 56.2115ZM14.1409 56.2115L13.1822 56.4961L13.3945 57.2115H14.1409V56.2115ZM2 45.343H1V46.1581L1.79839 46.3225L2 45.343ZM2 15.6726L1.79839 14.6931L1 14.8574V15.6726H2ZM192.335 1H14.684V3H192.335V1ZM206.143 14.8547C199.268 13.8587 193.954 8.4974 193.331 1.90586L191.34 2.09414C192.056 9.67115 198.136 15.7156 205.857 16.834L206.143 14.8547ZM207 45.1712V15.8443H205V45.1712H207ZM193.837 56.4961C195.426 51.1418 200.206 47.021 206.143 46.1609L205.857 44.1816C199.182 45.1485 193.741 49.7918 191.92 55.927L193.837 56.4961ZM14.1409 57.2115H192.878V55.2115H14.1409V57.2115ZM1.79839 46.3225C7.30601 47.4562 11.6764 51.4224 13.1822 56.4961L15.0995 55.927C13.374 50.113 8.39689 45.6388 2.20161 44.3636L1.79839 46.3225ZM1 15.6726V45.343H3V15.6726H1ZM13.6885 1.90586C13.0934 8.19931 8.22384 13.3705 1.79839 14.6931L2.20161 16.652C9.42177 15.1658 14.9956 9.32803 15.6796 2.09414L13.6885 1.90586Z" fill="#D1B163" mask="url(#path-2-inside-1_27_730)"/>
</g>
<path d="M170.88 26.1199C169.44 27.8399 164.22 29.4999 164.22 30.6599C164.22 31.8599 169.48 33.5599 170.56 34.8599C171.02 35.3999 170.92 37.2399 170.24 37.6599C169.54 38.0999 168.6 37.7399 166.9 35.7399C164.66 33.1199 162.18 32.1199 162.18 30.7399C162.18 29.3599 165.6 27.4199 167.74 25.2799C167.74 25.2799 168.58 24.5599 168.7 24.0399C168.78 23.7199 168.6 23.3599 168.32 23.0799C168.32 23.0799 168.5 22.5199 169.9 23.5399C171.34 24.5999 171.28 25.6199 170.88 26.1199Z" fill="white"/>
<path d="M145.06 28.3599C144.84 28.2199 144.98 28.0399 145.04 27.3999H143.24C143.14 27.4999 143.04 27.6599 143.02 27.8799L142.72 30.4799H144.56C145.56 30.4799 145.78 29.2799 146.34 29.2799C146.82 29.2799 148.4 30.6199 148.4 31.1199C148.4 31.7199 147.98 31.8599 147.94 32.4799C147.88 33.4199 147.68 35.1199 147.32 36.4799C146.94 37.9399 146.18 38.7599 144.58 38.7599C143.96 38.7599 143.8 38.4799 143.76 38.1599C143.68 37.2599 142.7 36.8399 141.52 36.5399L141.64 36.0999C143.76 36.5199 144.74 36.4999 145 35.4999C145.34 34.2399 145.42 32.4599 145.42 31.4799H142.6L142.5 32.3799C142.42 33.1199 141.26 33.2199 140.52 33.1199C140.2 33.0799 139.96 33.0199 139.9 32.9599C139.66 32.7599 139.94 32.5599 140.06 31.5999L140.52 27.5799C140.66 26.2999 140.06 25.6599 140.36 25.3599C140.7 25.0599 142.46 25.7799 143.24 26.3999H145.06V23.6399H142.18C140.8 23.6399 140.72 23.9799 140.46 23.9799C140 23.9799 139.4 22.2199 139.74 22.2199C140.36 22.2199 140.96 22.6399 142.18 22.6399H144.2C145.2 22.6399 145.42 21.4399 145.98 21.4399C146.46 21.4399 148.04 22.7799 148.04 23.2999C148.04 23.8799 147.58 23.8599 147.58 24.6599V27.4799C147.58 28.2199 146.44 28.4599 145.68 28.4599C145.38 28.4599 145.12 28.4199 145.06 28.3599ZM150.92 38.2599C150.68 38.0799 150.92 37.8599 150.92 36.8999V23.9399C150.92 22.6599 150.24 22.0799 150.52 21.7599C150.88 21.3199 153.92 22.3199 153.92 22.9199C153.92 23.2599 153.44 23.3799 153.44 23.9399V37.3799C153.44 38.1199 152.3 38.3599 151.56 38.3599C151.24 38.3599 151 38.3199 150.92 38.2599Z" fill="white"/>
<path d="M131.96 37.0399C129.98 38.1799 125.22 38.7599 123.3 36.5799C121.84 34.9399 122.74 32.8599 124.5 31.4599C125.22 30.8799 126 30.3599 126.74 29.8799C126.26 28.9799 124.86 29.7399 124.22 30.7999L123.92 31.2399C123.32 32.0999 122.08 32.5599 121.48 32.0799C121.14 31.8199 120.7 30.6599 120.96 29.9599C121.26 29.1199 122 29.1599 122.94 28.2399C123.52 27.6999 123.94 27.0999 124.24 26.4799L124.06 26.4999C122.7 26.5799 122.64 26.8999 122.38 26.9199C121.92 26.9399 121.22 25.2399 121.56 25.2199C122.16 25.1799 122.8 25.5599 124 25.4999L124.62 25.4599C124.84 24.6799 124.86 23.9599 124.72 23.4399C124.64 23.1199 124.3 22.8999 123.92 22.7999C123.92 22.7999 123.8 22.2199 125.54 22.4199C127.3 22.6399 127.28 23.6399 127.18 24.2599C127.14 24.6399 126.86 24.6399 126.56 25.3399L126.88 25.3199C127.88 25.2599 128.04 24.0599 128.58 24.0199C129.08 23.9999 130.02 25.2999 130.04 25.6999C130.06 26.0799 129.46 26.1799 129.04 26.1999L126.22 26.3599C126.06 26.8599 125.82 27.5399 125.48 28.3199C126.72 27.9599 127.84 28.1399 128.46 28.7599C129.02 28.3999 129.46 28.0799 129.74 27.7799C129.96 27.5399 129.74 27.0999 129.52 26.7799C129.52 26.7799 129.8 26.2399 131 27.4999C132.24 28.7799 131.96 30.2399 131.38 30.4799C130.68 30.7799 129.86 30.9799 129.06 31.1799C129.12 31.7199 129.18 32.0799 129.18 32.3599C129.18 33.2399 128.64 34.1799 128.02 34.1799C127.64 34.1799 126.76 33.6599 126.56 33.0599C126.42 32.6599 126.56 32.4399 126.72 32.0399C126.04 32.3999 125.52 32.9199 125.22 33.6599C124.72 34.9599 127.44 35.9399 130.14 34.5199C130.8 34.1799 131.68 33.9799 132.04 34.2799C132.76 34.8599 132.98 36.4399 131.96 37.0399Z" fill="white"/>
<path d="M105.92 37.92C100.6 36.84 103.38 29.62 103.38 26.2C103.38 26.2 103.4 25.08 103.12 24.64C102.94 24.36 102.54 24.26 102.14 24.26C102.14 24.26 101.86 23.74 103.56 23.42C105.32 23.08 106.18 24 106.18 24.64C106.18 29.3 104.06 32.26 105.26 34.2C106.42 36.08 111.12 35.88 111.26 29.78C113 34.24 110.82 38.92 105.92 37.92ZM109.04 25.62C110.66 24.96 112.22 25.48 112.56 26.44C112.82 27.16 112.46 28.24 111.7 28.36C111.32 28.42 111.04 27.82 110.76 27.22C110.36 26.4 109.94 25.9 109.04 25.62ZM108.72 28.64C108.46 27.76 108.12 27.2 107.28 26.78C108.98 26.38 110.44 27.14 110.62 28.16C110.76 28.9 110.24 29.9 109.48 29.9C109.1 29.92 108.9 29.28 108.72 28.64Z" fill="white"/>
<path d="M90.8801 26.1199C89.4401 27.8399 84.2201 29.4999 84.2201 30.6599C84.2201 31.8599 89.4801 33.5599 90.5601 34.8599C91.0201 35.3999 90.9201 37.2399 90.2401 37.6599C89.5401 38.0999 88.6001 37.7399 86.9001 35.7399C84.6601 33.1199 82.1801 32.1199 82.1801 30.7399C82.1801 29.3599 85.6001 27.4199 87.7401 25.2799C87.7401 25.2799 88.5801 24.5599 88.7001 24.0399C88.7801 23.7199 88.6001 23.3599 88.3201 23.0799C88.3201 23.0799 88.5001 22.5199 89.9001 23.5399C91.3401 24.5999 91.2801 25.6199 90.8801 26.1199Z" fill="white"/>
<path d="M62.6601 37.0399C59.6401 37.0399 58.7001 33.5799 60.3001 31.8399C61.1001 30.9599 62.3401 30.4799 63.7401 30.2199C63.8401 28.6199 64.1801 27.7999 64.3201 26.5999C64.1201 26.6799 63.8801 26.7599 63.6201 26.8199C62.8001 26.9999 62.7401 27.4399 62.4601 27.4799C61.9401 27.5799 60.3001 24.5399 60.6201 24.0999C60.8601 23.7999 61.9601 24.8199 63.3401 24.6599L63.5201 24.6199C64.2201 24.4799 64.3001 23.3599 65.0601 23.5799C66.6201 23.9999 67.9401 25.2799 67.6401 25.9599C67.4601 26.3399 66.7601 26.1799 66.5401 26.6999C66.2601 27.3399 66.0401 28.0799 66.0801 30.0199C67.1001 30.0199 68.1601 30.0799 69.1601 30.1599C69.1801 29.5399 69.1401 28.9199 69.0801 28.3599C69.0401 28.0199 68.5801 27.7399 68.0601 27.8199C68.0601 27.8199 67.8201 27.0399 69.8201 26.9599C71.8601 26.8799 72.5201 27.9399 72.5401 28.5799C72.5601 28.9999 72.0201 28.9599 71.9801 29.9199C71.9601 30.0999 71.9601 30.2799 71.9401 30.4599C74.5401 30.7799 75.1201 31.7399 74.7601 32.7999C74.3601 34.0399 73.1801 34.1399 72.2001 33.6999C71.9401 33.5999 71.6601 33.4799 71.3801 33.3799C70.4001 36.3399 68.3201 37.8199 65.8401 37.9799C67.6401 36.4799 68.5401 34.5399 68.9201 32.5999C68.0001 32.3599 67.0601 32.1799 66.1801 32.0599C66.1801 32.2199 66.2001 32.3799 66.2201 32.5599C66.4401 35.1799 65.0801 37.0399 62.6601 37.0399ZM62.7401 32.1799C61.0201 32.7599 61.0801 34.7399 62.5401 34.5399C63.4401 34.4199 63.7801 33.5599 63.7401 31.9799C63.3601 32.0199 63.0201 32.0799 62.7401 32.1799Z" fill="white"/>
<path d="M43.1601 37.3799C39.0801 37.3799 38.5401 30.7999 44.2001 29.0599V26.5999H43.6001C42.2201 26.5999 42.1601 26.9199 41.9001 26.9199C41.4401 26.9199 40.8401 25.1799 41.1801 25.1799C41.7801 25.1799 42.4001 25.5999 43.6001 25.5999H44.2001C44.2001 25.2799 44.1601 24.5399 43.9401 24.1999C43.7601 23.9199 43.3801 23.8199 42.9801 23.8399C42.9801 23.8399 42.6801 23.3199 44.4001 22.9799C46.1401 22.6399 46.8801 23.5799 47.0001 24.1999C47.0801 24.5799 46.7801 24.6799 46.7401 25.5399C47.4401 25.2999 47.6801 24.3999 48.1601 24.3999C48.6401 24.3999 49.5001 25.7599 49.5001 26.1399C49.5001 26.5399 48.9001 26.5999 48.4801 26.5999H46.7201V28.6599C49.6401 28.6399 51.6601 30.2399 52.2201 32.3599C52.9201 34.9599 50.7201 39.1399 46.3001 37.7999C48.6401 37.0399 49.6801 34.9199 49.5201 33.1599C49.4001 31.6799 48.4801 30.6199 46.7201 30.5599V32.9199C46.7201 35.1799 46.0401 37.3799 43.1601 37.3799ZM51.6801 28.5999C51.5001 27.4599 51.2001 26.4599 50.1201 25.5599C52.4801 25.1199 54.2001 27.0199 54.2601 28.2799C54.3201 29.2199 53.3601 30.4199 52.4201 30.2999C51.9401 30.2399 51.8001 29.4199 51.6801 28.5999ZM44.2001 32.9199V31.0399C41.8401 32.0999 42.3801 34.4599 43.2401 34.4599C44.0201 34.4599 44.2001 33.8999 44.2001 32.9199Z" fill="white"/>
</g>
<defs>
<filter id="filter0_d_27_730" x="-2" y="2" width="212" height="62.2115" filterUnits="userSpaceOnUse" color-interpolation-filters="sRGB">
<feFlood flood-opacity="0" result="BackgroundImageFix"/>
<feColorMatrix in="SourceAlpha" type="matrix" values="0 0 0 0 0 0 0 0 0 0 0 0 0 0 0 0 0 0 127 0" result="hardAlpha"/>
<feOffset dy="4"/>
<feGaussianBlur stdDeviation="2"/>
<feComposite in2="hardAlpha" operator="out"/>
<feColorMatrix type="matrix" values="0 0 0 0 0 0 0 0 0 0 0 0 0 0 0 0 0 0 0.25 0"/>
<feBlend mode="normal" in2="BackgroundImageFix" result="effect1_dropShadow_27_730"/>
<feBlend mode="normal" in="SourceGraphic" in2="effect1_dropShadow_27_730" result="shape"/>
</filter>
<clipPath id="clip0_27_730">
<rect width="208" height="58" fill="white"/>
</clipPath>
</defs>
</svg>
