<svg width="250" height="364" viewBox="0 0 250 364" fill="none" xmlns="http://www.w3.org/2000/svg">
<path d="M125.104 363.308C94.1441 363.308 65.4788 346.755 46.4239 317.889C17.5536 298.832 1 270.167 1 239.208C1 208.251 17.5536 179.586 46.4232 160.529C65.4788 131.662 94.1441 115.109 125.104 115.109C156.064 115.109 184.728 131.662 203.783 160.53C232.653 179.586 249.207 208.251 249.207 239.208C249.207 270.166 232.653 298.831 203.783 317.889C184.728 346.755 156.062 363.308 125.104 363.308Z" fill="white" fill-opacity="0.9"/>
<path d="M125.104 117.599C94.9198 117.599 66.9488 133.823 48.3631 162.111L48.221 162.327L48.006 162.469C19.7157 181.056 3.48989 209.027 3.48989 239.208C3.48989 269.391 19.7157 297.362 48.006 315.949L48.2217 316.091L48.3631 316.306C66.9495 344.594 94.9198 360.818 125.104 360.818C155.287 360.818 183.257 344.594 201.843 316.306L201.985 316.091L202.2 315.949C230.491 297.361 246.717 269.39 246.717 239.208C246.717 209.027 230.491 181.056 202.2 162.469L201.985 162.328L201.843 162.112C183.258 133.823 155.287 117.599 125.104 117.599ZM125.104 363.308C94.1441 363.308 65.4788 346.755 46.4239 317.889C17.5536 298.832 1 270.167 1 239.208C1 208.251 17.5536 179.586 46.4232 160.529C65.4788 131.662 94.1441 115.109 125.104 115.109C156.064 115.109 184.728 131.662 203.783 160.53C232.653 179.586 249.207 208.251 249.207 239.208C249.207 270.166 232.653 298.831 203.783 317.889C184.728 346.755 156.062 363.308 125.104 363.308Z" fill="#CA3828"/>
<path d="M125.104 124.742C96.879 124.742 70.7936 140.24 53.5358 167.263L53.3879 167.495L53.1565 167.643C26.1319 184.901 10.6325 210.986 10.6325 239.208C10.6325 267.432 26.1326 293.517 53.1572 310.776L53.3886 310.923L53.5365 311.155C70.7943 338.177 96.8797 353.676 125.104 353.676C153.327 353.676 179.412 338.177 196.671 311.155L196.819 310.923L197.049 310.776C224.075 293.516 239.575 267.431 239.575 239.208C239.575 210.986 224.075 184.901 197.049 167.643L196.819 167.495L196.671 167.263C179.413 140.24 153.328 124.742 125.104 124.742ZM125.104 356.166C96.094 356.166 69.3115 340.336 51.5858 312.727C23.9748 295 8.14258 268.217 8.14258 239.208C8.14258 210.2 23.9741 183.418 51.5851 165.692C69.3108 138.082 96.094 122.252 125.104 122.252C154.113 122.252 180.896 138.082 198.621 165.692C226.233 183.418 242.065 210.201 242.065 239.208C242.065 268.216 226.233 294.999 198.621 312.727C180.895 340.336 154.112 356.166 125.104 356.166Z" fill="#D1B163"/>
<path d="M58.5723 172.677C58.4645 172.852 58.3559 173.03 58.2488 173.207C57.4717 174.487 58.0673 175.625 58.813 176.211C59.5773 176.81 60.8537 177.126 61.9372 176.042C63.0207 174.958 62.705 173.682 62.1058 172.918C61.5201 172.172 60.3815 171.576 59.1016 172.354C58.9252 172.461 58.7473 172.569 58.5723 172.677ZM189.891 171.989C189.129 171.989 188.493 172.42 188.101 172.918C187.502 173.682 187.186 174.958 188.27 176.042C189.354 177.125 190.631 176.809 191.394 176.211C192.14 175.625 192.735 174.487 191.958 173.206C191.851 173.03 191.742 172.852 191.635 172.677C191.459 172.569 191.283 172.461 191.106 172.354C190.681 172.096 190.271 171.989 189.891 171.989ZM189.881 301.659C189.352 301.659 188.79 301.857 188.271 302.376C187.186 303.459 187.502 304.735 188.101 305.499C188.686 306.246 189.824 306.841 191.106 306.063C191.283 305.956 191.46 305.847 191.635 305.74C191.743 305.564 191.851 305.387 191.958 305.211C192.735 303.93 192.14 302.792 191.394 302.206C190.996 301.894 190.458 301.659 189.881 301.659ZM58.5723 305.74C58.748 305.848 58.9252 305.956 59.1009 306.063C60.3815 306.84 61.5201 306.245 62.1058 305.499C62.705 304.735 63.0207 303.459 61.9372 302.376C60.8529 301.292 59.5773 301.607 58.813 302.206C58.0673 302.792 57.4717 303.93 58.2488 305.211C58.3559 305.387 58.4645 305.565 58.5723 305.74ZM60.5972 308.908C76.5252 332.881 99.825 346.533 125.104 346.533C150.382 346.533 173.682 332.88 189.61 308.908C188.299 308.83 187.046 308.188 186.143 307.036C184.575 305.038 184.727 302.399 186.51 300.615C188.294 298.833 190.935 298.681 192.931 300.248C194.084 301.152 194.725 302.405 194.803 303.715C218.775 287.787 232.427 264.487 232.428 239.209C232.428 213.93 218.775 190.63 194.803 174.702C194.725 176.012 194.084 177.265 192.931 178.169C190.935 179.737 188.294 179.586 186.509 177.803C184.726 176.019 184.575 173.379 186.143 171.381C187.047 170.228 188.3 169.587 189.61 169.51C173.682 145.537 150.382 131.884 125.104 131.884C99.825 131.884 76.5252 145.537 60.5972 169.51C61.9072 169.587 63.16 170.228 64.0642 171.381C65.632 173.378 65.4813 176.019 63.6971 177.802C61.9136 179.586 59.273 179.737 57.2759 178.169C56.1231 177.265 55.4817 176.013 55.4046 174.702C31.432 190.63 17.779 213.93 17.779 239.209C17.779 264.487 31.432 287.787 55.4046 303.716C55.4817 302.405 56.1231 301.152 57.2759 300.248C59.273 298.68 61.9143 298.831 63.6971 300.615C65.4806 302.399 65.632 305.038 64.065 307.036C63.16 308.188 61.9072 308.83 60.5972 308.908ZM125.104 349.023C98.0193 349.023 73.1724 333.924 56.7631 307.55C30.3892 291.14 15.2891 266.293 15.2891 239.209C15.2891 212.124 30.3885 187.277 56.7631 170.868C73.171 144.495 98.0207 129.393 125.104 129.393C125.105 129.393 125.103 129.393 125.104 129.393C152.188 129.394 177.035 144.493 193.443 170.867C219.818 187.277 234.919 212.124 234.918 239.209C234.918 266.293 219.818 291.14 193.444 307.549C177.036 333.924 152.188 349.023 125.104 349.023Z" fill="#D1B163"/>
<path d="M182.387 232.72C182.387 232.72 184.21 230.977 184.616 229.518C184.818 228.869 184.656 228.545 183.846 228.424L181.86 228.302C177.28 228.18 175.538 225.627 176.672 221.696C178.78 226.235 190.33 221.21 192.68 223.601C194.058 224.979 192.478 228.018 190.614 228.667C190.208 228.788 189.722 228.869 189.236 228.91C187.331 228.991 186.277 231.058 182.387 232.72ZM194.342 245.891C181.86 253.105 166.054 243.378 176.389 236.934C174.443 242.811 185.426 244.067 191.343 240.825C192.599 240.176 194.626 239.771 195.274 240.501C196.531 241.919 196.004 244.918 194.342 245.891Z" fill="#754C24"/>
<path d="M137.735 236.919C140.506 236.31 150.797 228.187 156.985 236.489C159.288 239.566 157.705 243.717 155.474 245.793C151.3 249.586 144.752 249.765 141.657 245.471C145.795 246.437 149.969 246.186 152.596 242.823C154.647 240.139 154.107 235.416 150.257 235.129C146.371 234.843 143.384 238.457 140.11 240.998C139.354 241.57 137.232 240.89 136.44 238.35C135.648 235.881 136.548 235.881 136.548 235.881C136.836 236.418 137.232 236.99 137.735 236.919Z" fill="#754C24"/>
<path d="M123.04 227.673C120.365 227.673 118.217 225.525 118.217 222.891C118.217 220.257 120.365 218.109 123.04 218.109C125.674 218.109 127.822 220.257 127.822 222.891C127.822 225.525 125.674 227.673 123.04 227.673ZM99.4939 231.321C97.5487 231.483 95.6034 230.672 94.7523 227.673C97.5487 228.362 99.9803 226.822 100.75 225.12C100.993 224.512 101.196 224.026 101.763 223.621C102.898 222.77 107.194 223.945 107.68 225.12C108.288 226.66 105.614 226.052 102.939 231.118C98.0755 240.237 102.655 244.452 107.843 243.357C114.57 241.939 111.652 233.874 110.477 227.228C109.707 222.77 107.843 220.946 110.396 219.568C111.49 218.96 115.299 220.581 115.664 221.959C116.029 223.134 115.137 223.418 115.462 225.161C115.826 226.984 117.366 228.768 119.514 229.7C121.784 230.672 123.648 231.118 124.013 233.307C124.337 235.171 121.662 236.873 119.757 236.346C118.015 235.86 117.772 235.009 115.218 232.861C117.488 240.683 116.232 248.261 107.843 249.234C98.886 250.287 92.4828 242.425 99.4939 231.321ZM123.04 221.027C121.986 221.027 121.135 221.878 121.135 222.891C121.135 223.945 121.986 224.796 123.04 224.796C124.053 224.796 124.904 223.945 124.904 222.891C124.904 221.878 124.053 221.027 123.04 221.027Z" fill="#F1C62E"/>
<path d="M81.2909 227.978C78.6161 227.978 76.4682 225.83 76.4682 223.196C76.4682 220.561 78.6161 218.414 81.2909 218.414C83.9252 218.414 86.0731 220.561 86.0731 223.196C86.0731 225.83 83.9252 227.978 81.2909 227.978ZM57.7447 231.625C55.7994 231.787 53.8541 230.977 53.0031 227.978C55.7994 228.667 58.231 227.127 59.0011 225.425C59.2442 224.817 59.4468 224.33 60.0142 223.925C61.149 223.074 65.4448 224.249 65.9312 225.425C66.5391 226.965 63.8643 226.357 61.1895 231.423C56.3263 240.541 60.9058 244.756 66.0933 243.662C72.8208 242.243 69.9028 234.179 68.7275 227.532C67.9575 223.074 66.0933 221.25 68.6465 219.872C69.7407 219.265 73.5502 220.886 73.915 222.264C74.2797 223.439 73.3881 223.723 73.7124 225.465C74.0771 227.289 75.6171 229.072 77.7651 230.004C80.0346 230.977 81.8988 231.423 82.2636 233.611C82.5878 235.475 79.913 237.178 78.0082 236.651C76.2656 236.164 76.0224 235.313 73.4692 233.165C75.7387 240.987 74.4824 248.566 66.0933 249.538C57.1368 250.592 50.7335 242.73 57.7447 231.625ZM81.2909 221.331C80.2372 221.331 79.3861 222.183 79.3861 223.196C79.3861 224.249 80.2372 225.1 81.2909 225.1C82.3041 225.1 83.1552 224.249 83.1552 223.196C83.1552 222.183 82.3041 221.331 81.2909 221.331Z" fill="#F1C62E"/>
<path d="M164.493 293.828C153.877 291.601 159.424 276.715 159.424 269.664C159.424 269.664 159.464 267.355 158.906 266.447C158.546 265.87 157.748 265.664 156.95 265.664C156.95 265.664 156.391 264.592 159.784 263.932C163.296 263.231 165.012 265.128 165.012 266.447C165.012 276.055 160.782 282.158 163.176 286.158C165.491 290.034 174.871 289.622 175.15 277.045C178.622 286.241 174.272 295.89 164.493 293.828ZM170.72 268.468C173.953 267.107 177.066 268.179 177.744 270.159C178.263 271.643 177.545 273.87 176.028 274.117C175.27 274.241 174.711 273.004 174.152 271.767C173.354 270.076 172.516 269.045 170.72 268.468ZM170.081 274.695C169.562 272.88 168.884 271.726 167.207 270.86C170.6 270.035 173.514 271.602 173.873 273.705C174.152 275.231 173.114 277.292 171.598 277.292C170.839 277.334 170.44 276.014 170.081 274.695Z" fill="#754C24"/>
<path d="M136.573 269.364C133.569 273 122.679 276.509 122.679 278.96C122.679 281.497 133.652 285.09 135.906 287.838C136.865 288.979 136.657 292.868 135.238 293.756C133.778 294.686 131.816 293.925 128.27 289.698C123.597 284.16 118.423 282.046 118.423 279.13C118.423 276.213 125.558 272.112 130.022 267.589C130.022 267.589 131.775 266.067 132.025 264.968C132.192 264.292 131.816 263.531 131.232 262.939C131.232 262.939 131.608 261.755 134.529 263.911C137.533 266.152 137.408 268.308 136.573 269.364Z" fill="#754C24"/>
<path d="M81.1003 291.266C75.2191 291.266 73.3885 284.528 76.5044 281.139C78.0623 279.426 80.4771 278.491 83.2035 277.985C83.3983 274.869 84.0604 273.272 84.333 270.935C83.9436 271.091 83.4762 271.246 82.9698 271.363C81.373 271.714 81.2561 272.571 80.7108 272.649C79.6982 272.843 76.5044 266.923 77.1276 266.066C77.5949 265.482 79.7371 267.468 82.4246 267.157L82.7751 267.079C84.1383 266.806 84.2941 264.625 85.7741 265.054C88.8121 265.872 91.3827 268.364 90.7985 269.688C90.448 270.429 89.0848 270.117 88.6563 271.13C88.1111 272.376 87.6826 273.817 87.7605 277.595C89.7469 277.595 91.8112 277.712 93.7586 277.868C93.7975 276.66 93.7196 275.453 93.6028 274.362C93.5249 273.7 92.6291 273.155 91.6164 273.311C91.6164 273.311 91.149 271.792 95.0439 271.636C99.0166 271.48 100.302 273.544 100.341 274.791C100.38 275.609 99.3282 275.531 99.2503 277.4C99.2114 277.751 99.2114 278.101 99.1724 278.452C104.236 279.075 105.365 280.945 104.664 283.009C103.885 285.424 101.587 285.618 99.6788 284.762C99.1724 284.567 98.6272 284.333 98.0819 284.138C96.1734 289.903 92.1228 292.785 87.2931 293.097C90.7985 290.175 92.5512 286.397 93.2912 282.619C91.4996 282.152 89.669 281.801 87.9553 281.568C87.9553 281.879 87.9942 282.191 88.0332 282.542C88.4616 287.644 85.8131 291.266 81.1003 291.266ZM81.2561 281.801C77.9065 282.931 78.0234 286.787 80.8666 286.397C82.6193 286.164 83.2814 284.489 83.2035 281.412C82.4635 281.49 81.8014 281.607 81.2561 281.801Z" fill="#754C24"/>
<path d="M129.513 95.3653C129.145 95.3653 128.774 95.259 128.448 95.0373L60.1398 48.709C59.2712 48.1211 59.0448 46.9383 59.6327 46.0697C60.223 45.2011 61.4046 44.9747 62.2732 45.565L130.581 91.892C131.45 92.4811 131.676 93.6627 131.087 94.5313C130.72 95.0731 130.121 95.3653 129.513 95.3653Z" fill="#33281B"/>
<path d="M99.3966 70.5801C98.5441 70.773 97.7287 71.0421 96.8497 71.3113C96.0053 71.6035 95.176 71.9523 94.3004 72.3162L46.9615 44.8431C48.9737 43.6603 50.9592 42.5492 52.9713 41.5523C55.0204 40.5775 57.0186 39.6592 59.0619 38.8761L99.3966 70.5801Z" fill="#D3C57E"/>
<path d="M47.7173 44.8416L94.3285 71.8931L94.3343 71.8908C95.1544 71.55 95.9283 71.2289 96.7253 70.9517L97.2393 70.7935C97.6863 70.6549 98.1183 70.5197 98.5537 70.4007L58.9976 39.3089C56.9682 40.0978 54.9826 41.0172 53.1357 41.8951C51.5151 42.699 49.7791 43.6415 47.7173 44.8416ZM94.2719 72.7386L94.1091 72.6439L46.2088 44.8451L46.7702 44.5147C49.0976 43.1472 51.015 42.0972 52.803 41.2113C54.7308 40.2953 56.803 39.3355 58.926 38.5212L59.127 38.4449L100.259 70.7738L99.4801 70.9517C98.8067 71.103 98.1552 71.3052 97.4645 71.52L96.9609 71.6736C96.1997 71.9393 95.4351 72.2558 94.6265 72.5919L94.2719 72.7386Z" fill="#C69F59"/>
<path d="M99.3968 70.5801L99.4268 69.2726C99.4395 68.8279 99.4557 68.3717 99.5111 67.9374L99.667 66.5894L99.7594 65.8998L99.8888 65.2276L62.0087 25.7212L61.4958 27.366C61.3364 27.9204 61.1874 28.4783 61.0419 29.0316C60.7497 30.1393 60.4794 31.24 60.2276 32.3327C59.9677 33.4162 59.7633 34.5239 59.5738 35.62C59.3844 36.715 59.2134 37.8008 59.0621 38.8761L99.3968 70.5801Z" fill="#C69F59"/>
<path d="M59.4691 38.7133L99.0333 69.8121L99.046 69.2634C99.0599 68.7899 99.0772 68.3313 99.1338 67.8901L99.478 65.349L62.18 26.4489L61.8578 27.4781C61.7018 28.0221 61.554 28.5777 61.4084 29.1286C61.1185 30.2317 60.8482 31.329 60.5987 32.4171C60.3238 33.5595 60.1159 34.7099 59.9485 35.6848C59.7717 36.7024 59.6123 37.7119 59.4691 38.7133ZM99.7587 71.3483L58.6548 39.0402L58.686 38.8242C58.8373 37.7442 59.0094 36.6539 59.2 35.5554C59.3698 34.569 59.58 33.4035 59.8584 32.2427C60.109 31.1512 60.3816 30.0469 60.6738 28.9346C60.8205 28.379 60.9695 27.8165 61.1289 27.2609L61.8381 24.9935L100.299 65.1075L100.043 66.6403L99.888 67.9825C99.8349 68.3937 99.8199 68.8153 99.806 69.2842L99.7587 71.3483Z" fill="#C69F59"/>
<path d="M127.884 97.187C127.34 97.187 126.801 96.9548 126.424 96.5043L73.5122 33.1598C72.8388 32.3547 72.9462 31.1557 73.7525 30.4835C74.5564 29.8113 75.7576 29.9187 76.4287 30.7238L129.342 94.0683C130.014 94.8734 129.907 96.0723 129.102 96.7446C128.746 97.0414 128.314 97.187 127.884 97.187Z" fill="#33281B"/>
<path d="M105.23 64.9908C104.801 64.9758 104.339 64.9354 103.91 64.9539L102.581 64.9954C101.659 65.0139 100.789 65.1444 99.8536 65.2611L61.9146 25.8101C64.167 25.221 66.357 24.6758 68.592 24.3062C69.7009 24.111 70.8016 23.9343 71.8908 23.7772C72.9743 23.6109 74.0889 23.5208 75.1701 23.4168L105.23 64.9908Z" fill="#D3C57E"/>
<path d="M62.6376 26.0145L99.9945 64.8591L100.254 64.8268C101.04 64.7263 101.78 64.6315 102.574 64.6154L103.899 64.5738C104.08 64.5657 104.269 64.568 104.46 64.5749L74.9886 23.8164L74.6606 23.8464C73.7654 23.9296 72.8402 24.0162 71.9485 24.1537C70.8593 24.3096 69.7632 24.4852 68.6578 24.6816C66.581 25.0246 64.555 25.5178 62.6376 26.0145ZM99.7115 65.6607L99.5787 65.5244L61.1915 25.6056L61.8187 25.4427C63.9347 24.8883 66.1975 24.3166 68.5307 23.9319C69.6396 23.7356 70.7426 23.5588 71.8365 23.4006C72.7467 23.262 73.6834 23.1742 74.5901 23.0899L75.3502 23.0171L75.4772 23.195L105.994 65.3974L104.817 65.3523C104.52 65.3373 104.216 65.3223 103.927 65.3338L102.592 65.3754C101.837 65.3904 101.115 65.4828 100.351 65.581L99.7115 65.6607Z" fill="#C69F59"/>
<path d="M105.23 64.9908L105.606 63.7214C105.746 63.3033 105.907 62.899 106.067 62.4774C106.231 62.0605 106.396 61.6285 106.578 61.2069L107.174 59.971L81.5863 11.5891C80.951 12.557 80.3366 13.5238 79.7452 14.4894C79.1619 15.4712 78.6097 16.468 78.0738 17.4521C77.5402 18.4432 77.0215 19.418 76.5364 20.4114C76.0605 21.4174 75.6043 22.42 75.17 23.4168L105.23 64.9908Z" fill="#C69F59"/>
<path d="M75.605 23.3704L105.086 64.1417L105.241 63.6127C105.356 63.2708 105.479 62.9496 105.605 62.6216L105.792 62.1365C105.932 61.7784 106.074 61.4146 106.229 61.0554L106.749 59.9788L81.5524 12.3362C81.043 13.1216 80.5486 13.9059 80.0681 14.6879C79.4918 15.6604 78.9419 16.6538 78.4072 17.6333C77.9047 18.5677 77.3722 19.5645 76.8779 20.5787C76.4378 21.5096 76.0116 22.4418 75.605 23.3704ZM105.375 65.8408L74.7341 23.464L74.8207 23.2642C75.2585 22.2639 75.7159 21.2578 76.1929 20.2495C76.6954 19.2192 77.2325 18.2131 77.7395 17.2717C78.2778 16.2807 78.8322 15.2816 79.4178 14.2963C80.015 13.3226 80.6318 12.3512 81.2694 11.3798L81.6228 10.8415L107.601 59.9638L106.92 61.3718C106.775 61.7057 106.637 62.0626 106.5 62.4125L106.315 62.8942C106.192 63.2118 106.073 63.5226 105.967 63.8414L105.375 65.8408Z" fill="#C69F59"/>
<path d="M125.856 98.4515C125.128 98.4515 124.433 98.0311 124.118 97.3219L90.6009 21.8989C90.1747 20.9402 90.6067 19.8164 91.5665 19.3901C92.5241 18.9674 93.648 19.3971 94.0742 20.3558L127.59 95.7799C128.018 96.7386 127.586 97.8613 126.626 98.2875C126.375 98.3984 126.113 98.4515 125.856 98.4515Z" fill="#33281B"/>
<path d="M112.375 61.2022C111.559 60.9423 110.689 60.6559 109.827 60.4838L108.491 60.1985C108.036 60.1049 107.594 60.061 107.132 59.994L81.4716 11.6502C82.6312 11.6699 83.7643 11.6826 84.9079 11.7588C86.0502 11.8339 87.181 11.9263 88.2968 12.0349C90.518 12.2277 92.7288 12.5904 94.8656 12.9797L112.375 61.2022Z" fill="#D3C57E"/>
<path d="M107.376 59.6431L107.58 59.6708C107.91 59.7147 108.235 59.7586 108.566 59.8256L109.906 60.1132C110.53 60.2368 111.149 60.4169 111.755 60.6064L94.583 13.3148C92.6991 12.9741 90.4975 12.6079 88.2637 12.4127C87.1479 12.3053 86.0217 12.2129 84.8828 12.1378C83.9588 12.0766 83.0543 12.057 82.1095 12.0408L107.376 59.6431ZM112.996 61.7972L112.053 61.4981C111.3 61.2578 110.522 61.0106 109.754 60.857L108.411 60.5694C108.101 60.507 107.793 60.4666 107.48 60.425L106.887 60.3419L80.8343 11.2577L81.8011 11.275C82.873 11.2935 83.886 11.3097 84.9325 11.3801C86.0794 11.4552 87.2137 11.5464 88.333 11.6562C90.6812 11.8606 92.9878 12.251 94.9341 12.6045L95.1478 12.6449L112.996 61.7972Z" fill="#C69F59"/>
<path d="M112.375 61.2022C113.281 59.7122 114.368 58.2892 115.617 56.9031L104.303 3.35344C103.425 4.11809 102.568 4.88736 101.733 5.66356C100.896 6.43629 100.081 7.21134 99.3 8.03374C98.5157 8.84575 97.7522 9.66006 97.0106 10.4778C96.6399 10.8879 96.2726 11.2922 95.9145 11.708L94.8657 12.9797L112.375 61.2022Z" fill="#C69F59"/>
<path d="M95.2966 13.0539L112.467 60.342C113.244 59.15 114.145 57.9811 115.205 56.7925L104.065 4.06757C103.359 4.689 102.668 5.31388 101.99 5.94223C101.266 6.61216 100.412 7.41493 99.5761 8.29624C98.7918 9.10709 98.0307 9.9191 97.2914 10.7334L97.1632 10.8743C96.8386 11.2347 96.5175 11.5893 96.2034 11.9566L95.2966 13.0539ZM112.289 62.0757L94.4338 12.9049L95.6212 11.4657C95.9446 11.0903 96.2703 10.7288 96.5995 10.3661L96.7278 10.2229C97.4739 9.40279 98.2397 8.58385 99.0263 7.77069C99.8753 6.87552 100.74 6.06236 101.474 5.38434C102.312 4.60814 103.172 3.83425 104.052 3.06729L104.541 2.64108L116.029 57.0143L115.899 57.1587C114.617 58.5805 113.57 59.9678 112.7 61.3989L112.289 62.0757Z" fill="#C69F59"/>
<path d="M123.512 99.109C122.58 99.109 121.765 98.4217 121.631 97.4723L110.151 15.7381C110.004 14.6997 110.729 13.7387 111.768 13.5931C112.804 13.4337 113.768 14.1707 113.914 15.2102L125.396 96.9444C125.542 97.9828 124.818 98.9438 123.778 99.0894C123.688 99.1032 123.599 99.109 123.512 99.109Z" fill="#33281B"/>
<path d="M115.062 95.3654C114.453 95.3654 113.855 95.0731 113.488 94.5314C112.899 93.6628 113.125 92.4812 113.994 91.8921L182.303 45.565C183.17 44.9748 184.352 45.2012 184.942 46.0698C185.531 46.9384 185.305 48.1212 184.435 48.7091L116.127 95.0373C115.8 95.2591 115.429 95.3654 115.062 95.3654Z" fill="#33281B"/>
<path d="M120.274 59.5135C119.562 59.0561 118.809 58.5617 118.024 58.124L116.824 57.5048C116.415 57.3039 115.991 57.0775 115.57 56.9146L104.175 3.38113C105.28 3.69069 106.382 4.07648 107.462 4.44956C108.542 4.82727 109.604 5.21883 110.649 5.62079C112.74 6.45359 114.771 7.38919 116.718 8.33402L120.274 59.5135Z" fill="#D3C57E"/>
<path d="M115.9 56.6381C116.178 56.7559 116.457 56.8968 116.729 57.0343L118.197 57.7851C118.771 58.1062 119.315 58.4469 119.842 58.7842L116.355 8.57961C114.111 7.49617 112.248 6.66568 110.509 5.97495C109.472 5.5753 108.413 5.18489 107.336 4.80834L107.163 4.74828C106.35 4.46645 105.514 4.17768 104.678 3.92357L115.9 56.6381ZM120.705 60.2419L119.807 59.6655C119.173 59.2578 118.517 58.835 117.838 58.455L116.387 57.7135C116.073 57.5541 115.752 57.3924 115.433 57.2688L115.241 57.1948L103.672 2.84706L104.277 3.01454C105.335 3.31139 106.39 3.67639 107.411 4.02983L107.585 4.09105C108.67 4.46991 109.738 4.86263 110.785 5.2669C112.598 5.98651 114.533 6.85164 116.884 7.99168L117.081 8.08755L120.705 60.2419Z" fill="#C69F59"/>
<path d="M120.274 59.5135C120.915 58.9464 121.594 58.3896 122.31 57.819C123.027 57.3131 123.783 56.7806 124.574 56.2828L128.449 1.68666C126.342 2.665 124.306 3.72534 122.351 4.80185C120.395 5.9419 118.515 7.11428 116.718 8.33402L120.274 59.5135Z" fill="#C69F59"/>
<path d="M117.112 8.52503L120.601 58.7285C121.03 58.3635 121.511 57.9708 122.073 57.5214C122.793 57.0132 123.483 56.5281 124.209 56.0638L128.024 2.3062C126.315 3.1159 124.512 4.04572 122.533 5.13378C120.57 6.28075 118.792 7.39307 117.112 8.52503ZM119.948 60.3086L116.324 8.14155L116.505 8.01912C118.251 6.83287 120.101 5.67319 122.159 4.47309C124.387 3.24642 126.39 2.22419 128.289 1.34172L128.874 1.07144L124.939 56.5015L124.776 56.6043C124.008 57.0871 123.276 57.6034 122.569 58.1024C121.729 58.7677 121.086 59.3025 120.526 59.7981L119.948 60.3086Z" fill="#C69F59"/>
<path d="M121.063 99.109C120.976 99.109 120.887 99.1032 120.797 99.0894C119.757 98.9438 119.033 97.9828 119.179 96.9444L130.66 15.2102C130.806 14.1707 131.764 13.4337 132.807 13.5931C133.845 13.7387 134.569 14.6997 134.424 15.7381L122.943 97.4723C122.81 98.4217 121.996 99.109 121.063 99.109Z" fill="#33281B"/>
<path d="M128.329 60.0876C128.059 59.7296 127.766 59.4304 127.47 59.1024L126.552 58.124C125.917 57.4911 125.239 56.9043 124.526 56.2771L128.319 1.67636C130.269 2.96194 132.143 4.24983 133.926 5.62089C134.816 6.3197 135.685 7.02543 136.534 7.73579C137.382 8.45078 138.213 9.14612 139.01 9.90846L128.329 60.0876Z" fill="#D3C57E"/>
<path d="M124.918 56.1159L125.028 56.2118C125.657 56.7651 126.251 57.2883 126.819 57.8543L127.963 59.0786C128.016 59.1364 128.068 59.193 128.119 59.2496L138.594 10.0383C137.9 9.38458 137.187 8.78279 136.435 8.14982L136.289 8.02623C135.444 7.31934 134.578 6.6159 133.691 5.92056C132.271 4.82787 130.699 3.7144 128.653 2.35258L124.918 56.1159ZM128.528 60.9799L128.027 60.3169C127.829 60.0558 127.618 59.8271 127.403 59.5938L126.274 58.3844C125.731 57.8427 125.146 57.3287 124.526 56.7824L124.134 56.4382L127.985 1.00001L128.528 1.35924C130.861 2.89778 132.596 4.11867 134.158 5.31993C135.054 6.02336 135.926 6.73025 136.777 7.44408L136.926 7.56883C137.743 8.25724 138.513 8.90754 139.273 9.63407L139.426 9.78076L128.528 60.9799Z" fill="#C69F59"/>
<path d="M128.329 60.0876C129.88 59.3264 131.567 58.6576 133.353 58.1702L152.11 6.75163C147.536 7.43889 143.144 8.5281 139.01 9.9084L128.329 60.0876Z" fill="#C69F59"/>
<path d="M139.337 10.201L128.861 59.4123C130.255 58.7712 131.664 58.2491 133.062 57.8564L151.533 7.22561C147.439 7.87591 143.341 8.87619 139.337 10.201ZM127.795 60.7729L138.685 9.61658L138.89 9.54844C143.207 8.10692 147.637 7.03965 152.054 6.37664L152.686 6.28193L133.642 58.4848L133.452 58.5368C131.804 58.9861 130.137 59.6225 128.497 60.4276L127.795 60.7729Z" fill="#C69F59"/>
<path d="M118.719 98.4515C118.462 98.4515 118.2 98.3984 117.949 98.2875C116.989 97.8613 116.557 96.7386 116.983 95.7799L150.501 20.3558C150.927 19.3971 152.051 18.9674 153.008 19.3901C153.968 19.8164 154.4 20.9402 153.974 21.8989L120.457 97.3219C120.142 98.0311 119.447 98.4515 118.719 98.4515Z" fill="#33281B"/>
<path d="M135.922 62.8597C135.747 62.4658 135.576 62.0407 135.375 61.6561L134.749 60.4837C134.325 59.6671 133.827 58.9348 133.307 58.1528L151.988 6.70654C153.511 8.46223 154.96 10.1948 156.279 12.0348C156.943 12.9427 157.585 13.8517 158.207 14.7584C158.828 15.6663 159.406 16.6181 159.975 17.5445L135.922 62.8597Z" fill="#D3C57E"/>
<path d="M133.73 58.1022L133.772 58.1657C134.246 58.8796 134.694 59.553 135.086 60.3095L135.709 61.4773C135.796 61.6425 135.877 61.8146 135.954 61.9878L159.537 17.5574L159.479 17.4638C158.972 16.638 158.447 15.7821 157.893 14.9735C157.274 14.0691 156.633 13.1635 155.971 12.2591C154.732 10.5277 153.358 8.87712 152.124 7.446L133.73 58.1022ZM135.892 63.7262L135.423 62.6693C135.302 62.3875 135.177 62.0999 135.037 61.8319L134.413 60.6641C134.038 59.9388 133.601 59.2815 133.139 58.5862L132.885 58.2039L151.851 5.96868L152.275 6.45727C153.622 8.00967 155.188 9.85892 156.587 11.8133C157.251 12.7211 157.897 13.6336 158.521 14.545C159.085 15.3685 159.616 16.2325 160.127 17.0676L160.413 17.5308L160.31 17.7226L135.892 63.7262Z" fill="#C69F59"/>
<path d="M135.922 62.8597L137.228 62.6345C137.66 62.5837 138.098 62.5433 138.547 62.5017C138.992 62.4659 139.459 62.4162 139.912 62.4023L141.285 62.3908L173.421 18.0851C172.272 17.9418 171.132 17.8183 170.003 17.7131C168.87 17.615 167.728 17.5664 166.607 17.5191C165.485 17.4752 164.376 17.4475 163.275 17.4429C162.163 17.459 161.062 17.4937 159.975 17.5445L135.922 62.8597Z" fill="#C69F59"/>
<path d="M160.209 17.9144L136.621 62.3541L137.164 62.2605C137.612 62.2074 138.046 62.1658 138.49 62.1242L138.891 62.0907C139.225 62.0618 139.565 62.0318 139.9 62.0214L141.09 62.0122L172.734 18.3845C171.804 18.2748 170.882 18.1766 169.968 18.0923C168.89 17.9975 167.787 17.949 166.721 17.904L166.591 17.8982C165.474 17.8555 164.369 17.8277 163.274 17.8231C162.246 17.8381 161.222 17.8693 160.209 17.9144ZM135.222 63.3671L159.741 17.174L159.957 17.1647C161.048 17.1139 162.154 17.0793 163.269 17.0631C164.381 17.0677 165.495 17.0954 166.623 17.1382L166.754 17.144C167.828 17.1913 168.94 17.2387 170.036 17.3345C171.17 17.4408 172.314 17.5644 173.467 17.7076L174.107 17.7873L141.48 62.7676L139.915 62.7826C139.603 62.7907 139.277 62.8207 138.957 62.8484L138.577 62.8808C138.123 62.9224 137.694 62.9628 137.274 63.0125L135.222 63.3671Z" fill="#C69F59"/>
<path d="M116.691 97.187C116.261 97.187 115.829 97.0414 115.473 96.7446C114.668 96.0723 114.561 94.8734 115.233 94.0683L168.146 30.7238C168.818 29.9187 170.017 29.8113 170.823 30.4835C171.629 31.1557 171.736 32.3547 171.063 33.1598L118.151 96.5043C117.775 96.9548 117.235 97.187 116.691 97.187Z" fill="#33281B"/>
<path d="M142.473 67.599C142.341 66.7558 142.222 65.8433 141.995 64.9955L141.66 63.673C141.549 63.2156 141.389 62.8078 141.245 62.362L173.315 18.0089C173.808 19.06 174.302 20.0753 174.732 21.1437C175.17 22.2029 175.587 23.2575 175.983 24.3063C176.792 26.3831 177.436 28.5361 178.035 30.621L142.473 67.599Z" fill="#D3C57E"/>
<path d="M141.668 62.427L141.737 62.6337C141.844 62.9456 141.95 63.2528 142.029 63.5843L142.363 64.9023C142.527 65.5156 142.636 66.1543 142.733 66.7815L177.608 30.515C177.073 28.6531 176.436 26.5162 175.629 24.444C175.233 23.3941 174.818 22.3442 174.381 21.2896C174.034 20.4256 173.651 19.6113 173.246 18.7531L141.668 62.427ZM142.216 68.4148L142.035 67.247C141.926 66.5286 141.813 65.7859 141.627 65.094L141.291 63.7668C141.216 63.455 141.118 63.1697 141.019 62.8798L140.824 62.2965L140.938 62.1405L173.386 17.2631L173.894 18.3477C174.319 19.2451 174.719 20.0941 175.085 21.002C175.522 22.06 175.941 23.1192 176.339 24.1726C177.187 26.3487 177.848 28.5884 178.4 30.5162L178.461 30.7276L142.216 68.4148Z" fill="#C69F59"/>
<path d="M142.473 67.599L143.134 67.6567L143.776 67.7537L145.096 67.9709C145.553 68.0413 145.976 68.1534 146.417 68.2631L147.76 68.6131L190.842 34.8542C189.768 34.4037 188.697 33.9741 187.632 33.5652C186.566 33.1586 185.517 32.7624 184.433 32.4251C183.357 32.0786 182.288 31.7517 181.226 31.4468L179.639 31.0033L178.035 30.6209L142.473 67.599Z" fill="#C69F59"/>
<path d="M143.29 67.2976L145.158 67.5967C145.562 67.6568 145.946 67.7538 146.337 67.8508L147.674 68.1973L190.096 34.9559C189.227 34.5967 188.359 34.2513 187.497 33.921C186.384 33.4948 185.377 33.1159 184.319 32.7879C183.245 32.4414 182.179 32.1168 181.122 31.8119L179.537 31.3706L178.158 31.0403L143.29 67.2976ZM147.846 69.0278L146.152 68.5889C145.784 68.4965 145.424 68.4053 145.038 68.3463L143.078 68.0333L141.649 67.9063L177.911 30.2017L179.728 30.6337L181.329 31.0807C182.397 31.388 183.47 31.7148 184.549 32.0625C185.624 32.3975 186.643 32.7798 187.768 33.2095C188.838 33.6207 189.911 34.0515 190.988 34.5031L191.586 34.7538L147.846 69.0278Z" fill="#C69F59"/>
<path d="M147.469 73.9441C147.566 73.1032 147.675 72.2115 147.724 71.3106C147.74 70.435 147.778 69.4971 147.729 68.5754L190.76 34.753C191.151 37.0331 191.396 39.3293 191.604 41.5528C191.775 43.7982 191.831 46.0287 191.842 48.1932L147.469 73.9441Z" fill="#D3C57E"/>
<path d="M148.118 68.7538C148.146 69.4526 148.13 70.1514 148.115 70.8294L148.105 71.318C148.068 71.9752 148.003 72.614 147.933 73.2354L191.46 47.9754C191.445 45.5221 191.37 43.4846 191.224 41.5822C191.053 39.7433 190.833 37.5984 190.49 35.4488L148.118 68.7538ZM147.004 74.6526L147.115 73.6916C147.206 72.912 147.3 72.1046 147.345 71.2891L147.355 70.8121C147.371 70.0844 147.389 69.3325 147.349 68.5955L147.339 68.398L147.495 68.2767L191.027 34.0593L191.134 34.6888C191.543 37.0717 191.791 39.4777 191.982 41.5175C192.133 43.503 192.21 45.6214 192.221 48.1903L192.222 48.412L192.032 48.5206L147.004 74.6526Z" fill="#C69F59"/>
<path d="M193.495 109.705C182.463 105.506 171.988 106.28 162.971 109.906C158.188 92.2037 142.195 79.109 123.001 79.109C103.807 79.109 87.8135 92.2037 83.0305 109.906C74.0137 106.28 63.5383 105.506 52.5064 109.705C39.4631 114.669 29.5188 126.333 26.829 140.041C21.5949 166.731 41.8564 190.109 67.572 190.109C74.4883 190.109 80.91 188.257 86.646 185.267C95.019 183.683 110.292 173.258 122.728 172.975C135.164 172.693 144.761 182.554 159.779 185.496C165.411 188.35 171.686 190.109 178.429 190.109C204.145 190.109 224.406 166.731 219.17 140.041C216.483 126.333 206.538 114.669 193.495 109.705Z" fill="#CA3828"/>
<path d="M122.755 171.071C129.899 171.071 136.029 174.039 142.512 177.176C147.803 179.736 153.276 182.384 159.776 183.659L160.106 183.722L160.408 183.876C166.112 186.765 172.022 188.231 177.974 188.231C189.73 188.231 200.762 183.01 208.241 173.908C215.716 164.807 218.675 152.817 216.36 141.017C213.83 128.116 204.568 117.171 192.187 112.457C182.668 108.831 172.715 108.896 163.411 112.641L160.868 113.665L160.153 111.016C155.537 93.9242 140.053 81.9873 122.5 81.9873C104.948 81.9873 89.4646 93.9242 84.8469 111.016L84.1316 113.665L81.5889 112.641C72.2826 108.895 62.3301 108.831 52.8145 112.457C40.4322 117.171 31.1714 128.116 28.6396 141.017C26.3244 152.817 29.2839 164.807 36.7592 173.908C44.2381 183.01 55.2699 188.231 67.0261 188.231C73.1271 188.231 79.1718 186.692 84.9925 183.657L85.3111 183.493L85.6642 183.424C88.6565 182.858 92.9738 180.891 97.5423 178.808C105.305 175.271 114.102 171.262 122.172 171.078C122.367 171.073 122.562 171.071 122.755 171.071ZM177.974 193.109C171.358 193.109 164.809 191.518 158.511 188.378C151.536 186.958 145.623 184.098 140.394 181.566C134.016 178.48 128.51 175.854 122.283 175.953C115.208 176.115 106.896 179.903 99.5608 183.247C94.6738 185.473 90.4311 187.407 86.9291 188.143C80.5041 191.439 73.8097 193.109 67.0261 193.109C53.8083 193.109 41.406 187.239 32.9988 177.005C24.5971 166.774 21.2662 153.315 23.8617 140.077C26.7139 125.535 37.145 113.206 51.0836 107.899C60.9232 104.149 71.1832 103.92 80.9173 107.197C86.9 89.354 103.638 77.109 122.5 77.109C141.366 77.109 158.1 89.354 164.084 107.197C173.818 103.918 184.078 104.151 193.918 107.899C207.857 113.206 218.288 125.535 221.138 140.077C223.734 153.315 220.405 166.774 212.001 177.005C203.594 187.239 191.193 193.109 177.974 193.109Z" fill="#D1B163"/>
<path d="M93.3461 140.435C93.0331 140.165 93.1225 139.894 93.2566 139.126H89.6795V157.994C89.6795 159.665 87.1755 160.206 85.4763 160.206C84.7609 160.206 84.2243 160.116 84.0455 159.981C83.5089 159.574 84.0455 159.078 84.0455 156.911V127.932C84.0455 124.998 82.5252 123.734 83.1512 122.967C83.8219 122.154 88.5169 123.508 90.1714 124.817H91.6022C93.6591 124.817 94.1062 122.109 95.2688 122.109C96.2525 122.109 99.472 125.133 99.472 126.262C99.472 127.616 98.4882 127.571 98.4882 129.331V138.404C98.4882 140.119 96.2078 140.616 94.6428 140.616C94.0168 140.616 93.5249 140.571 93.3461 140.435ZM112.394 122.109C113.468 122.109 117 125.133 117 126.262C117 127.616 115.972 127.571 115.972 129.331V153.345C115.972 159.529 113.333 161.109 109.533 161.109C108.147 161.109 107.789 160.477 107.699 159.755C107.61 158.446 106.671 157.588 105.285 157.001C104.659 157.814 103.362 158.085 102.423 158.085C101.887 158.085 101.439 157.994 101.305 157.904C100.903 157.498 101.305 156.956 101.305 154.79V150.908H99.0248C97.9964 155.331 95.4477 158.13 90.7974 157.543C92.7201 155.783 93.9721 153.481 94.5981 150.998C93.2566 151.224 93.0331 151.63 92.6306 151.63C91.6022 151.63 90.2608 147.703 91.0209 147.703C92.0941 147.703 93.2119 148.29 95.0005 148.515V148.47C95.1347 146.71 94.8664 145.536 94.7769 144.678C93.6591 144.904 93.4802 145.265 93.0778 145.265C92.0494 145.265 90.7079 141.338 91.4681 141.338C92.8095 141.338 94.1957 142.286 96.9232 142.286H101.752C103.183 142.286 103.943 141.158 104.569 140.345C103.943 140.571 103.228 140.616 102.647 140.616C101.976 140.616 101.484 140.571 101.35 140.435C100.813 140.029 101.35 139.533 101.35 137.321V127.932C101.35 124.998 99.9191 123.734 100.5 122.967C101.126 122.154 105.419 123.508 106.895 124.817H108.415C110.651 124.817 111.142 122.109 112.394 122.109ZM89.6795 127.932V130.866H93.3461V127.074H89.9031C89.7689 127.3 89.6795 127.571 89.6795 127.932ZM106.447 130.866H110.338V127.074H106.671C106.537 127.3 106.447 127.571 106.447 127.932V130.866ZM89.6795 133.123V136.869H93.3461V133.123H89.6795ZM106.447 136.869H110.338V133.123H106.447V136.869ZM110.338 153.345V139.126H106.313C106.224 139.307 106.09 139.442 105.956 139.578C107.073 139.939 108.773 142.692 108.773 143.505C108.773 144.362 107.431 144.543 106.492 144.543H106.224C106.403 144.724 106.492 144.949 106.492 145.13C106.492 145.897 105.687 146.168 105.687 147.477V148.335C106.582 147.658 106.939 145.942 107.61 145.942C108.325 145.942 109.667 149.012 109.667 149.869C109.667 150.727 108.773 150.908 108.102 150.908H105.687V155.512C108.683 155.783 110.338 155.151 110.338 153.345ZM99.4272 148.651H101.305V147.477C101.305 146.213 101.082 145.265 100.903 144.543H98.3988C99.5614 145.265 100.5 146.168 100.411 146.8C100.322 147.477 99.6508 147.703 99.4272 148.651Z" fill="white"/>
<path d="M140.136 131.75C138.585 132.282 136.76 131.972 135.802 130.331C135.164 129.356 136.167 128.115 137.536 126.696C139.452 124.745 139.999 123.282 139.589 121.109C140.957 122.129 141.869 123.326 142.417 124.523H157.196C159.477 124.523 160.024 121.863 161.256 121.863C162.396 121.863 166 124.833 166 125.986C166 126.696 165.589 126.917 164.814 127.272C163.947 128.558 162.579 129.489 161.21 130.11C161.621 130.73 161.895 131.396 161.895 131.706C161.895 132.548 160.526 132.681 159.568 132.681H153.638V135.342H153.729C156.01 135.342 156.558 133.125 157.789 133.125C158.93 133.125 162.533 135.652 162.533 136.805C162.533 138.091 161.438 138.046 161.438 139.82V143.633C161.438 143.855 161.393 143.988 161.347 144.165C161.438 144.165 161.484 144.121 161.575 144.121C162.67 144.121 164.632 147.136 164.632 148.023C164.632 148.865 163.263 148.998 162.305 148.998H153.638V150.683C153.638 152.323 151.084 152.855 149.35 152.855C148.62 152.855 148.073 152.767 147.891 152.678C147.343 152.279 147.891 151.747 147.891 149.619V148.998H142.69C139.543 148.998 139.36 149.707 138.813 149.707C137.718 149.707 136.395 145.85 137.171 145.85C138.539 145.85 139.953 146.781 142.69 146.781H147.891V144.121H145.792C145.336 145.407 143.101 145.806 141.55 145.806C140.866 145.806 140.273 145.717 140.136 145.628C139.589 145.229 140.136 144.742 140.136 142.569V138.401C140.136 135.563 138.585 134.278 139.178 133.568C139.908 132.77 144.698 134.1 146.385 135.342H147.891V132.681H145.427C142.28 132.681 142.097 133.435 141.55 133.435C141.048 133.435 140.501 132.637 140.136 131.75ZM146.841 126.74H143.01C143.192 128.026 142.918 129.223 142.371 130.065C143.192 130.287 144.196 130.464 145.427 130.464H147.891C147.754 128.602 146.933 127.494 146.841 126.74ZM158.702 126.74H151.585C153.273 127.361 154.733 128.159 154.733 128.78C154.733 129.4 154.003 129.711 153.775 130.464H154.779C156.831 130.464 157.47 128.248 158.519 127.893C158.61 127.494 158.702 127.095 158.702 126.74ZM130.055 133.524C129.371 130.952 128.732 129.888 127.09 128.558C131.651 127.316 135.209 129.711 135.666 132.238C136.076 134.366 134.799 136.849 132.153 136.761C131.058 136.761 130.511 135.297 130.055 133.524ZM145.884 138.844H148.803V137.559H146.066C145.975 137.78 145.884 138.091 145.884 138.401V138.844ZM155.691 138.844V137.559H152.771V138.844H155.691ZM130.009 161.058C128.55 161.546 126.223 158.442 125.174 155.427C124.718 154.097 125.174 154.186 126.36 153.831C127.911 153.432 129.462 152.944 131.104 152.235V142.525C128.048 142.525 127.865 143.234 127.272 143.234C126.223 143.234 124.9 139.377 125.63 139.377C127.044 139.377 127.592 140.308 130.374 140.308C131.606 140.308 132.701 137.913 133.887 137.913C135.027 137.913 137.946 140.618 137.946 141.726C137.946 143.057 136.852 143.012 136.852 144.742V151.924C142.554 153.964 151.038 153.92 160.481 152.9C160.481 152.9 159.477 154.407 159.066 156.89C158.656 159.373 159.386 160.615 158.428 160.703C153.775 161.102 140.546 161.324 134.616 154.806C133.841 156.403 132.701 157.467 131.241 158.575C130.83 158.841 130.648 159.152 130.694 159.595C130.785 160.127 130.648 160.881 130.009 161.058ZM145.884 141.904H148.803V140.662H145.884V141.904ZM152.771 140.662V141.904H155.691V140.662H152.771ZM157.151 145.806C156.421 145.806 155.873 145.717 155.691 145.628C155.326 145.362 155.463 145.008 155.6 144.121H153.638V146.781H157.515C158.702 146.781 159.431 146.027 160.024 145.318C159.158 145.673 158.017 145.806 157.151 145.806Z" fill="white"/>
</svg>
