<svg width="180" height="180" viewBox="0 0 180 180" fill="none" xmlns="http://www.w3.org/2000/svg">
<path d="M82.7824 155.68C64.6195 155.572 50.9184 130.079 46.08 116.462C45.398 117.568 42.3149 118.062 37.5049 118.265C31.4923 118.519 23.3056 103.632 21.5371 101.404C20.154 101.695 17.5995 98.4776 16.7701 95.9079C15.9407 93.3382 16.1967 85.6297 18.6858 87.8502C21.1749 90.0708 38.7021 96.4937 42.6983 96.9529C42.277 90.8311 42.9045 81.4557 46.2176 74.5483C48.0895 67.6553 63.0571 56.4187 67.4906 53.464C58.7924 51.2498 60.1759 48.2146 59.3608 47.0862C58.5458 45.9578 63.874 46.5701 67.0551 45.901C61.2335 34.7047 67.029 26.553 72.889 24.887C78.749 23.221 80.5962 33.3757 81.2654 36.5568C81.9346 39.7379 84.7657 42.8975 90.0281 45.2568C107.069 44.5607 118.56 57.3083 122.126 61.902C131.909 64.4658 136.726 75.0067 137.578 76.9941C138.975 78.1444 155.939 58.5444 157.547 58.6393C160.65 62.9549 159.338 71.5018 158.294 75.2358C158.894 75.1098 160.429 75.2202 161.774 76.6704C163.651 81.4749 156.749 89.8594 152.577 94.0588C154.003 100.836 152.107 119.288 141.179 135.308C132.436 148.123 115.386 152.529 107.954 153.129C107.131 154.024 100.945 155.788 82.7824 155.68Z" fill="#DECC26"/>
<path fill-rule="evenodd" clip-rule="evenodd" d="M84.217 95.0165C84.5644 94.5182 84.9382 93.9865 85.3215 93.4551C86.2856 92.1183 87.3726 90.6918 88.4273 89.5513C88.9545 88.9813 89.4889 88.4659 90.0095 88.0651C90.5173 87.6743 91.077 87.3411 91.6519 87.2202C92.8342 86.9714 93.8932 86.9185 94.9146 87.0527C92.4852 84.9318 89.9792 82.8032 88.5651 81.7578C88.5571 81.7645 88.5486 81.7719 88.5394 81.7802C88.3232 81.9757 88.0324 82.399 87.696 83.0923C87.0386 84.4469 86.3708 86.4789 85.7629 88.6668C85.1494 90.875 84.6114 93.1869 84.217 95.0165ZM99.5068 88.8462C99.0875 88.4718 98.639 88.0727 98.1715 87.6587C95.1782 85.0074 91.3542 81.6938 89.4716 80.3193C89.1485 80.0833 88.7576 79.9681 88.3412 80.0366C87.9556 80.0999 87.6415 80.3054 87.4016 80.5225C86.9327 80.9466 86.5265 81.6176 86.1702 82.3518C85.442 83.8521 84.7413 86.0084 84.1288 88.2127C82.9 92.6353 81.9682 97.4689 81.8582 98.1957C81.8489 98.2569 81.8208 98.4448 81.8812 98.653C81.9157 98.7716 82.0008 98.9712 82.2095 99.1231C82.4331 99.2859 82.6758 99.3058 82.847 99.282C83.1081 99.2457 83.2866 99.1002 83.3308 99.0642L83.3339 99.0616C83.4082 99.0013 83.4736 98.9344 83.5252 98.8782C83.7233 98.6625 83.9914 98.2988 84.2862 97.8838C84.5304 97.54 84.803 97.1467 85.1018 96.7156C85.5716 96.0378 86.1062 95.2665 86.6971 94.4472C87.6502 93.1255 88.6892 91.7661 89.6725 90.7029C90.1643 90.1711 90.6268 89.7303 91.0441 89.4091C91.4742 89.078 91.7933 88.9235 92.001 88.8799C93.241 88.619 94.2554 88.6194 95.2208 88.825C96.1969 89.0329 97.1688 89.4601 98.3168 90.1164C98.3874 90.1568 98.4488 90.1921 98.5025 90.2233C98.8228 90.5096 99.1248 90.7804 99.4034 91.0311C99.6959 91.3321 100.159 91.7767 100.958 92.478C101.121 92.6212 101.237 92.7217 101.306 92.7786C101.323 92.7929 101.342 92.8083 101.36 92.8224C101.368 92.8292 101.381 92.8393 101.396 92.8503L101.397 92.8509C101.405 92.8565 101.447 92.8876 101.503 92.9172C101.522 92.9267 101.567 92.9478 101.595 92.959C101.639 92.9748 101.764 93.005 101.845 93.0144C102.001 93.0106 102.387 92.8637 102.576 92.6833C102.693 92.4737 102.748 92.1069 102.728 91.9755C102.709 91.9072 102.667 91.8029 102.649 91.7656C102.635 91.7419 102.611 91.7028 102.601 91.6869C102.579 91.6558 102.56 91.6326 102.552 91.6223C102.523 91.5873 102.493 91.5576 102.484 91.5485L102.483 91.5476C102.394 91.4579 102.126 91.2103 101.752 90.8687C101.442 90.586 101.044 90.226 100.582 89.8097C100.44 89.6622 100.353 89.5623 100.289 89.4882C100.284 89.4824 100.279 89.4768 100.274 89.4714L100.271 89.4681C100.165 89.346 100.052 89.217 99.8564 89.0729C99.7611 89.0029 99.6474 88.9303 99.5068 88.8462Z" fill="#AD8C52"/>
<path fill-rule="evenodd" clip-rule="evenodd" d="M98.5303 89.6042C98.7667 90.0085 98.6306 90.5279 98.2263 90.7643C96.5757 91.7294 94.6129 92.2946 92.7025 92.7051C91.7428 92.9113 90.7796 93.0817 89.8628 93.2419C89.8048 93.252 89.747 93.2621 89.6895 93.2721C88.8308 93.4221 88.0192 93.5638 87.2682 93.7218C86.8099 93.8182 86.3602 93.5248 86.2638 93.0665C86.1674 92.6082 86.4608 92.1585 86.9191 92.0621C87.7 91.8978 88.5393 91.7513 89.3897 91.6028C89.45 91.5923 89.5104 91.5817 89.5708 91.5712C90.4891 91.4107 91.4225 91.2454 92.3462 91.0469C94.2027 90.648 95.9547 90.1278 97.3702 89.3002C97.7745 89.0638 98.2939 89.1999 98.5303 89.6042Z" fill="#AD8C52"/>
<path fill-rule="evenodd" clip-rule="evenodd" d="M97.9484 89.0127C98.4067 88.9163 98.8564 89.2097 98.9528 89.668C99.3753 91.676 98.6366 93.3721 97.8726 94.8201C97.7217 95.1063 97.5717 95.3807 97.4264 95.6466C96.7963 96.7995 96.2541 97.7916 96.0984 98.8855C96.0558 99.1842 95.9846 99.4714 95.8599 99.7186C95.7321 99.9719 95.5186 100.237 95.1765 100.373C94.8346 100.509 94.5093 100.458 94.2753 100.374C94.0476 100.292 93.8509 100.162 93.6964 100.041C93.3876 99.7995 93.0904 99.4711 92.853 99.1959C92.7474 99.0734 92.6556 98.9641 92.5731 98.8659C92.4466 98.7152 92.3419 98.5906 92.2428 98.4845C90.651 96.7798 88.1887 95.0695 86.1107 93.8646C85.7055 93.6297 85.5675 93.1108 85.8024 92.7056C86.0374 92.3004 86.5563 92.1624 86.9614 92.3974C89.0996 93.6372 91.7256 95.4455 93.4824 97.327C93.6083 97.4618 93.7659 97.6489 93.917 97.8284C93.9938 97.9196 94.0689 98.0088 94.1374 98.0882C94.2497 98.2185 94.3552 98.336 94.4529 98.4373C94.694 97.0872 95.3836 95.8346 95.992 94.7294C96.1246 94.4887 96.2532 94.255 96.3726 94.0288C97.1098 92.6315 97.5845 91.402 97.2931 90.0171C97.1967 89.5588 97.4901 89.1091 97.9484 89.0127Z" fill="#AD8C52"/>
<path fill-rule="evenodd" clip-rule="evenodd" d="M95.9234 88.774C95.9205 88.738 95.9153 88.7017 95.9077 88.6654C95.8195 88.2465 95.5017 88.05 95.3519 87.9776C95.1886 87.8986 95.0209 87.8639 94.9023 87.8453C94.6556 87.8068 94.3682 87.8024 94.1242 87.8052C93.9383 87.8072 93.7417 87.8144 93.5711 87.8205C93.5123 87.8227 93.4567 87.8247 93.4056 87.8263C93.3005 87.8298 93.2141 87.8318 93.145 87.8316C93.0907 87.8315 93.0634 87.8299 93.0552 87.8295C93.0518 87.8293 93.0518 87.8293 93.0545 87.8296C92.6832 87.778 92.3265 87.7865 91.9658 87.9194C91.6288 88.0435 91.3604 88.2521 91.1331 88.4431C91.0682 88.4976 90.9304 88.6027 90.7534 88.7377C90.5423 88.8987 90.2755 89.1023 90.0101 89.3133C89.8085 89.4735 89.5704 89.6674 89.4386 89.8092C89.438 89.8099 89.4373 89.8106 89.4365 89.8114C89.411 89.8388 89.3208 89.9356 89.2562 90.0702L89.2556 90.0714C89.2352 90.1138 89.1454 90.3006 89.175 90.5501C88.8646 90.607 88.5604 90.6657 88.2678 90.7273C87.8095 90.8237 87.5161 91.2734 87.6125 91.7317C87.7089 92.19 88.1586 92.4834 88.6169 92.387C89.3429 92.2342 90.0626 92.1131 90.8096 91.9873C91.374 91.8922 91.9541 91.7945 92.5643 91.6786C93.9245 91.4203 95.3217 91.088 96.6012 90.5292C96.8354 90.4269 96.9885 90.3662 97.0739 90.3325C97.0756 90.3318 97.0781 90.3308 97.0812 90.3296C97.1066 90.3197 97.1747 90.2932 97.2207 90.2705C97.2325 90.2647 97.2575 90.2521 97.2876 90.2339C97.2879 90.2337 97.2884 90.2334 97.289 90.2331C97.3036 90.2244 97.3988 90.168 97.4882 90.066C97.5275 90.0212 97.6672 89.8566 97.6943 89.5933C97.731 89.2358 97.5438 88.9609 97.3471 88.8188C97.1969 88.7104 97.0519 88.6812 97.0075 88.6728C96.9457 88.6612 96.8958 88.6589 96.8702 88.6583C96.7867 88.6562 96.7174 88.6679 96.7174 88.6679C96.6984 88.6707 96.6819 88.6737 96.6732 88.6754C96.6609 88.6776 96.6461 88.6806 96.6288 88.684C96.5091 88.7078 96.269 88.7555 95.9234 88.774Z" fill="#AD8C52"/>
<path fill-rule="evenodd" clip-rule="evenodd" d="M58.1261 61.8049C58.4837 62.4096 58.2834 63.1896 57.6787 63.5472C45.8149 70.5629 43.2818 84.3324 43.5284 90.3498C43.5571 91.0517 43.0114 91.644 42.3095 91.6728C41.6076 91.7016 41.0152 91.1559 40.9865 90.4539C40.7206 83.9657 43.3796 69.0475 56.3837 61.3574C56.9884 60.9998 57.7685 61.2002 58.1261 61.8049Z" fill="#C39B54"/>
<path fill-rule="evenodd" clip-rule="evenodd" d="M92.2427 45.5663C92.3052 44.8665 92.9232 44.35 93.6229 44.4126C96.3935 44.6605 100.943 45.5621 105.736 47.4574C110.525 49.3515 115.651 52.2746 119.474 56.6211C119.938 57.1486 119.886 57.9524 119.359 58.4163C118.831 58.8803 118.028 58.8288 117.564 58.3013C114.097 54.3601 109.368 51.6294 104.8 49.8231C100.235 48.018 95.9249 47.1727 93.3963 46.9466C92.6966 46.884 92.1801 46.266 92.2427 45.5663Z" fill="#C39B54"/>
<path fill-rule="evenodd" clip-rule="evenodd" d="M124.223 58.3806C124.621 58.6288 124.741 59.1519 124.493 59.5491L121.792 63.8725C121.544 64.2697 121.021 64.3905 120.624 64.1423C120.226 63.8942 120.106 63.371 120.354 62.9738L123.055 58.6505C123.303 58.2533 123.826 58.1325 124.223 58.3806Z" fill="#C39B54"/>
<path fill-rule="evenodd" clip-rule="evenodd" d="M126.697 60.4718C127.09 60.7277 127.2 61.2531 126.944 61.6453L124.979 64.6586C124.723 65.0508 124.197 65.1614 123.805 64.9055C123.413 64.6496 123.302 64.1241 123.558 63.7319L125.524 60.7186C125.78 60.3264 126.305 60.2159 126.697 60.4718Z" fill="#C39B54"/>
<path fill-rule="evenodd" clip-rule="evenodd" d="M15.9022 86.9162C16.4328 85.4094 18.2493 85.1578 19.2847 86.0894C21.279 87.884 24.5892 90.5527 27.1072 91.6672C28.5787 92.3185 31.7241 93.1973 35.1746 94.0457C38.5818 94.8834 42.1598 95.6618 44.4108 96.1218C45.0991 96.2624 45.5431 96.9344 45.4024 97.6227C45.2618 98.311 44.5898 98.755 43.9015 98.6143C41.6251 98.1491 38.0137 97.3635 34.5672 96.5161C31.1639 95.6794 27.7911 94.752 26.0775 93.9935C23.3858 92.8021 20.1432 90.2315 18.0836 88.4251C17.5026 90.3236 17.1535 92.6454 17.5347 94.7221C17.9436 96.9492 19.1778 98.9012 22.0586 99.8679C22.2763 99.9333 22.4307 100.039 22.5117 100.101C22.6191 100.183 22.7015 100.268 22.7571 100.331C22.8681 100.455 22.9652 100.594 23.0429 100.713C23.2021 100.956 23.3849 101.278 23.5787 101.629C23.699 101.847 23.8278 102.084 23.9665 102.339C24.2928 102.94 24.6735 103.641 25.1252 104.427C26.4049 106.655 28.1703 109.417 30.4331 111.77C32.6991 114.126 35.3858 115.99 38.5006 116.575C41.5752 117.152 45.2655 116.519 49.6483 113.5C50.2269 113.102 51.0189 113.248 51.4174 113.826C51.8159 114.405 51.6699 115.197 51.0913 115.595C46.265 118.919 41.8971 119.801 38.0314 119.075C34.206 118.358 31.0706 116.103 28.5995 113.534C26.1253 110.961 24.2388 107.992 22.9191 105.694C22.4517 104.88 22.0447 104.131 21.714 103.523C21.5803 103.276 21.4591 103.053 21.3513 102.858C21.1846 102.556 21.0571 102.333 20.9607 102.179C17.2825 100.838 15.5705 98.1121 15.0325 95.1815C14.4958 92.2581 15.1161 89.1485 15.9022 86.9162Z" fill="#C39B54"/>
<path fill-rule="evenodd" clip-rule="evenodd" d="M127.172 64.8105C127.392 64.1431 128.111 63.7798 128.778 63.9991C131.027 64.7381 135.673 67.6054 136.889 73.3834C137.033 74.0709 136.593 74.7454 135.906 74.89C135.218 75.0346 134.544 74.5946 134.399 73.9071C133.427 69.2843 129.665 66.9685 127.984 66.416C127.316 66.1967 126.953 65.4779 127.172 64.8105Z" fill="#C39B54"/>
<path fill-rule="evenodd" clip-rule="evenodd" d="M157.031 60.3761C156.671 60.8615 156.242 61.383 155.764 61.9278C154.401 63.4794 152.549 65.3231 150.524 67.2249C146.468 71.0337 141.632 75.1565 138.415 77.7914C137.872 78.2366 137.07 78.1568 136.625 77.6133C136.18 77.0699 136.26 76.2684 136.803 75.8233C139.993 73.2109 144.782 69.1273 148.783 65.3704C150.786 63.4893 152.569 61.7103 153.852 60.2494C154.495 59.5168 154.989 58.89 155.319 58.3877C155.612 57.9422 155.692 57.7153 155.713 57.6588C155.718 57.6436 155.719 57.6407 155.719 57.6491C155.726 57.5052 155.741 57.3442 155.775 57.1846C155.803 57.0565 155.874 56.7775 156.083 56.5178C156.2 56.3722 156.386 56.2022 156.657 56.0989C156.938 55.9917 157.218 55.9917 157.455 56.0499C157.865 56.1503 158.112 56.4113 158.199 56.5078C158.406 56.7384 158.555 57.031 158.657 57.2502C158.773 57.5013 158.89 57.7997 159.005 58.1277C159.461 59.4319 159.978 61.484 160.331 63.7359C160.684 65.9845 160.886 68.5132 160.668 70.7509C160.567 71.7823 160.37 72.834 160.009 73.7873C160.019 73.7873 160.029 73.7874 160.039 73.7875C160.803 73.7959 161.497 73.9283 162.064 74.2839C162.675 74.6667 162.982 75.2081 163.136 75.7117C163.254 76.1004 163.293 76.5217 163.317 76.7887C163.32 76.8235 163.323 76.8558 163.326 76.885C163.407 77.7247 163.438 81.5115 161.071 85.9406C158.682 90.4113 153.909 95.425 144.559 98.7313C143.897 98.9655 143.17 98.6185 142.936 97.9561C142.702 97.2938 143.049 96.567 143.711 96.3328C152.509 93.2218 156.76 88.6103 158.827 84.7416C160.917 80.8314 160.836 77.5646 160.794 77.1305C160.791 77.1024 160.788 77.0754 160.786 77.0496C160.754 76.723 160.74 76.5771 160.703 76.4538C160.7 76.4441 160.697 76.4362 160.695 76.4299C160.639 76.4036 160.452 76.3363 160.011 76.3314C159.498 76.3258 158.744 76.4054 157.649 76.6358L156.627 74.3706C157.388 73.8043 157.939 72.5208 158.136 70.5042C158.325 68.5626 158.153 66.2683 157.818 64.1302C157.598 62.7261 157.312 61.4243 157.031 60.3761Z" fill="#C39B54"/>
<path fill-rule="evenodd" clip-rule="evenodd" d="M71.5668 23.5762L71.6684 23.5548C73.5826 23.1522 75.6574 23.697 77.3135 24.6763C78.9638 25.652 80.4275 27.1964 80.9128 29.0587C80.9835 29.3302 81.0649 29.6644 81.1585 30.0487C81.5868 31.8072 82.2707 34.6149 83.3604 37.2707C84.0222 38.8835 84.8037 40.3599 85.7114 41.4622C86.6198 42.5656 87.5658 43.1905 88.5553 43.3356C89.2504 43.4376 89.7312 44.0837 89.6293 44.7788C89.5273 45.4739 88.8812 45.9547 88.1861 45.8527C86.3441 45.5825 84.8819 44.4573 83.7473 43.0793C82.612 41.7003 81.7157 39.964 81.0068 38.2364C79.8335 35.3771 79.0914 32.321 78.6702 30.5863C78.584 30.2312 78.5112 29.9315 78.4509 29.7002C78.1869 28.687 77.2962 27.6215 76.0187 26.8662C74.7832 26.1356 73.4015 25.8247 72.2889 26.0255C68.0922 27.7029 66.2841 31.4515 65.9761 35.5317C65.6608 39.7086 66.9595 43.8824 68.5616 45.8566L70.5265 48.2778L67.4287 47.9218C67.1876 47.8941 66.8798 47.8502 66.5253 47.7995C65.3787 47.6357 63.7422 47.402 62.2845 47.4215C61.2995 47.4346 60.686 47.5699 60.4186 47.7284C60.4135 47.7315 60.4088 47.7344 60.4045 47.7371C60.4107 47.7806 60.4267 47.8515 60.4659 47.9557C60.6074 48.3317 60.9559 48.7701 61.5901 49.237C62.2137 49.696 63.0243 50.1168 63.9358 50.4873C65.7593 51.2287 67.8131 51.6997 69.1332 51.9012C69.8277 52.0071 70.3048 52.656 70.1988 53.3505C70.0928 54.045 69.4439 54.522 68.7494 54.4161C67.2842 54.1925 65.0288 53.6779 62.9777 52.8441C61.9518 52.427 60.9337 51.9128 60.0819 51.2857C59.2408 50.6665 58.4673 49.8677 58.0849 48.8519C57.856 48.2438 57.7658 47.5821 57.9707 46.9366C58.1801 46.2768 58.6357 45.828 59.1209 45.5403C60.0092 45.0135 61.2191 44.8915 62.2505 44.8777C63.1823 44.8652 64.2037 44.9464 65.1205 45.0489C63.8806 42.3779 63.1778 38.8044 63.4393 35.3403C63.7963 30.6111 65.9919 25.7402 71.47 23.6138L71.5668 23.5762ZM60.4012 47.6814C60.4013 47.6814 60.4012 47.6826 60.4008 47.6849C60.401 47.6825 60.4011 47.6814 60.4012 47.6814ZM60.364 47.7662C60.3632 47.7671 60.3627 47.7676 60.3626 47.7676C60.3626 47.7676 60.363 47.7671 60.364 47.7662Z" fill="#C39B54"/>
<path fill-rule="evenodd" clip-rule="evenodd" d="M160.463 110.911C160.928 111.438 160.877 112.241 160.35 112.706L134.54 135.444C134.013 135.908 133.209 135.857 132.745 135.33C132.28 134.803 132.331 133.999 132.858 133.535L158.668 110.797C159.195 110.333 159.999 110.383 160.463 110.911Z" fill="#C39B54"/>
<path fill-rule="evenodd" clip-rule="evenodd" d="M167.349 121.346C167.198 122.032 166.519 122.466 165.833 122.315L152.237 119.316C151.551 119.165 151.117 118.486 151.269 117.8C151.42 117.114 152.099 116.681 152.785 116.832L166.381 119.83C167.067 119.982 167.5 120.66 167.349 121.346Z" fill="#C39B54"/>
<path fill-rule="evenodd" clip-rule="evenodd" d="M149.48 105.107C150.154 104.909 150.861 105.296 151.059 105.97L154.491 117.669C154.689 118.343 154.303 119.05 153.628 119.248C152.954 119.446 152.248 119.06 152.05 118.385L148.618 106.686C148.42 106.012 148.806 105.305 149.48 105.107Z" fill="#C39B54"/>
<path fill-rule="evenodd" clip-rule="evenodd" d="M36.8197 140.578C36.8827 139.878 37.501 139.362 38.2007 139.425L70.2735 142.315C70.9732 142.378 71.4893 142.996 71.4263 143.696C71.3632 144.395 70.7449 144.911 70.0452 144.848L37.9724 141.959C37.2728 141.896 36.7567 141.277 36.8197 140.578Z" fill="#C39B54"/>
<path fill-rule="evenodd" clip-rule="evenodd" d="M47.4245 140.547C47.9351 141.029 47.9579 141.835 47.4754 142.345L39.3199 150.975C38.8374 151.486 38.0323 151.508 37.5217 151.026C37.0111 150.543 36.9884 149.738 37.4709 149.228L45.6264 140.598C46.1089 140.087 46.914 140.064 47.4245 140.547Z" fill="#C39B54"/>
<path fill-rule="evenodd" clip-rule="evenodd" d="M40.0014 129.936C40.6123 129.589 41.3888 129.803 41.7356 130.414L47.657 140.843C48.0039 141.454 47.7898 142.231 47.1789 142.577C46.568 142.924 45.7916 142.71 45.4447 142.099L39.5233 131.67C39.1765 131.06 39.3905 130.283 40.0014 129.936Z" fill="#C39B54"/>
<path fill-rule="evenodd" clip-rule="evenodd" d="M47.9238 119.834C48.6219 119.756 49.2517 120.258 49.3305 120.956C49.4706 122.198 50.0425 123.618 50.7757 124.861C51.528 126.137 52.3185 127.007 52.742 127.284C53.3304 127.668 53.4962 128.456 53.1123 129.044C52.7285 129.632 51.9403 129.798 51.352 129.414C50.4362 128.817 49.4037 127.543 48.5841 126.153C47.7454 124.73 46.9967 122.962 46.8025 121.241C46.7237 120.543 47.2257 119.913 47.9238 119.834Z" fill="#C39B54"/>
<path fill-rule="evenodd" clip-rule="evenodd" d="M152.021 96.44C152.677 96.1882 153.412 96.5156 153.664 97.1715C154.042 98.1546 154.425 100.55 152.884 102.554C152.455 103.111 151.657 103.216 151.1 102.788C150.543 102.359 150.439 101.561 150.867 101.004C151.669 99.9606 151.487 98.5982 151.289 98.0835C151.037 97.4277 151.365 96.6919 152.021 96.44Z" fill="#C39B54"/>
<path fill-rule="evenodd" clip-rule="evenodd" d="M73.0215 152.601C73.3301 151.97 74.0919 151.709 74.723 152.017C78.1157 153.676 88.2664 156.422 100.595 153.378C101.277 153.209 101.967 153.626 102.135 154.308C102.304 154.99 101.887 155.679 101.205 155.848C88.2717 159.042 77.5109 156.212 73.6056 154.303C72.9745 153.994 72.713 153.232 73.0215 152.601Z" fill="#C39B54"/>
<path fill-rule="evenodd" clip-rule="evenodd" d="M105.53 149.313C105.997 149.277 106.405 149.626 106.442 150.093C106.526 151.18 106.658 152.39 106.985 153.389C107.32 154.409 107.782 154.986 108.376 155.173C108.822 155.314 109.071 155.79 108.93 156.237C108.789 156.684 108.313 156.932 107.866 156.791C106.48 156.354 105.765 155.109 105.374 153.918C104.977 152.706 104.836 151.315 104.751 150.224C104.714 149.757 105.063 149.349 105.53 149.313Z" fill="#C39B54"/>
<path fill-rule="evenodd" clip-rule="evenodd" d="M110.411 148.6C110.878 148.63 111.233 149.033 111.203 149.5C111.181 149.853 111.211 150.488 111.39 151.152C111.569 151.82 111.876 152.432 112.342 152.841C112.694 153.15 112.729 153.686 112.42 154.038C112.112 154.39 111.576 154.425 111.224 154.116C110.415 153.407 109.98 152.443 109.752 151.593C109.522 150.739 109.477 149.918 109.51 149.392C109.54 148.925 109.943 148.57 110.411 148.6Z" fill="#C39B54"/>
<path fill-rule="evenodd" clip-rule="evenodd" d="M139.516 137.123C140.072 137.552 140.176 138.35 139.748 138.907C132.574 148.229 120.593 152.067 115.475 152.844C114.781 152.95 114.132 152.472 114.027 151.778C113.921 151.083 114.399 150.435 115.093 150.329C119.866 149.604 131.113 145.956 137.732 137.356C138.16 136.799 138.959 136.695 139.516 137.123Z" fill="#C39B54"/>
<path d="M97.9226 66.9934C95.7386 68.146 96.4346 70.6764 97.0556 71.7975L97.4916 76.6163L99.1217 78.8731L101.764 79.7616L106.248 79.1072L107.42 77.1274L106.598 72.5342L105.209 69.3602C104.321 68.3435 102.494 66.2051 102.29 65.7857C102.036 65.2616 100.652 65.5525 97.9226 66.9934Z" fill="white" fill-opacity="0.9"/>
<path fill-rule="evenodd" clip-rule="evenodd" d="M62.7268 78.2234C63.2402 77.2708 63.9189 76.453 64.7424 75.9065C65.6814 75.2834 66.5841 74.7917 67.4448 74.4352C67.2832 74.4325 67.124 74.4347 66.9673 74.4421C66.7219 74.4913 66.4745 74.5425 66.2252 74.5949C65.8672 74.6702 65.2999 74.9333 64.6151 75.3874C64.0566 75.7576 63.4661 76.224 62.9137 76.7374C62.8064 76.8706 62.7058 77.0032 62.6115 77.1353C62.6243 77.4727 62.6617 77.8349 62.7268 78.2234ZM61.9653 85.6096C62.276 86.5888 62.646 87.5311 63.1058 88.3823C63.743 89.5619 64.5263 90.5116 65.5141 91.1313C66.489 91.743 67.7245 92.0724 69.3478 91.9149C70.0523 91.8466 70.7195 91.7095 71.3461 91.5112C68.3508 91.603 66.2504 90.7657 64.7425 89.0165C64.3984 88.6173 64.0927 88.1785 63.8177 87.7055C63.1707 87.2554 62.6835 86.664 62.3329 85.9935C62.207 85.8682 62.0844 85.7402 61.9653 85.6096ZM61.6471 81.7864C61.6579 81.6827 61.6703 81.5788 61.6845 81.4748C61.6065 81.1334 61.5296 80.7856 61.4528 80.4321C61.4532 80.9014 61.5229 81.3538 61.6471 81.7864ZM67.7599 89.2268C69.2591 89.9218 71.4054 90.0612 74.6768 89.373C74.7511 89.3574 74.8251 89.352 74.8975 89.3559C75.9336 88.3096 76.6883 87.0068 77.1139 85.5564C76.9289 85.7455 76.7346 85.9264 76.5321 86.0989C76.342 86.7665 76.0449 87.3516 75.6476 87.8503C74.8936 88.7967 73.8427 89.351 72.6891 89.6023C71.1808 89.9308 69.4451 89.7568 67.7599 89.2268ZM75.0107 85.142C74.8701 85.2457 74.7246 85.3459 74.5745 85.4425C72.3788 86.8553 69.3111 87.4198 66.5988 86.9421C66.4269 86.8583 66.256 86.7701 66.0867 86.6776C65.6281 86.4273 65.1892 86.1503 64.7769 85.8506C64.5561 85.3518 64.3529 84.8039 64.1615 84.206C63.8887 83.354 63.6458 82.4207 63.4098 81.4081C63.7144 79.647 64.5869 78.0451 65.6801 77.3197C69.1778 74.9986 71.3732 75.0885 72.6971 76.171C73.411 76.7548 74.0039 77.7139 74.422 79.0743C74.8389 80.4303 75.0646 82.1297 75.0843 84.1158C75.0881 84.4926 75.0619 84.8336 75.0107 85.142ZM77.2048 82.3458C77.3071 82.0668 77.3872 81.7741 77.4419 81.4676C77.4026 81.1289 77.3471 80.7879 77.2751 80.4457C77.1823 80.0045 77.0516 79.5773 76.8873 79.1654C76.9884 79.8514 77.0456 80.5429 77.0981 81.1774L77.0986 81.1837C77.1332 81.601 77.1655 81.9889 77.2048 82.3458ZM66.7446 72.7566C66.7492 72.7557 66.7538 72.7548 66.7584 72.7539C66.243 72.7775 65.7624 72.8546 65.3258 72.9829C65.7904 72.8592 66.2664 72.7875 66.7446 72.7566ZM60.9308 76.3265C60.4102 76.8931 59.9437 77.4964 59.5977 78.0977C59.166 78.8481 58.8378 79.7411 59.0182 80.5987C59.062 80.8066 59.1063 81.0204 59.1518 81.2392C59.6585 83.6806 60.2949 86.7473 61.6135 89.1883C62.3408 90.5348 63.3019 91.7456 64.6127 92.568C65.9364 93.3985 67.5536 93.7929 69.5115 93.603C75.9866 92.9751 79.7184 87.459 79.1516 81.5163C79.319 80.3339 79.1949 79.0449 78.7267 77.6722C78.1838 76.0803 77.4256 74.879 76.473 74.0122C75.5175 73.1427 74.4103 72.6496 73.2342 72.4086C72.9011 72.3404 72.5611 72.2922 72.2158 72.2613C71.015 71.7014 69.7679 71.327 68.572 71.1572C66.3995 70.8487 64.2051 71.1852 62.6963 72.5067C61.6587 73.4155 61.0428 74.7011 60.9308 76.3265Z" fill="#AD8C52"/>
<path fill-rule="evenodd" clip-rule="evenodd" d="M102.477 83.3686C103.631 83.7852 104.817 83.9439 105.953 83.705C106.332 83.6253 106.598 83.3036 106.624 82.9353C109.332 82.1106 111.347 80.2493 112.443 77.8389C114.274 73.8127 113.451 68.4522 109.37 64.2995C107.924 62.8279 106.024 62.0749 104.046 61.8926C101.581 60.405 99.0511 60.7594 96.9727 62.1508C94.8723 63.5569 93.2176 66.0148 92.3567 68.722C91.4942 71.4343 91.3924 74.5116 92.5476 77.1802C93.7187 79.8855 96.1366 82.0631 100.08 82.997C100.91 83.1933 101.71 83.3151 102.477 83.3686ZM98.0507 80.5043C97.4429 79.9338 96.8655 79.3118 96.332 78.6568C95.0761 77.1146 94.0371 75.3565 93.4165 73.5998C93.4878 74.6125 93.7102 75.5967 94.1041 76.5065C94.7973 78.1078 96.0452 79.5358 98.0507 80.5043ZM101.769 81.1786C102.132 81.3825 102.49 81.554 102.839 81.6925C105.747 81.836 108.001 80.836 109.502 79.2329C107.897 80.4036 105.792 81.1232 103.795 81.2562C103.12 81.3011 102.435 81.2791 101.769 81.1786ZM98.8391 77.631C98.6487 77.3302 98.4956 76.9935 98.3849 76.6201C97.643 74.1179 96.9662 71.6957 97.123 69.7618C97.199 68.8246 97.4682 68.0679 97.9733 67.4842C98.4774 66.9017 99.2899 66.4066 100.611 66.1286C101.431 65.9562 102.368 66.3331 103.356 67.3388C104.33 68.3297 105.211 69.8007 105.851 71.4078C106.491 73.0137 106.861 74.6822 106.871 76.037C106.881 77.4562 106.504 78.2271 106.024 78.508C105.937 78.559 105.862 78.6233 105.801 78.6967C105.094 78.8063 104.303 78.85 103.48 78.814C101.914 78.7457 100.318 78.3932 99.0482 77.7425C98.9773 77.7061 98.9076 77.6689 98.8391 77.631ZM110.156 75.9961C110.093 75.6164 110.03 75.2215 109.964 74.8154C109.702 73.1768 109.41 71.3552 108.955 69.6122C109.026 69.7249 109.096 69.8387 109.163 69.9534C110.451 72.1428 110.903 74.393 110.156 75.9961ZM105.873 66.2656C106.393 67.1959 106.8 68.2482 107.131 69.3776C107.309 69.9871 107.463 70.6066 107.598 71.2292C107.543 71.0787 107.486 70.9289 107.426 70.78C106.731 69.0343 105.743 67.3485 104.566 66.1502C104.229 65.8066 103.863 65.4915 103.474 65.2259C103.638 65.2591 103.807 65.2961 103.979 65.3371C104.559 65.4753 105.207 65.7923 105.873 66.2656ZM108.548 76.6578C108.525 76.9929 108.481 77.3254 108.409 77.6462C108.426 77.6279 108.441 77.6097 108.456 77.5917C108.606 77.4035 108.65 77.2301 108.613 77.0253C108.591 76.9037 108.57 76.7811 108.548 76.6578ZM107.164 65.1112C107.017 64.8669 106.862 64.6283 106.697 64.3964C107.235 64.6848 107.728 65.0479 108.161 65.4882C109.41 66.7594 110.302 68.1378 110.874 69.5343C110.793 69.3853 110.71 69.2383 110.625 69.0936C109.857 67.7881 108.869 66.584 107.8 65.637C107.593 65.4532 107.38 65.2773 107.164 65.1112Z" fill="#AD8C52"/>
<path fill-rule="evenodd" clip-rule="evenodd" d="M64.6651 86.9025C65.2924 87.735 66.3096 88.1669 67.3507 88.3081C68.8181 88.5071 70.5433 88.1849 72.0406 87.4822C73.5344 86.7812 74.925 85.6415 75.5776 84.0935C76.2535 82.4902 76.0685 80.6151 74.7118 78.6567C73.0047 75.5568 71.8243 75.4269 70.0364 75.5155C69.2029 75.5568 68.3771 75.8559 67.5392 76.2685C66.7007 76.6815 65.7766 77.2467 64.752 77.8754C63.0705 78.9072 62.9906 80.7479 63.2199 82.2491C63.3382 83.024 63.5515 83.8074 63.7536 84.5066C63.7961 84.6536 63.8377 84.7957 63.8779 84.9331C64.0357 85.4721 64.172 85.9379 64.2569 86.3413C64.3087 86.5877 64.4626 86.7864 64.6651 86.9025Z" fill="white" fill-opacity="0.9"/>
</svg>
