<svg width="148" height="135" viewBox="0 0 148 135" fill="none" xmlns="http://www.w3.org/2000/svg">
<g clip-path="url(#clip0_27_874)">
<path d="M67.6374 129.091C50.6458 128.99 37.8283 105.141 33.3018 92.4015C32.6638 93.4365 29.7796 93.8991 25.2797 94.0891C19.6549 94.3265 11.9961 80.3994 10.3417 78.3154C9.04776 78.5876 6.65805 75.5773 5.88213 73.1733C5.1062 70.7694 5.34569 63.5579 7.67428 65.6353C10.0029 67.7126 26.3997 73.7214 30.1382 74.151C29.7441 68.424 30.3312 59.6531 33.4306 53.1912C35.1817 46.7427 49.1842 36.2307 53.3317 33.4666C45.1945 31.3952 46.4887 28.5557 45.7262 27.5001C44.9637 26.4445 49.9483 27.0173 52.9243 26.3912C47.4782 15.917 52.8999 8.29101 58.382 6.73246C63.8641 5.1739 65.5922 14.6737 66.2182 17.6497C66.8443 20.6256 69.4928 23.5815 74.4158 25.7886C90.3575 25.1374 101.108 37.0629 104.444 41.3604C113.596 43.7588 118.103 53.62 118.899 55.4792C120.206 56.5554 136.076 38.2193 137.581 38.3081C140.484 42.3454 139.256 50.3411 138.28 53.8344C138.84 53.7164 140.276 53.8197 141.535 55.1764C143.291 59.6711 136.834 67.5149 132.931 71.4434C134.265 77.7835 132.492 95.0458 122.268 110.032C114.089 122.022 98.1386 126.143 91.1857 126.704C90.4161 127.542 84.6289 129.192 67.6374 129.091Z" fill="#DECC26"/>
<path fill-rule="evenodd" clip-rule="evenodd" d="M68.9794 72.3396C69.3044 71.8734 69.6542 71.376 70.0127 70.8789C70.9147 69.6282 71.9316 68.2937 72.9183 67.2268C73.4114 66.6936 73.9114 66.2114 74.3985 65.8365C74.8734 65.4709 75.3971 65.1591 75.9349 65.046C77.041 64.8133 78.0316 64.7637 78.9872 64.8893C76.7144 62.9052 74.3701 60.9139 73.0471 59.9359C73.0397 59.9421 73.0317 59.9491 73.0231 59.9569C72.8209 60.1398 72.5489 60.5357 72.2341 61.1843C71.6191 62.4516 70.9944 64.3525 70.4257 66.3993C69.8517 68.4651 69.3485 70.628 68.9794 72.3396ZM83.2832 66.5672C82.891 66.2169 82.4714 65.8436 82.0341 65.4562C79.2338 62.9759 75.6564 59.876 73.8953 58.5901C73.5929 58.3694 73.2273 58.2617 72.8377 58.3257C72.477 58.3849 72.1832 58.5771 71.9587 58.7803C71.5201 59.177 71.14 59.8047 70.8067 60.4916C70.1255 61.8952 69.47 63.9124 68.897 65.9746C67.7474 70.112 66.8757 74.6338 66.7728 75.3138C66.7641 75.371 66.7378 75.5468 66.7943 75.7415C66.8265 75.8525 66.9061 76.0392 67.1014 76.1813C67.3106 76.3337 67.5377 76.3522 67.6979 76.33C67.9421 76.2961 68.1091 76.1599 68.1504 76.1262L68.1534 76.1238C68.2228 76.0674 68.2841 76.0048 68.3323 75.9523C68.5176 75.7504 68.7684 75.4102 69.0442 75.022C69.2726 74.7003 69.5277 74.3324 69.8072 73.9291C70.2467 73.295 70.7468 72.5734 71.2996 71.8069C72.1913 70.5705 73.1633 69.2988 74.0831 68.3041C74.5432 67.8066 74.9759 67.3943 75.3663 67.0938C75.7687 66.784 76.0672 66.6395 76.2615 66.5987C77.4215 66.3546 78.3705 66.355 79.2737 66.5474C80.1868 66.7419 81.096 67.1415 82.17 67.7555C82.236 67.7932 82.2935 67.8263 82.3437 67.8555C82.6434 68.1233 82.9259 68.3767 83.1865 68.6111C83.4601 68.8928 83.893 69.3087 84.6408 69.9647C84.7936 70.0988 84.9023 70.1928 84.9661 70.246C84.9822 70.2594 84.9998 70.2738 85.0165 70.287C85.0247 70.2933 85.0368 70.3028 85.051 70.3131L85.0518 70.3136C85.0589 70.3188 85.0988 70.3479 85.1512 70.3757C85.1684 70.3845 85.211 70.4042 85.2368 70.4148C85.2782 70.4295 85.3947 70.4578 85.4704 70.4666C85.6162 70.463 85.9779 70.3256 86.1542 70.1568C86.264 69.9608 86.3153 69.6176 86.2966 69.4946C86.2789 69.4308 86.2401 69.3332 86.2224 69.2983C86.21 69.2761 86.1875 69.2395 86.1776 69.2247C86.1577 69.1956 86.1399 69.1739 86.1319 69.1643C86.1047 69.1316 86.077 69.1037 86.0686 69.0952L86.0677 69.0943C85.9844 69.0104 85.734 68.7788 85.3836 68.4593C85.0936 68.1948 84.7217 67.858 84.2888 67.4686C84.1562 67.3305 84.075 67.2371 84.0146 67.1678C84.0099 67.1624 84.0054 67.1571 84.0009 67.152L83.9982 67.1489C83.8988 67.0347 83.7936 66.914 83.6103 66.7793C83.5212 66.7137 83.4148 66.6458 83.2832 66.5672Z" fill="#AD8C52"/>
<path fill-rule="evenodd" clip-rule="evenodd" d="M82.3697 67.2764C82.5909 67.6547 82.4635 68.1406 82.0853 68.3617C80.5411 69.2646 78.705 69.7933 76.9178 70.1773C76.0199 70.3703 75.1188 70.5297 74.2612 70.6795C74.2069 70.689 74.1529 70.6984 74.0991 70.7078C73.2957 70.8481 72.5365 70.9807 71.8339 71.1285C71.4052 71.2187 70.9845 70.9442 70.8943 70.5154C70.8041 70.0867 71.0786 69.666 71.5073 69.5758C72.2378 69.4221 73.023 69.285 73.8186 69.1462C73.875 69.1363 73.9315 69.1264 73.988 69.1166C74.8471 68.9664 75.7203 68.8118 76.5845 68.6261C78.3213 68.2529 79.9602 67.7663 81.2844 66.992C81.6627 66.7709 82.1486 66.8982 82.3697 67.2764Z" fill="#AD8C52"/>
<path fill-rule="evenodd" clip-rule="evenodd" d="M81.8254 66.7229C82.2541 66.6327 82.6748 66.9072 82.765 67.3359C83.1602 69.2145 82.4692 70.8011 81.7545 72.1558C81.6132 72.4236 81.473 72.6803 81.337 72.929C80.7476 74.0076 80.2404 74.9357 80.0946 75.959C80.0549 76.2385 79.9882 76.5071 79.8715 76.7384C79.752 76.9753 79.5523 77.2236 79.2322 77.3508C78.9123 77.4779 78.608 77.4302 78.3891 77.3517C78.1761 77.2753 77.9921 77.153 77.8475 77.0399C77.5587 76.8141 77.2806 76.5069 77.0586 76.2494C76.9597 76.1348 76.8739 76.0326 76.7967 75.9407C76.6783 75.7997 76.5804 75.6832 76.4877 75.5839C74.9985 73.9891 72.695 72.3892 70.751 71.2619C70.372 71.0421 70.2429 70.5567 70.4627 70.1776C70.6825 69.7986 71.1679 69.6695 71.5469 69.8893C73.5472 71.0492 76.0038 72.7409 77.6474 74.501C77.7652 74.6271 77.9125 74.8022 78.0539 74.9701C78.1258 75.0554 78.196 75.1389 78.2601 75.2132C78.3652 75.335 78.4638 75.4449 78.5553 75.5398C78.7809 74.2767 79.426 73.1048 79.9952 72.071C80.1191 71.8458 80.2395 71.6271 80.3512 71.4155C81.0408 70.1083 81.4849 68.9581 81.2124 67.6625C81.1222 67.2338 81.3966 66.8131 81.8254 66.7229Z" fill="#AD8C52"/>
<path fill-rule="evenodd" clip-rule="evenodd" d="M79.9309 66.4998C79.9282 66.466 79.9234 66.4321 79.9162 66.3982C79.8338 66.0062 79.5364 65.8224 79.3963 65.7547C79.2436 65.6808 79.0867 65.6483 78.9757 65.6309C78.7449 65.5949 78.476 65.5908 78.2477 65.5934C78.0738 65.5953 77.89 65.602 77.7303 65.6078C77.6754 65.6098 77.6233 65.6116 77.5755 65.6132C77.4772 65.6164 77.3963 65.6183 77.3317 65.6181C77.2809 65.618 77.2554 65.6165 77.2478 65.6161C77.2445 65.6159 77.2445 65.6159 77.2471 65.6163C76.8997 65.568 76.566 65.5759 76.2286 65.7002C75.9133 65.8164 75.6622 66.0115 75.4495 66.1902C75.3889 66.2412 75.26 66.3395 75.0944 66.4658C74.8969 66.6164 74.6473 66.8068 74.3989 67.0042C74.2104 67.1541 73.9877 67.3355 73.8644 67.4681C73.8638 67.4688 73.8631 67.4695 73.8624 67.4703C73.8386 67.4959 73.7542 67.5864 73.6937 67.7124L73.6931 67.7135C73.6741 67.7531 73.59 67.9279 73.6177 68.1613C73.3273 68.2145 73.0428 68.2695 72.769 68.327C72.3403 68.4172 72.0658 68.8379 72.156 69.2667C72.2462 69.6954 72.6669 69.9699 73.0956 69.8797C73.7748 69.7368 74.4481 69.6235 75.1469 69.5058C75.675 69.4169 76.2176 69.3255 76.7885 69.2171C78.061 68.9754 79.3681 68.6645 80.565 68.1417C80.7841 68.046 80.9273 67.9892 81.0073 67.9577C81.0089 67.9571 81.0112 67.9562 81.0141 67.955C81.0378 67.9458 81.1016 67.921 81.1446 67.8997C81.1556 67.8943 81.1791 67.8825 81.2072 67.8655C81.2075 67.8653 81.2079 67.8651 81.2085 67.8647C81.2221 67.8566 81.3112 67.8038 81.3948 67.7084C81.4316 67.6665 81.5623 67.5125 81.5876 67.2662C81.622 66.9318 81.4468 66.6746 81.2628 66.5417C81.1223 66.4402 80.9866 66.4129 80.9451 66.4051C80.8874 66.3942 80.8406 66.3921 80.8167 66.3915C80.7386 66.3895 80.6738 66.4005 80.6738 66.4005C80.656 66.4031 80.6406 66.4059 80.6324 66.4075C80.6209 66.4096 80.6071 66.4124 80.5909 66.4156C80.4788 66.4378 80.2543 66.4824 79.9309 66.4998Z" fill="#AD8C52"/>
<path fill-rule="evenodd" clip-rule="evenodd" d="M44.5711 41.2696C44.9057 41.8353 44.7183 42.5651 44.1526 42.8996C33.0539 49.4629 30.6841 62.3444 30.9148 67.9737C30.9417 68.6304 30.4312 69.1845 29.7745 69.2114C29.1178 69.2383 28.5637 68.7278 28.5368 68.0711C28.2881 62.0013 30.7756 48.0451 42.9411 40.851C43.5068 40.5165 44.2366 40.7039 44.5711 41.2696Z" fill="#C39B54"/>
<path fill-rule="evenodd" clip-rule="evenodd" d="M76.4876 26.0784C76.5461 25.4238 77.1242 24.9406 77.7788 24.9991C80.3707 25.2309 84.6267 26.0744 89.1104 27.8475C93.5913 29.6195 98.3863 32.3541 101.963 36.4203C102.397 36.9138 102.349 37.6657 101.855 38.0997C101.362 38.5338 100.61 38.4856 100.176 37.9921C96.9328 34.3051 92.5083 31.7505 88.2352 30.0607C83.9649 28.372 79.9323 27.5812 77.5668 27.3696C76.9122 27.3111 76.429 26.7329 76.4876 26.0784Z" fill="#C39B54"/>
<path fill-rule="evenodd" clip-rule="evenodd" d="M106.406 38.0663C106.778 38.2985 106.891 38.7879 106.658 39.1595L104.131 43.2041C103.899 43.5757 103.41 43.6887 103.038 43.4565C102.667 43.2244 102.554 42.7349 102.786 42.3634L105.313 38.3188C105.545 37.9472 106.034 37.8342 106.406 38.0663Z" fill="#C39B54"/>
<path fill-rule="evenodd" clip-rule="evenodd" d="M108.72 40.0227C109.087 40.2621 109.191 40.7536 108.951 41.1206L107.112 43.9395C106.873 44.3065 106.381 44.4099 106.014 44.1705C105.648 43.9311 105.544 43.4395 105.784 43.0726L107.623 40.2536C107.862 39.8867 108.354 39.7833 108.72 40.0227Z" fill="#C39B54"/>
<path fill-rule="evenodd" clip-rule="evenodd" d="M5.07016 64.7618C5.56654 63.3521 7.26594 63.1167 8.23449 63.9883C10.1002 65.6672 13.197 68.1638 15.5526 69.2064C16.9292 69.8157 19.8718 70.6379 23.0997 71.4315C26.2872 72.2152 29.6344 72.9434 31.7403 73.3737C32.3842 73.5053 32.7996 74.134 32.668 74.7779C32.5364 75.4218 31.9077 75.8371 31.2638 75.7055C29.1343 75.2703 25.7557 74.5354 22.5315 73.7427C19.3476 72.9598 16.1924 72.0922 14.5893 71.3827C12.0711 70.2682 9.03772 67.8633 7.11085 66.1734C6.5674 67.9494 6.24075 70.1215 6.59743 72.0643C6.97992 74.1478 8.13457 75.9739 10.8296 76.8782C11.0332 76.9395 11.1776 77.0387 11.2535 77.0965C11.3539 77.1731 11.431 77.2528 11.483 77.3112C11.5868 77.4276 11.6777 77.5576 11.7503 77.6686C11.8993 77.8961 12.0703 78.1971 12.2517 78.5258C12.3642 78.7297 12.4847 78.9515 12.6144 79.1902C12.9197 79.7522 13.2758 80.4078 13.6983 81.1435C14.8956 83.2281 16.5471 85.812 18.664 88.0129C20.7838 90.2169 23.2973 91.9611 26.2112 92.5079C29.0875 93.0476 32.5399 92.4552 36.6401 89.6314C37.1813 89.2587 37.9223 89.3952 38.2951 89.9365C38.6678 90.4778 38.5312 91.2188 37.99 91.5915C33.4749 94.7011 29.3887 95.5256 25.7723 94.847C22.1936 94.1755 19.2604 92.0662 16.9487 89.6628C14.634 87.2562 12.8692 84.4786 11.6345 82.3288C11.1973 81.5676 10.8166 80.8668 10.5072 80.2972C10.3821 80.067 10.2687 79.8583 10.1679 79.6756C10.0119 79.3929 9.89261 79.1845 9.80243 79.0401C6.36145 77.7858 4.7599 75.2357 4.25658 72.4941C3.7545 69.7592 4.3348 66.8502 5.07016 64.7618Z" fill="#C39B54"/>
<path fill-rule="evenodd" clip-rule="evenodd" d="M109.165 44.0817C109.37 43.4574 110.042 43.1175 110.667 43.3227C112.771 44.014 117.118 46.6964 118.255 52.1018C118.39 52.7449 117.978 53.3759 117.335 53.5112C116.692 53.6465 116.061 53.2348 115.926 52.5917C115.016 48.267 111.497 46.1006 109.924 45.5837C109.299 45.3786 108.96 44.7061 109.165 44.0817Z" fill="#C39B54"/>
<path fill-rule="evenodd" clip-rule="evenodd" d="M137.098 39.9333C136.761 40.3873 136.36 40.8753 135.912 41.3849C134.638 42.8365 132.905 44.5613 131.011 46.3404C127.216 49.9036 122.692 53.7605 119.682 56.2255C119.174 56.6419 118.424 56.5674 118.008 56.0589C117.591 55.5505 117.666 54.8007 118.174 54.3843C121.158 51.9404 125.639 48.1202 129.381 44.6055C131.255 42.8457 132.924 41.1814 134.124 39.8147C134.725 39.1294 135.188 38.543 135.496 38.0731C135.77 37.6563 135.846 37.4441 135.864 37.3912C135.87 37.377 135.87 37.3743 135.87 37.3822C135.877 37.2475 135.891 37.0969 135.923 36.9476C135.949 36.8277 136.015 36.5668 136.211 36.3237C136.321 36.1876 136.495 36.0285 136.748 35.9319C137.01 35.8316 137.273 35.8316 137.495 35.8861C137.878 35.98 138.109 36.2242 138.19 36.3144C138.384 36.5302 138.524 36.8039 138.619 37.009C138.728 37.2438 138.837 37.523 138.944 37.8299C139.371 39.05 139.855 40.9698 140.185 43.0765C140.515 45.18 140.704 47.5456 140.5 49.639C140.406 50.6039 140.221 51.5878 139.884 52.4796C139.893 52.4797 139.903 52.4797 139.912 52.4798C140.626 52.4877 141.276 52.6115 141.806 52.9442C142.378 53.3023 142.665 53.8088 142.809 54.2799C142.92 54.6435 142.956 55.0377 142.978 55.2874C142.981 55.32 142.984 55.3502 142.987 55.3775C143.063 56.1631 143.091 59.7057 140.877 63.8492C138.643 68.0316 134.177 72.722 125.43 75.815C124.811 76.0341 124.131 75.7095 123.912 75.0898C123.693 74.4702 124.017 73.7903 124.637 73.5712C132.867 70.6608 136.844 66.3467 138.778 62.7275C140.733 59.0694 140.657 56.0134 140.618 55.6073C140.615 55.5809 140.613 55.5557 140.61 55.5315C140.581 55.226 140.568 55.0895 140.533 54.9741C140.53 54.9651 140.527 54.9577 140.525 54.9518C140.473 54.9272 140.298 54.8642 139.886 54.8597C139.406 54.8544 138.7 54.9289 137.676 55.1445L136.72 53.0253C137.432 52.4955 137.948 51.2948 138.131 49.4082C138.308 47.5918 138.148 45.4455 137.834 43.4453C137.628 42.1318 137.361 40.9139 137.098 39.9333Z" fill="#C39B54"/>
<path fill-rule="evenodd" clip-rule="evenodd" d="M57.1451 5.5064L57.2401 5.4864C59.0308 5.1097 60.9718 5.61943 62.5212 6.53552C64.0651 7.44835 65.4343 8.89313 65.8883 10.6353C65.9545 10.8893 66.0306 11.202 66.1182 11.5615C66.5189 13.2066 67.1587 15.8332 68.1781 18.3177C68.7973 19.8266 69.5284 21.2077 70.3775 22.239C71.2273 23.2712 72.1123 23.8558 73.038 23.9916C73.6883 24.087 74.1381 24.6914 74.0427 25.3417C73.9473 25.9919 73.3428 26.4417 72.6926 26.3463C70.9694 26.0936 69.6015 25.0409 68.5401 23.7517C67.478 22.4617 66.6395 20.8373 65.9763 19.2212C64.8787 16.5462 64.1844 13.6872 63.7904 12.0644C63.7097 11.7322 63.6416 11.4518 63.5852 11.2354C63.3383 10.2876 62.505 9.29079 61.3099 8.58418C60.154 7.90076 58.8615 7.60993 57.8205 7.79773C53.8945 9.36695 52.203 12.8739 51.9149 16.6909C51.6199 20.5984 52.8349 24.5031 54.3336 26.3499L56.1718 28.615L53.2738 28.282C53.0482 28.2561 52.7603 28.215 52.4286 28.1676C51.356 28.0144 49.8251 27.7957 48.4613 27.8139C47.5399 27.8262 46.9659 27.9527 46.7158 28.1011C46.711 28.1039 46.7066 28.1066 46.7026 28.1092C46.7084 28.1499 46.7233 28.2163 46.76 28.3137C46.8924 28.6655 47.2184 29.0756 47.8117 29.5123C48.3951 29.9418 49.1535 30.3354 50.0061 30.6821C51.7121 31.3756 53.6334 31.8162 54.8684 32.0047C55.5181 32.1039 55.9644 32.7109 55.8653 33.3606C55.7661 34.0103 55.1591 34.4566 54.5094 34.3574C53.1386 34.1483 51.0287 33.6669 49.1098 32.8868C48.1501 32.4966 47.1977 32.0156 46.4008 31.429C45.6139 30.8497 44.8903 30.1024 44.5326 29.1521C44.3185 28.5832 44.2341 27.9641 44.4257 27.3603C44.6216 26.7431 45.0479 26.3232 45.5017 26.0541C46.3327 25.5612 47.4646 25.4471 48.4295 25.4342C49.3013 25.4225 50.2568 25.4985 51.1144 25.5943C49.9545 23.0956 49.297 19.7526 49.5417 16.5118C49.8756 12.0876 51.9296 7.53085 57.0545 5.54155L57.1451 5.5064ZM46.6995 28.0571C46.6996 28.0571 46.6995 28.0582 46.6992 28.0603C46.6993 28.0581 46.6995 28.0571 46.6995 28.0571ZM46.6647 28.1364C46.6639 28.1373 46.6635 28.1377 46.6634 28.1377C46.6634 28.1377 46.6638 28.1373 46.6647 28.1364Z" fill="#C39B54"/>
<path fill-rule="evenodd" clip-rule="evenodd" d="M140.309 87.2085C140.743 87.7017 140.696 88.4536 140.202 88.8881L116.057 110.159C115.564 110.594 114.812 110.546 114.378 110.053C113.943 109.56 113.991 108.808 114.484 108.374L138.629 87.1023C139.122 86.6678 139.874 86.7154 140.309 87.2085Z" fill="#C39B54"/>
<path fill-rule="evenodd" clip-rule="evenodd" d="M146.75 96.9716C146.609 97.6133 145.974 98.0189 145.332 97.8774L132.613 95.0724C131.971 94.9309 131.565 94.2959 131.707 93.6541C131.849 93.0123 132.484 92.6068 133.125 92.7483L145.845 95.5532C146.486 95.6948 146.892 96.3298 146.75 96.9716Z" fill="#C39B54"/>
<path fill-rule="evenodd" clip-rule="evenodd" d="M130.034 81.7795C130.665 81.5945 131.326 81.9558 131.511 82.5864L134.722 93.5315C134.907 94.1621 134.545 94.8233 133.915 95.0083C133.284 95.1933 132.623 94.8321 132.438 94.2014L129.227 83.2563C129.042 82.6257 129.403 81.9645 130.034 81.7795Z" fill="#C39B54"/>
<path fill-rule="evenodd" clip-rule="evenodd" d="M24.6387 114.963C24.6977 114.308 25.2761 113.825 25.9307 113.884L55.9352 116.588C56.5897 116.647 57.0726 117.225 57.0136 117.88C56.9546 118.534 56.3762 119.017 55.7216 118.958L25.7171 116.255C25.0626 116.196 24.5798 115.617 24.6387 114.963Z" fill="#C39B54"/>
<path fill-rule="evenodd" clip-rule="evenodd" d="M34.5597 114.934C35.0374 115.385 35.0586 116.138 34.6072 116.616L26.9777 124.689C26.5263 125.167 25.7731 125.188 25.2955 124.737C24.8178 124.285 24.7965 123.532 25.2479 123.055L32.8775 114.981C33.3289 114.504 34.082 114.482 34.5597 114.934Z" fill="#C39B54"/>
<path fill-rule="evenodd" clip-rule="evenodd" d="M27.6153 105.007C28.1868 104.683 28.9132 104.883 29.2376 105.455L34.7772 115.211C35.1017 115.783 34.9014 116.509 34.3299 116.833C33.7584 117.158 33.032 116.958 32.7075 116.386L27.168 106.63C26.8435 106.058 27.0438 105.332 27.6153 105.007Z" fill="#C39B54"/>
<path fill-rule="evenodd" clip-rule="evenodd" d="M35.0268 95.5571C35.6798 95.4834 36.269 95.953 36.3427 96.6061C36.4738 97.7678 37.0088 99.0962 37.6947 100.26C38.3985 101.453 39.1381 102.268 39.5343 102.526C40.0847 102.885 40.2398 103.622 39.8807 104.173C39.5216 104.723 38.7843 104.878 38.2338 104.519C37.3771 103.96 36.4112 102.769 35.6445 101.468C34.8598 100.137 34.1594 98.4829 33.9777 96.873C33.904 96.2199 34.3737 95.6308 35.0268 95.5571Z" fill="#C39B54"/>
<path fill-rule="evenodd" clip-rule="evenodd" d="M132.411 73.6713C133.024 73.4357 133.713 73.7421 133.948 74.3556C134.301 75.2754 134.66 77.5163 133.218 79.3915C132.817 79.9125 132.07 80.0102 131.549 79.6096C131.028 79.209 130.931 78.4619 131.331 77.9409C132.081 76.9649 131.911 75.6904 131.726 75.2088C131.491 74.5953 131.797 73.907 132.411 73.6713Z" fill="#C39B54"/>
<path fill-rule="evenodd" clip-rule="evenodd" d="M58.506 126.211C58.7946 125.62 59.5073 125.376 60.0977 125.664C63.2716 127.216 72.7678 129.785 84.3016 126.937C84.9397 126.78 85.5846 127.169 85.7422 127.807C85.8998 128.445 85.5103 129.09 84.8722 129.248C72.7727 132.236 62.7059 129.589 59.0524 127.802C58.462 127.514 58.2173 126.801 58.506 126.211Z" fill="#C39B54"/>
<path fill-rule="evenodd" clip-rule="evenodd" d="M88.9183 123.135C89.3552 123.101 89.7368 123.427 89.7708 123.864C89.85 124.882 89.973 126.013 90.2796 126.948C90.5925 127.902 91.025 128.442 91.5802 128.617C91.9981 128.749 92.2303 129.194 92.0987 129.612C91.9671 130.03 91.5216 130.262 91.1037 130.131C89.8068 129.722 89.1375 128.557 88.772 127.443C88.4003 126.309 88.2683 125.008 88.1889 123.987C88.1549 123.55 88.4815 123.169 88.9183 123.135Z" fill="#C39B54"/>
<path fill-rule="evenodd" clip-rule="evenodd" d="M93.484 122.467C93.9212 122.495 94.2531 122.872 94.2253 123.309C94.2042 123.64 94.2326 124.234 94.3997 124.855C94.5677 125.48 94.8546 126.053 95.2907 126.435C95.6201 126.724 95.653 127.226 95.3641 127.555C95.0752 127.884 94.574 127.917 94.2446 127.628C93.4878 126.965 93.0815 126.062 92.8675 125.267C92.6527 124.469 92.6105 123.7 92.6418 123.209C92.6697 122.771 93.0467 122.439 93.484 122.467Z" fill="#C39B54"/>
<path fill-rule="evenodd" clip-rule="evenodd" d="M120.712 111.731C121.233 112.132 121.33 112.879 120.929 113.4C114.218 122.12 103.009 125.711 98.2222 126.438C97.5724 126.537 96.9656 126.09 96.8669 125.441C96.7682 124.791 97.2149 124.184 97.8646 124.085C102.33 123.407 112.851 119.994 119.043 111.948C119.444 111.428 120.191 111.33 120.712 111.731Z" fill="#C39B54"/>
<path d="M81.8012 46.1236C79.7581 47.2019 80.4092 49.5691 80.9901 50.6178L81.398 55.1259L82.923 57.2372L85.3948 58.0684L89.5897 57.4562L90.6864 55.6041L89.9175 51.307L88.6174 48.3378C87.7867 47.3866 86.0778 45.3861 85.8872 44.9938C85.6489 44.5035 84.3551 44.7756 81.8012 46.1236Z" fill="white" fill-opacity="0.9"/>
<path fill-rule="evenodd" clip-rule="evenodd" d="M48.8751 56.6295C49.3554 55.7384 49.9903 54.9733 50.7607 54.462C51.6392 53.8791 52.4837 53.4192 53.2889 53.0856C53.1377 53.083 52.9888 53.0851 52.8422 53.0921C52.6126 53.1381 52.3811 53.186 52.1479 53.235C51.813 53.3055 51.2823 53.5516 50.6417 53.9764C50.1192 54.3228 49.5667 54.7591 49.05 55.2394C48.9496 55.364 48.8554 55.488 48.7673 55.6115C48.7793 55.9272 48.8142 56.2661 48.8751 56.6295ZM48.1627 63.5394C48.4534 64.4554 48.7995 65.337 49.2296 66.1333C49.8258 67.2368 50.5586 68.1253 51.4827 68.705C52.3947 69.2773 53.5506 69.5854 55.0692 69.4381C55.7282 69.3742 56.3524 69.2459 56.9386 69.0604C54.1365 69.1463 52.1715 68.363 50.7608 66.7266C50.4389 66.3532 50.1529 65.9426 49.8956 65.5001C49.2904 65.0791 48.8347 64.5258 48.5066 63.8986C48.3889 63.7813 48.2741 63.6616 48.1627 63.5394ZM47.8651 59.9627C47.8751 59.8657 47.8868 59.7685 47.9001 59.6713C47.8271 59.3518 47.7551 59.0265 47.6833 58.6958C47.6836 59.1348 47.7489 59.5581 47.8651 59.9627ZM53.5836 66.9233C54.9862 67.5735 56.9941 67.7039 60.0545 67.0601C60.124 67.0455 60.1933 67.0404 60.261 67.0441C61.2303 66.0653 61.9363 64.8464 62.3344 63.4896C62.1614 63.6666 61.9796 63.8358 61.7901 63.9972C61.6123 64.6217 61.3344 65.1691 60.9627 65.6356C60.2573 66.521 59.2741 67.0395 58.195 67.2746C56.784 67.5819 55.1602 67.4192 53.5836 66.9233ZM60.3669 63.1019C60.2353 63.199 60.0992 63.2927 59.9588 63.3831C57.9047 64.7048 55.0349 65.2328 52.4974 64.786C52.3366 64.7076 52.1768 64.6251 52.0183 64.5386C51.5893 64.3043 51.1787 64.0452 50.793 63.7649C50.5865 63.2982 50.3964 62.7856 50.2173 62.2263C49.9621 61.4292 49.7349 60.5561 49.5141 59.6089C49.799 57.9613 50.6153 56.4627 51.638 55.7841C54.9101 53.6127 56.964 53.6967 58.2024 54.7095C58.8703 55.2557 59.4249 56.1529 59.8162 57.4256C60.2061 58.6941 60.4173 60.2839 60.4357 62.142C60.4392 62.4944 60.4147 62.8134 60.3669 63.1019ZM62.4195 60.4861C62.5152 60.2251 62.5901 59.9513 62.6413 59.6645C62.6045 59.3476 62.5526 59.0286 62.4853 58.7085C62.3984 58.2958 62.2761 57.8961 62.1225 57.5108C62.217 58.1525 62.2705 58.7995 62.3197 59.393L62.3202 59.3989C62.3525 59.7893 62.3827 60.1522 62.4195 60.4861ZM52.6339 51.5153C52.6382 51.5144 52.6425 51.5136 52.6468 51.5127C52.1646 51.5348 51.715 51.6069 51.3065 51.7269C51.7412 51.6112 52.1865 51.5441 52.6339 51.5153ZM47.195 54.855C46.7079 55.385 46.2715 55.9494 45.9479 56.5119C45.544 57.2139 45.237 58.0493 45.4057 58.8516C45.4466 59.0461 45.4882 59.2461 45.5306 59.4509C46.0047 61.7348 46.6001 64.6037 47.8336 66.8873C48.5141 68.147 49.4132 69.2797 50.6394 70.0491C51.8777 70.826 53.3907 71.195 55.2223 71.0173C61.2798 70.4299 64.7709 65.2695 64.2407 59.7101C64.3973 58.6039 64.2812 57.3981 63.8432 56.1139C63.3353 54.6246 62.626 53.5008 61.7349 52.6899C60.841 51.8765 59.8052 51.4152 58.705 51.1897C58.3934 51.1259 58.0753 51.0808 57.7522 51.0519C56.6289 50.5281 55.4622 50.1778 54.3434 50.019C52.311 49.7304 50.2581 50.0452 48.8466 51.2815C47.8759 52.1316 47.2997 53.3343 47.195 54.855Z" fill="#AD8C52"/>
<path fill-rule="evenodd" clip-rule="evenodd" d="M86.0623 61.4428C87.1417 61.8325 88.2511 61.981 89.3135 61.7575C89.6683 61.6829 89.9174 61.382 89.9417 61.0375C92.4751 60.2659 94.3595 58.5247 95.385 56.2696C97.0979 52.5031 96.3283 47.4883 92.5107 43.6034C91.1579 42.2267 89.3798 41.5223 87.5294 41.3517C85.2235 39.9601 82.857 40.2916 80.9126 41.5932C78.9477 42.9087 77.3996 45.2081 76.5943 47.7407C75.7874 50.2781 75.6921 53.1569 76.7729 55.6535C77.8684 58.1843 80.1304 60.2215 83.8199 61.0951C84.5956 61.2788 85.344 61.3928 86.0623 61.4428ZM81.9211 58.7632C81.3525 58.2295 80.8123 57.6476 80.3132 57.0348C79.1383 55.5921 78.1663 53.9474 77.5858 52.3039C77.6524 53.2514 77.8605 54.1721 78.2289 55.0232C78.8774 56.5212 80.0448 57.8571 81.9211 58.7632ZM85.3993 59.394C85.7392 59.5847 86.0737 59.7452 86.4005 59.8748C89.1207 60.009 91.2299 59.0735 92.6343 57.5738C91.1322 58.6689 89.1631 59.3422 87.2945 59.4666C86.6637 59.5086 86.023 59.488 85.3993 59.394ZM82.6586 56.0751C82.4805 55.7938 82.3373 55.4788 82.2337 55.1295C81.5396 52.7886 80.9065 50.5226 81.0532 48.7135C81.1243 47.8367 81.3761 47.1287 81.8486 46.5827C82.3202 46.0378 83.0803 45.5746 84.3166 45.3145C85.0831 45.1533 85.9602 45.5059 86.8845 46.4467C87.7952 47.3737 88.6191 48.7499 89.2181 50.2533C89.8167 51.7557 90.1634 53.3165 90.1724 54.584C90.1818 55.9116 89.8295 56.6328 89.3801 56.8956C89.2984 56.9434 89.2284 57.0035 89.1711 57.0722C88.51 57.1747 87.7706 57.2156 87 57.1819C85.5356 57.118 84.0419 56.7882 82.8542 56.1795C82.7879 56.1454 82.7227 56.1107 82.6586 56.0751ZM93.2459 54.5457C93.1865 54.1905 93.1274 53.8211 93.0665 53.4412C92.8211 51.9083 92.5483 50.2041 92.1222 48.5735C92.1888 48.6789 92.2537 48.7854 92.3169 48.8927C93.5216 50.9409 93.945 53.046 93.2459 54.5457ZM89.2387 45.4428C89.7253 46.313 90.106 47.2975 90.4155 48.3541C90.5825 48.9242 90.7259 49.5038 90.8531 50.0862C90.8013 49.9454 90.7476 49.8053 90.6921 49.666C90.0414 48.0328 89.1176 46.4557 88.0164 45.3348C87.7005 45.0133 87.3584 44.7185 86.9942 44.47C87.1485 44.5011 87.3062 44.5358 87.4673 44.5741C88.0099 44.7034 88.6162 45 89.2387 45.4428ZM91.7416 55.1647C91.7202 55.4782 91.6786 55.7893 91.6117 56.0894C91.6272 56.0723 91.6416 56.0553 91.6551 56.0384C91.7961 55.8624 91.837 55.7001 91.8024 55.5086C91.7819 55.3948 91.7616 55.2801 91.7416 55.1647ZM90.4464 44.3628C90.3091 44.1342 90.1637 43.911 90.0097 43.6941C90.5127 43.9638 90.9742 44.3035 91.379 44.7155C92.5476 45.9046 93.3819 47.1942 93.917 48.5006C93.8417 48.3612 93.7641 48.2237 93.6845 48.0883C92.9661 46.867 92.0418 45.7405 91.0419 44.8547C90.8477 44.6827 90.6489 44.5181 90.4464 44.3628Z" fill="#AD8C52"/>
<path fill-rule="evenodd" clip-rule="evenodd" d="M50.6885 64.749C51.2753 65.5278 52.2269 65.9319 53.2008 66.0639C54.5736 66.2501 56.1876 65.9487 57.5883 65.2913C58.9858 64.6355 60.2867 63.5693 60.8972 62.1211C61.5295 60.6212 61.3564 58.867 60.0872 57.035C58.4902 54.1349 57.3859 54.0134 55.7134 54.0963C54.9336 54.1349 54.1611 54.4147 53.3772 54.8008C52.5928 55.1871 51.7282 55.7159 50.7697 56.304C49.1967 57.2692 49.1219 58.9912 49.3364 60.3957C49.4471 61.1206 49.6467 61.8534 49.8357 62.5075C49.8755 62.6451 49.9144 62.778 49.952 62.9065C50.0996 63.4108 50.2272 63.8466 50.3066 64.2239C50.355 64.4544 50.499 64.6403 50.6885 64.749Z" fill="white" fill-opacity="0.9"/>
</g>
<defs>
<clipPath id="clip0_27_874">
<rect width="148" height="135" fill="white"/>
</clipPath>
</defs>
</svg>
