<svg width="236" height="31" viewBox="0 0 236 31" fill="none" xmlns="http://www.w3.org/2000/svg">
<path d="M231.495 11.01C223.725 13.25 220.505 23.505 228.345 23.995C229.57 24.065 231.215 24.135 231.6 24.87C232.37 26.305 231.355 29.07 229.71 29.105C217.25 29.35 216.48 18.5 223.165 12.305C220.295 12.97 217.355 13.81 215.675 14.335C214.17 14.755 213.855 15.35 213.26 15.42C212.21 15.56 209.235 11.01 209.935 10.275C210.46 9.74999 212.14 11.01 215.15 10.45C218.615 9.74999 225.195 8.27999 229.045 6.80999C230.48 6.31999 231.005 5.58499 232.055 5.65498C233.28 5.75999 235.45 8.90999 235.1 9.95999C234.785 10.905 233.42 10.94 231.495 11.01Z" fill="#3D3838"/>
<path d="M178.365 16.575C181.06 15.98 191.07 8.035 197.09 16.155C199.33 19.165 197.79 23.225 195.62 25.255C191.56 28.965 185.19 29.14 182.18 24.94C186.205 25.885 190.265 25.64 192.82 22.35C194.815 19.725 194.29 15.105 190.545 14.825C186.765 14.545 183.86 18.08 180.675 20.565C179.94 21.125 177.875 20.46 177.105 17.975C176.335 15.56 177.21 15.56 177.21 15.56C177.49 16.085 177.875 16.645 178.365 16.575Z" fill="#3D3838"/>
<path d="M138.29 15.91C139.445 15.84 140.565 15.77 141.65 15.665V12.095C139.305 12.095 139.165 12.655 138.71 12.655C137.905 12.655 136.89 9.60999 137.45 9.60999C138.5 9.60999 139.585 10.31 141.65 10.345V8.17499C141.65 5.89999 140.46 4.91999 140.915 4.35999C141.58 3.55499 146.9 5.30499 146.9 6.38999C146.9 6.98499 146.06 7.19499 146.06 8.17499V9.57499C146.62 8.97999 147.005 8.24499 147.565 8.24499C148.125 8.24499 149 9.32999 149.49 10.24C149.63 8.48999 149.7 6.63499 149.595 4.63999C149.525 2.36499 148.405 1.38499 148.895 0.789989C149.42 0.194991 152.885 1.17499 154.285 2.11999H161.25C163 2.11999 163.42 0.019989 164.365 0.019989C165.24 0.019989 166.745 2.39999 166.745 3.09999C166.745 3.76499 165.695 3.86999 164.96 3.86999H154.215C154.11 4.07999 154.04 4.32499 154.04 4.63999C154.04 5.72499 154.005 6.77499 153.9 7.78999C154.88 7.92999 155.93 8.48999 157.82 8.48999H159.5C161.25 8.48999 161.635 6.38999 162.615 6.38999C163.455 6.38999 164.96 8.76999 164.96 9.46999C164.96 10.135 163.91 10.24 163.175 10.24H157.82C155.405 10.24 155.265 10.8 154.81 10.8C154.46 10.8 154.04 10.205 153.76 9.53999C153.55 11.185 153.27 12.69 152.85 14.055C153.165 14.09 153.445 14.125 153.795 14.125H161.845C163.595 14.125 163.98 12.025 164.96 12.025C165.8 12.025 167.305 14.405 167.305 15.07C167.305 15.77 166.29 15.875 165.52 15.875H164.4C166.115 16.785 167.725 18.325 167.34 19.13C167.13 19.515 166.64 19.55 166.325 19.48C166.045 19.41 165.835 19.48 165.625 19.725C164.82 20.53 163.56 21.02 162.23 21.125C163.875 23.12 165.94 24.415 168.285 25.115C168.285 25.115 167.13 25.85 165.975 27.495C164.82 29.14 164.96 29.945 164.225 29.98C163.735 29.98 161.075 28.3 159.675 24.17C158.31 26.76 155.895 28.125 153.13 28.72C152.745 28.79 152.535 29.035 152.5 29.35C152.43 29.77 152.15 30.295 151.625 30.33C150.47 30.33 149.49 27.425 149.455 24.94C149.42 23.82 149.735 24.03 150.715 24.03H152.955V18.15C152.955 17.205 152.78 16.505 152.57 15.945C152.43 15.945 152.29 15.98 152.185 15.98C150.925 19.06 148.965 21.16 146.305 21.825C147.53 19.655 148.44 17.03 149.035 13.95C148.335 15.7 147.32 17.065 146.06 18.08V22.35C146.06 26.76 144.87 28.37 142.35 28.37C141.265 28.37 140.985 27.915 140.915 27.32C140.775 25.745 140.18 25.465 137.905 24.73L138.115 23.995C140.915 24.52 141.65 24.135 141.65 22.35V20.215L141.09 20.355C140.74 20.46 140.565 20.705 140.53 21.055C140.495 21.475 140.25 22.035 139.725 22.07C138.57 22.21 137.38 19.375 137.135 16.89C137.03 15.805 137.345 15.945 138.29 15.91ZM148.125 12.095H146.06V14.72C147.005 14.405 148.02 14.02 149.105 13.495C149.175 13.005 149.28 12.48 149.315 11.955C148.965 12.06 148.51 12.095 148.125 12.095ZM157.365 18.15V23.47C157.995 23.295 158.625 23.085 159.255 22.805C158.8 20.915 158.59 18.64 158.87 15.875H157.925C158.1 16.05 158.205 16.19 158.205 16.365C158.205 16.96 157.365 17.135 157.365 18.15ZM163.105 15.875H159.36C159.815 17.24 160.41 18.43 161.04 19.48C161.845 18.64 162.51 17.625 162.965 16.33C163.035 16.155 163.07 15.98 163.105 15.875Z" fill="#3D3838"/>
<path d="M126.18 27.32C122.715 29.315 114.385 30.33 111.025 26.515C108.47 23.645 110.045 20.005 113.125 17.555C114.385 16.54 115.75 15.63 117.045 14.79C116.205 13.215 113.755 14.545 112.635 16.4L112.11 17.17C111.06 18.675 108.89 19.48 107.84 18.64C107.245 18.185 106.475 16.155 106.93 14.93C107.455 13.46 108.75 13.53 110.395 11.92C111.41 10.975 112.145 9.92498 112.67 8.83998L112.355 8.87498C109.975 9.01498 109.87 9.57498 109.415 9.60998C108.61 9.64498 107.385 6.66998 107.98 6.63498C109.03 6.56498 110.15 7.22998 112.25 7.12498L113.335 7.05498C113.72 5.68998 113.755 4.42998 113.51 3.51998C113.37 2.95998 112.775 2.57498 112.11 2.39998C112.11 2.39998 111.9 1.38498 114.945 1.73498C118.025 2.11998 117.99 3.86998 117.815 4.95498C117.745 5.61998 117.255 5.61998 116.73 6.84498L117.29 6.80998C119.04 6.70498 119.32 4.60498 120.265 4.53498C121.14 4.49998 122.785 6.77498 122.82 7.47498C122.855 8.13998 121.805 8.31498 121.07 8.34998L116.135 8.62998C115.855 9.50498 115.435 10.695 114.84 12.06C117.01 11.43 118.97 11.745 120.055 12.83C121.035 12.2 121.805 11.64 122.295 11.115C122.68 10.695 122.295 9.92498 121.91 9.36498C121.91 9.36498 122.4 8.41998 124.5 10.625C126.67 12.865 126.18 15.42 125.165 15.84C123.94 16.365 122.505 16.715 121.105 17.065C121.21 18.01 121.315 18.64 121.315 19.13C121.315 20.67 120.37 22.315 119.285 22.315C118.62 22.315 117.08 21.405 116.73 20.355C116.485 19.655 116.73 19.27 117.01 18.57C115.82 19.2 114.91 20.11 114.385 21.405C113.51 23.68 118.27 25.395 122.995 22.91C124.15 22.315 125.69 21.965 126.32 22.49C127.58 23.505 127.965 26.27 126.18 27.32Z" fill="#3D3838"/>
<path d="M74.66 25.22L74.87 24.485C78.58 25.22 80.61 24.87 80.61 23.085V10.94L74.625 11.08C72.21 11.15 72.07 11.71 71.65 11.71C70.81 11.745 69.725 8.73498 70.32 8.69998C71.37 8.66498 72.455 9.39998 74.59 9.32998L80.61 9.18998V7.19498C80.61 7.19498 80.68 5.26998 80.19 4.46498C79.875 3.97498 79.175 3.83498 78.475 3.83498C78.475 3.83498 77.985 2.92498 80.96 2.32998C84.04 1.73498 85.335 3.37998 85.51 4.49998C85.65 5.19998 85.055 5.33998 85.055 7.19498V9.04998L89.325 8.94498C91.075 8.90998 91.425 6.80998 92.405 6.77498C93.245 6.77498 94.82 9.11998 94.82 9.78498C94.855 10.45 93.805 10.59 93.07 10.625L85.055 10.8V23.085C85.055 27.88 82.99 29.105 80.015 29.105C78.93 29.105 78.65 28.65 78.58 28.055C78.44 26.48 76.725 25.745 74.66 25.22ZM88.135 14.055C92.44 14.195 95.695 17.52 95.485 19.795C95.345 21.44 93.56 23.61 91.915 23.435C90.305 23.295 91.88 18.465 88.135 14.055ZM73.855 23.645C72.35 24.31 69.585 23.75 68.955 22.21C68.36 20.705 73.33 19.83 75.465 14.475C77.39 18.325 75.955 22.735 73.855 23.645Z" fill="#3D3838"/>
<path d="M35.775 6.24999C36.3 5.72499 38.33 7.89499 41.27 7.75499C41.27 7.75499 46.555 7.43999 52.19 7.19499C52.96 6.21499 53.38 5.89999 54.71 6.24999C57.44 6.98499 59.785 9.18999 59.26 10.38C58.945 11.08 57.755 10.835 57.37 11.71C56.74 13.145 54.115 17.485 49.635 19.55C50.825 20.46 51.84 21.58 52.575 22.945C53.485 24.555 52.785 27.355 51 27.845C50.09 28.09 49.25 26.725 48.375 25.325C47.185 23.435 44.315 19.34 40.535 18.185C42.565 17.1 45.26 17.275 47.64 18.395C50.825 15.21 52.015 11.815 52.365 10.52C49.39 10.73 44.735 11.045 41.445 11.57C39.73 11.815 39.52 12.48 38.925 12.48C37.875 12.55 35.005 6.91499 35.775 6.24999Z" fill="#3D3838"/>
<path d="M14.775 21.405C11.66 25.605 6.97001 28.86 0.63501 28.615C10.225 24.03 13.76 14.3 13.97 9.11999C12.955 9.50499 11.52 9.92499 9.94501 10.135C8.23001 10.45 8.12501 11.22 7.53001 11.325C6.48001 11.465 3.05001 6.17999 3.71501 5.40999C4.20501 4.84999 6.48001 6.80999 9.35001 6.35499C9.35001 6.35499 11.765 6.07499 14.425 5.37499C15.16 4.42999 15.58 4.11499 16.945 4.46499C19.64 5.23499 21.95 7.47499 21.425 8.62999C21.11 9.32999 19.675 8.97999 19.535 9.95999C19.115 12.76 17.995 16.26 16.035 19.48C18.975 19.27 21.95 20.565 23.245 23.05C24.12 24.695 23.56 27.425 21.775 27.985C20.865 28.265 19.99 26.9 19.115 25.535C18.17 24.1 16.84 22.49 14.775 21.405Z" fill="#3D3838"/>
</svg>
