<svg width="122" height="126" viewBox="0 0 122 126" fill="none" xmlns="http://www.w3.org/2000/svg">
<path d="M118.967 125.575C119.946 125.575 120.849 124.935 121.135 123.947C121.486 122.749 120.798 121.494 119.599 121.143C85.4487 111.174 53.1407 79.5634 36.9207 61.6061C28.8754 52.7008 24.0474 41.5061 23.3301 30.0874C22.9341 23.8021 21.5367 18.0461 19.1781 12.9768C18.6514 11.8448 17.3061 11.3568 16.1754 11.8821C15.0434 12.4075 14.5527 13.7528 15.0794 14.8861C17.1994 19.4421 18.4567 24.6514 18.8167 30.3714C19.5994 42.8061 24.8367 54.9754 33.5661 64.6381C70.1701 105.161 99.8661 120.094 118.333 125.485C118.545 125.546 118.757 125.575 118.967 125.575Z" fill="#754C24"/>
<path d="M17.3641 4.61199C17.3641 7.15866 15.3001 9.22266 12.7535 9.22266C10.2068 9.22266 8.14147 7.15866 8.14147 4.61199C8.14147 2.06532 10.2068 -9.62281e-06 12.7535 -9.62281e-06C15.3001 -9.62281e-06 17.3641 2.06532 17.3641 4.61199Z" fill="#B92F2C"/>
<path d="M6.28796 40.0289C6.28796 41.4889 5.10396 42.6729 3.64396 42.6729C2.18396 42.6729 0.999964 41.4889 0.999964 40.0289C0.999964 38.5689 2.18396 37.3849 3.64396 37.3849C5.10396 37.3849 6.28796 38.5689 6.28796 40.0289Z" fill="#B92F2C"/>
<path d="M26.6229 108.602C26.6229 111.032 24.6536 113.002 22.2229 113.002C19.7936 113.002 17.8243 111.032 17.8243 108.602C17.8243 106.172 19.7936 104.202 22.2229 104.202C24.6536 104.202 26.6229 106.172 26.6229 108.602Z" fill="#B92F2C"/>
<path d="M91.3221 73.1852C91.3221 75.2705 89.6315 76.9612 87.5461 76.9612C85.4608 76.9612 83.7701 75.2705 83.7701 73.1852C83.7701 71.0998 85.4608 69.4092 87.5461 69.4092C89.6315 69.4092 91.3221 71.0998 91.3221 73.1852Z" fill="#B92F2C"/>
<path d="M14.1379 75.4458C14.1379 78.0911 11.9939 80.2338 9.34994 80.2338C6.70461 80.2338 4.56061 78.0911 4.56061 75.4458C4.56061 72.8018 6.70461 70.6578 9.34994 70.6578C11.9939 70.6578 14.1379 72.8018 14.1379 75.4458Z" fill="#B92F2C"/>
<path d="M11.2311 27.9721C11.2311 30.0614 9.53775 31.7561 7.44708 31.7561C5.35775 31.7561 3.66441 30.0614 3.66441 27.9721C3.66441 25.8828 5.35775 24.1881 7.44708 24.1881C9.53775 24.1881 11.2311 25.8828 11.2311 27.9721Z" fill="#B92F2C"/>
<path d="M76.9734 51.3322C76.9734 53.4909 75.2241 55.2402 73.0654 55.2402C70.9067 55.2402 69.1574 53.4909 69.1574 51.3322C69.1574 49.1736 70.9067 47.4242 73.0654 47.4242C75.2241 47.4242 76.9734 49.1736 76.9734 51.3322Z" fill="#B92F2C"/>
<path d="M40.2826 40.0289C40.2826 42.3942 38.3653 44.3115 35.9999 44.3115C33.6346 44.3115 31.7173 42.3942 31.7173 40.0289C31.7173 37.6635 33.6346 35.7462 35.9999 35.7462C38.3653 35.7462 40.2826 37.6635 40.2826 40.0289Z" fill="#B92F2C"/>
<path d="M63.5988 105.588C63.5988 108.384 61.3321 110.649 58.5361 110.649C55.7414 110.649 53.4748 108.384 53.4748 105.588C53.4748 102.792 55.7414 100.525 58.5361 100.525C61.3321 100.525 63.5988 102.792 63.5988 105.588Z" fill="#B92F2C"/>
<path d="M52.9694 32.4935C52.9694 34.1229 51.648 35.4429 50.0187 35.4429C48.3894 35.4429 47.0694 34.1229 47.0694 32.4935C47.0694 30.8642 48.3894 29.5429 50.0187 29.5429C51.648 29.5429 52.9694 30.8642 52.9694 32.4935Z" fill="#B92F2C"/>
<path d="M40.7833 89.0098C40.7833 91.6764 38.622 93.8378 35.9553 93.8378C33.2887 93.8378 31.1273 91.6764 31.1273 89.0098C31.1273 86.3431 33.2887 84.1818 35.9553 84.1818C38.622 84.1818 40.7833 86.3431 40.7833 89.0098Z" fill="#B92F2C"/>
<path d="M70.8531 77.7065C70.8531 79.8172 69.1425 81.5278 67.0318 81.5278C64.9211 81.5278 63.2105 79.8172 63.2105 77.7065C63.2105 75.5958 64.9211 73.8852 67.0318 73.8852C69.1425 73.8852 70.8531 75.5958 70.8531 77.7065Z" fill="#B92F2C"/>
</svg>
