<svg width="122" height="126" viewBox="0 0 122 126" fill="none" xmlns="http://www.w3.org/2000/svg">
<path d="M3.25951 125.575C2.28084 125.575 1.37818 124.935 1.09151 123.947C0.740844 122.749 1.42884 121.494 2.62751 121.143C36.7782 111.174 69.0862 79.5634 85.3062 61.6061C93.3515 52.7008 98.1795 41.5061 98.8968 30.0874C99.2928 23.8021 100.69 18.0461 103.049 12.9768C103.576 11.8448 104.921 11.3568 106.052 11.8821C107.184 12.4075 107.674 13.7528 107.148 14.8861C105.028 19.4421 103.77 24.6514 103.41 30.3714C102.628 42.8061 97.3902 54.9754 88.6609 64.6381C52.0569 105.161 22.3608 120.094 3.89418 125.485C3.68218 125.546 3.47018 125.575 3.25951 125.575Z" fill="#754C24"/>
<path d="M104.863 4.61199C104.863 7.15866 106.927 9.22266 109.473 9.22266C112.02 9.22266 114.085 7.15866 114.085 4.61199C114.085 2.06532 112.02 -9.62281e-06 109.473 -9.62281e-06C106.927 -9.62281e-06 104.863 2.06532 104.863 4.61199Z" fill="#B92F2C"/>
<path d="M115.939 40.0289C115.939 41.4889 117.123 42.6729 118.583 42.6729C120.043 42.6729 121.227 41.4889 121.227 40.0289C121.227 38.5689 120.043 37.3849 118.583 37.3849C117.123 37.3849 115.939 38.5689 115.939 40.0289Z" fill="#B92F2C"/>
<path d="M95.604 108.602C95.604 111.032 97.5733 113.002 100.004 113.002C102.433 113.002 104.403 111.032 104.403 108.602C104.403 106.172 102.433 104.202 100.004 104.202C97.5733 104.202 95.604 106.172 95.604 108.602Z" fill="#B92F2C"/>
<path d="M30.9048 73.1852C30.9048 75.2705 32.5955 76.9612 34.6808 76.9612C36.7661 76.9612 38.4568 75.2705 38.4568 73.1852C38.4568 71.0998 36.7661 69.4092 34.6808 69.4092C32.5955 69.4092 30.9048 71.0998 30.9048 73.1852Z" fill="#B92F2C"/>
<path d="M108.089 75.4458C108.089 78.0911 110.233 80.2338 112.877 80.2338C115.522 80.2338 117.666 78.0911 117.666 75.4458C117.666 72.8018 115.522 70.6578 112.877 70.6578C110.233 70.6578 108.089 72.8018 108.089 75.4458Z" fill="#B92F2C"/>
<path d="M110.996 27.9721C110.996 30.0614 112.689 31.7561 114.78 31.7561C116.869 31.7561 118.563 30.0614 118.563 27.9721C118.563 25.8828 116.869 24.1881 114.78 24.1881C112.689 24.1881 110.996 25.8828 110.996 27.9721Z" fill="#B92F2C"/>
<path d="M45.2535 51.3322C45.2535 53.4909 47.0029 55.2402 49.1615 55.2402C51.3202 55.2402 53.0695 53.4909 53.0695 51.3322C53.0695 49.1736 51.3202 47.4242 49.1615 47.4242C47.0029 47.4242 45.2535 49.1736 45.2535 51.3322Z" fill="#B92F2C"/>
<path d="M81.9443 40.0289C81.9443 42.3942 83.8617 44.3115 86.227 44.3115C88.5923 44.3115 90.5097 42.3942 90.5097 40.0289C90.5097 37.6635 88.5923 35.7462 86.227 35.7462C83.8617 35.7462 81.9443 37.6635 81.9443 40.0289Z" fill="#B92F2C"/>
<path d="M58.6282 105.588C58.6282 108.384 60.8948 110.649 63.6908 110.649C66.4855 110.649 68.7522 108.384 68.7522 105.588C68.7522 102.792 66.4855 100.525 63.6908 100.525C60.8948 100.525 58.6282 102.792 58.6282 105.588Z" fill="#B92F2C"/>
<path d="M69.2576 32.4935C69.2576 34.1229 70.5789 35.4429 72.2082 35.4429C73.8376 35.4429 75.1576 34.1229 75.1576 32.4935C75.1576 30.8642 73.8376 29.5429 72.2082 29.5429C70.5789 29.5429 69.2576 30.8642 69.2576 32.4935Z" fill="#B92F2C"/>
<path d="M81.4436 89.0098C81.4436 91.6764 83.6049 93.8378 86.2716 93.8378C88.9383 93.8378 91.0996 91.6764 91.0996 89.0098C91.0996 86.3431 88.9383 84.1818 86.2716 84.1818C83.6049 84.1818 81.4436 86.3431 81.4436 89.0098Z" fill="#B92F2C"/>
<path d="M51.3738 77.7065C51.3738 79.8172 53.0844 81.5278 55.1951 81.5278C57.3058 81.5278 59.0164 79.8172 59.0164 77.7065C59.0164 75.5958 57.3058 73.8852 55.1951 73.8852C53.0844 73.8852 51.3738 75.5958 51.3738 77.7065Z" fill="#B92F2C"/>
</svg>
