<svg width="375" height="28" viewBox="0 0 375 28" fill="none" xmlns="http://www.w3.org/2000/svg">
<g clip-path="url(#clip0_27_548)">
<path d="M189.293 28.1808C196.696 28.1808 202.686 22.1906 202.686 14.7878C202.686 7.38433 196.696 1.39417 189.293 1.39417C181.89 1.39417 175.9 7.38433 175.9 14.7878C175.9 22.1906 181.89 28.1808 189.293 28.1808Z" fill="#E9D98B"/>
<path d="M179.248 14.7874C179.248 9.23544 183.741 4.74219 189.293 4.74219C194.845 4.74219 199.338 9.23544 199.338 14.7874C199.338 20.3394 194.845 24.832 189.293 24.832C183.741 24.832 179.248 20.3394 179.248 14.7874Z" fill="#F4EFE1"/>
<path d="M189.293 21.4842C192.995 21.4842 195.99 18.4891 195.99 14.7874C195.99 11.0863 192.995 8.09119 189.293 8.09119C185.591 8.09119 182.596 11.0863 182.596 14.7874C182.596 18.4891 185.591 21.4842 189.293 21.4842Z" fill="#E9D98B"/>
<path d="M185.945 14.7876C185.945 12.9368 187.442 11.4392 189.293 11.4392C191.144 11.4392 192.641 12.9368 192.641 14.7876C192.641 16.6385 191.144 18.136 189.293 18.136C187.442 18.136 185.945 16.6385 185.945 14.7876Z" fill="#F4EFE1"/>
<path d="M135.72 28.1808C143.123 28.1808 149.113 22.1906 149.113 14.7878C149.113 7.38433 143.123 1.39417 135.72 1.39417C128.317 1.39417 122.327 7.38433 122.327 14.7878C122.327 22.1906 128.317 28.1808 135.72 28.1808Z" fill="#E9D98B"/>
<path d="M125.675 14.7874C125.675 9.23544 130.167 4.74219 135.72 4.74219C141.272 4.74219 145.765 9.23544 145.765 14.7874C145.765 20.3394 141.272 24.832 135.72 24.832C130.167 24.832 125.675 20.3394 125.675 14.7874Z" fill="#F4EFE1"/>
<path d="M135.72 21.4842C139.421 21.4842 142.416 18.4891 142.416 14.7874C142.416 11.0863 139.421 8.09119 135.72 8.09119C132.018 8.09119 129.023 11.0863 129.023 14.7874C129.023 18.4891 132.018 21.4842 135.72 21.4842Z" fill="#E9D98B"/>
<path d="M132.371 14.7876C132.371 12.9368 133.869 11.4392 135.72 11.4392C137.571 11.4392 139.068 12.9368 139.068 14.7876C139.068 16.6385 137.571 18.136 135.72 18.136C133.869 18.136 132.371 16.6385 132.371 14.7876Z" fill="#F4EFE1"/>
<path d="M82.1464 28.1808C89.5493 28.1808 95.5401 22.1906 95.5401 14.7878C95.5401 7.38433 89.5493 1.39417 82.1464 1.39417C74.7436 1.39417 68.7534 7.38433 68.7534 14.7878C68.7534 22.1906 74.7436 28.1808 82.1464 28.1808Z" fill="#E9D98B"/>
<path d="M72.1014 14.7874C72.1014 9.23544 76.5941 4.74219 82.1467 4.74219C87.6986 4.74219 92.1913 9.23544 92.1913 14.7874C92.1913 20.3394 87.6986 24.832 82.1467 24.832C76.5941 24.832 72.1014 20.3394 72.1014 14.7874Z" fill="#F4EFE1"/>
<path d="M82.1465 21.4842C85.8483 21.4842 88.8433 18.4891 88.8433 14.7874C88.8433 11.0863 85.8483 8.09119 82.1465 8.09119C78.4448 8.09119 75.4497 11.0863 75.4497 14.7874C75.4497 18.4891 78.4448 21.4842 82.1465 21.4842Z" fill="#E9D98B"/>
<path d="M78.7982 14.7876C78.7982 12.9368 80.2958 11.4392 82.1466 11.4392C83.9975 11.4392 85.495 12.9368 85.495 14.7876C85.495 16.6385 83.9975 18.136 82.1466 18.136C80.2958 18.136 78.7982 16.6385 78.7982 14.7876Z" fill="#F4EFE1"/>
<path d="M28.5733 28.1808C35.9761 28.1808 41.9669 22.1906 41.9669 14.7878C41.9669 7.38433 35.9761 1.39417 28.5733 1.39417C21.1705 1.39417 15.1803 7.38433 15.1803 14.7878C15.1803 22.1906 21.1705 28.1808 28.5733 28.1808Z" fill="#E9D98B"/>
<path d="M18.5284 14.7874C18.5284 9.23544 23.0211 4.74219 28.5737 4.74219C34.1256 4.74219 38.6183 9.23544 38.6183 14.7874C38.6183 20.3394 34.1256 24.832 28.5737 24.832C23.0211 24.832 18.5284 20.3394 18.5284 14.7874Z" fill="#F4EFE1"/>
<path d="M28.5733 21.4842C32.275 21.4842 35.2701 18.4891 35.2701 14.7874C35.2701 11.0863 32.275 8.09119 28.5733 8.09119C24.8715 8.09119 21.8765 11.0863 21.8765 14.7874C21.8765 18.4891 24.8715 21.4842 28.5733 21.4842Z" fill="#E9D98B"/>
<path d="M25.225 14.7876C25.225 12.9368 26.7225 11.4392 28.5734 11.4392C30.4243 11.4392 31.9218 12.9368 31.9218 14.7876C31.9218 16.6385 30.4243 18.136 28.5734 18.136C26.7225 18.136 25.225 16.6385 25.225 14.7876Z" fill="#F4EFE1"/>
<path d="M189.293 27.7866C189.293 12.981 177.313 1 162.506 1C147.701 1 135.72 12.981 135.72 27.7866" fill="#E9D98B"/>
<path d="M139.068 27.7865C139.068 14.8311 149.552 4.34827 162.506 4.34827C175.461 4.34827 185.945 14.8311 185.945 27.7865" fill="#F4EFE1"/>
<path d="M182.596 27.7866C182.596 16.682 173.61 7.69678 162.506 7.69678C151.402 7.69678 142.416 16.682 142.416 27.7866" fill="#E9D98B"/>
<path d="M145.765 27.7865C145.765 18.5328 153.252 11.0451 162.506 11.0451C171.76 11.0451 179.248 18.5328 179.248 27.7865" fill="#F4EFE1"/>
<path d="M175.9 27.7865C175.9 20.3837 169.909 14.3929 162.507 14.3929C155.103 14.3929 149.113 20.3837 149.113 27.7865" fill="#E9D98B"/>
<path d="M152.461 27.7864C152.461 22.2338 156.954 17.7411 162.506 17.7411C168.058 17.7411 172.551 22.2338 172.551 27.7864" fill="#F4EFE1"/>
<path d="M169.203 27.7865C169.203 24.0848 166.208 21.0897 162.506 21.0897C158.805 21.0897 155.81 24.0848 155.81 27.7865" fill="#E9D98B"/>
<path d="M135.72 27.7866C135.72 12.981 123.739 1 108.933 1C94.1272 1 82.1462 12.981 82.1462 27.7866" fill="#E9D98B"/>
<path d="M85.4949 27.7865C85.4949 14.8311 95.9777 4.34827 108.933 4.34827C121.888 4.34827 132.371 14.8311 132.371 27.7865" fill="#F4EFE1"/>
<path d="M129.023 27.7866C129.023 16.682 120.038 7.69678 108.933 7.69678C97.8286 7.69678 88.8434 16.682 88.8434 27.7866" fill="#E9D98B"/>
<path d="M92.1914 27.7865C92.1914 18.5328 99.6791 11.0451 108.933 11.0451C118.187 11.0451 125.675 18.5328 125.675 27.7865" fill="#F4EFE1"/>
<path d="M122.326 27.7865C122.326 20.3837 116.336 14.3929 108.933 14.3929C101.53 14.3929 95.5397 20.3837 95.5397 27.7865" fill="#E9D98B"/>
<path d="M98.8882 27.7864C98.8882 22.2338 103.381 17.7411 108.933 17.7411C114.485 17.7411 118.978 22.2338 118.978 27.7864" fill="#F4EFE1"/>
<path d="M115.63 27.7865C115.63 24.0848 112.635 21.0897 108.933 21.0897C105.232 21.0897 102.237 24.0848 102.237 27.7865" fill="#E9D98B"/>
<path d="M82.1465 27.7866C82.1465 12.981 70.1656 1 55.3599 1C40.5542 1 28.5732 12.981 28.5732 27.7866" fill="#E9D98B"/>
<path d="M31.9218 27.7865C31.9218 14.8311 42.4045 4.34827 55.36 4.34827C68.3148 4.34827 78.7982 14.8311 78.7982 27.7865" fill="#F4EFE1"/>
<path d="M75.4499 27.7866C75.4499 16.682 66.4647 7.69678 55.3601 7.69678C44.2555 7.69678 35.2703 16.682 35.2703 27.7866" fill="#E9D98B"/>
<path d="M38.6182 27.7865C38.6182 18.5328 46.1059 11.0451 55.3596 11.0451C64.6133 11.0451 72.1016 18.5328 72.1016 27.7865" fill="#F4EFE1"/>
<path d="M68.7533 27.7865C68.7533 20.3837 62.7631 14.3929 55.3603 14.3929C47.9568 14.3929 41.9667 20.3837 41.9667 27.7865" fill="#E9D98B"/>
<path d="M45.3149 27.7864C45.3149 22.2338 49.8076 17.7411 55.3602 17.7411C60.9121 17.7411 65.4048 22.2338 65.4048 27.7864" fill="#F4EFE1"/>
<path d="M62.0565 27.7865C62.0565 24.0848 59.0614 21.0897 55.3596 21.0897C51.6585 21.0897 48.6635 24.0848 48.6635 27.7865" fill="#E9D98B"/>
<path d="M28.5733 27.7866C28.5733 12.981 16.5929 1 1.78664 1C-13.019 1 -25 12.981 -25 27.7866" fill="#E9D98B"/>
<path d="M-21.6515 27.7865C-21.6515 14.8311 -11.1687 4.34827 1.78674 4.34827C14.7416 4.34827 25.225 14.8311 25.225 27.7865" fill="#F4EFE1"/>
<path d="M21.8767 27.7866C21.8767 16.682 12.8914 7.69678 1.78684 7.69678C-9.31773 7.69678 -18.303 16.682 -18.303 27.7866" fill="#E9D98B"/>
<path d="M-14.955 27.7865C-14.955 18.5328 -7.46725 11.0451 1.78646 11.0451C11.0402 11.0451 18.5285 18.5328 18.5285 27.7865" fill="#F4EFE1"/>
<path d="M15.1801 27.7865C15.1801 20.3837 9.1899 14.3929 1.78707 14.3929C-5.6164 14.3929 -11.6066 20.3837 -11.6066 27.7865" fill="#E9D98B"/>
<path d="M-8.25806 27.7864C-8.25806 22.2338 -3.76543 17.7411 1.78717 17.7411C7.33914 17.7411 11.8318 22.2338 11.8318 27.7864" fill="#F4EFE1"/>
<path d="M8.48346 27.7865C8.48346 24.0848 5.48837 21.0897 1.78664 21.0897C-1.91446 21.0897 -4.90955 24.0848 -4.90955 27.7865" fill="#E9D98B"/>
<path d="M346.397 28.1808C353.799 28.1808 359.79 22.1906 359.79 14.7878C359.79 7.38433 353.799 1.39417 346.397 1.39417C338.994 1.39417 333.004 7.38433 333.004 14.7878C333.004 22.1906 338.994 28.1808 346.397 28.1808Z" fill="#E9D98B"/>
<path d="M336.352 14.7874C336.352 9.23544 340.844 4.74219 346.397 4.74219C351.949 4.74219 356.441 9.23544 356.441 14.7874C356.441 20.3394 351.949 24.832 346.397 24.832C340.844 24.832 336.352 20.3394 336.352 14.7874Z" fill="#F4EFE1"/>
<path d="M346.396 21.4842C350.098 21.4842 353.093 18.4891 353.093 14.7874C353.093 11.0863 350.098 8.09119 346.396 8.09119C342.695 8.09119 339.7 11.0863 339.7 14.7874C339.7 18.4891 342.695 21.4842 346.396 21.4842Z" fill="#E9D98B"/>
<path d="M343.048 14.7876C343.048 12.9368 344.546 11.4392 346.397 11.4392C348.247 11.4392 349.745 12.9368 349.745 14.7876C349.745 16.6385 348.247 18.136 346.397 18.136C344.546 18.136 343.048 16.6385 343.048 14.7876Z" fill="#F4EFE1"/>
<path d="M292.823 28.1808C300.226 28.1808 306.216 22.1906 306.216 14.7878C306.216 7.38433 300.226 1.39417 292.823 1.39417C285.42 1.39417 279.43 7.38433 279.43 14.7878C279.43 22.1906 285.42 28.1808 292.823 28.1808Z" fill="#E9D98B"/>
<path d="M282.778 14.7874C282.778 9.23544 287.271 4.74219 292.824 4.74219C298.376 4.74219 302.868 9.23544 302.868 14.7874C302.868 20.3394 298.376 24.832 292.824 24.832C287.271 24.832 282.778 20.3394 282.778 14.7874Z" fill="#F4EFE1"/>
<path d="M292.823 21.4842C296.525 21.4842 299.52 18.4891 299.52 14.7874C299.52 11.0863 296.525 8.09119 292.823 8.09119C289.122 8.09119 286.127 11.0863 286.127 14.7874C286.127 18.4891 289.122 21.4842 292.823 21.4842Z" fill="#E9D98B"/>
<path d="M289.475 14.7876C289.475 12.9368 290.973 11.4392 292.824 11.4392C294.674 11.4392 296.172 12.9368 296.172 14.7876C296.172 16.6385 294.674 18.136 292.824 18.136C290.973 18.136 289.475 16.6385 289.475 14.7876Z" fill="#F4EFE1"/>
<path d="M239.25 28.1808C246.653 28.1808 252.644 22.1906 252.644 14.7878C252.644 7.38433 246.653 1.39417 239.25 1.39417C231.847 1.39417 225.857 7.38433 225.857 14.7878C225.857 22.1906 231.847 28.1808 239.25 28.1808Z" fill="#E9D98B"/>
<path d="M229.205 14.7874C229.205 9.23544 233.698 4.74219 239.25 4.74219C244.802 4.74219 249.295 9.23544 249.295 14.7874C249.295 20.3394 244.802 24.832 239.25 24.832C233.698 24.832 229.205 20.3394 229.205 14.7874Z" fill="#F4EFE1"/>
<path d="M239.25 21.4842C242.952 21.4842 245.947 18.4891 245.947 14.7874C245.947 11.0863 242.952 8.09119 239.25 8.09119C235.548 8.09119 232.553 11.0863 232.553 14.7874C232.553 18.4891 235.548 21.4842 239.25 21.4842Z" fill="#E9D98B"/>
<path d="M235.902 14.7876C235.902 12.9368 237.399 11.4392 239.25 11.4392C241.101 11.4392 242.599 12.9368 242.599 14.7876C242.599 16.6385 241.101 18.136 239.25 18.136C237.399 18.136 235.902 16.6385 235.902 14.7876Z" fill="#F4EFE1"/>
<path d="M399.97 27.7866C399.97 12.981 387.989 1 373.183 1C358.377 1 346.396 12.981 346.396 27.7866" fill="#E9D98B"/>
<path d="M349.745 27.7865C349.745 14.8311 360.228 4.34827 373.183 4.34827C386.139 4.34827 396.621 14.8311 396.621 27.7865" fill="#F4EFE1"/>
<path d="M393.273 27.7866C393.273 16.682 384.287 7.69678 373.183 7.69678C362.079 7.69678 353.093 16.682 353.093 27.7866" fill="#E9D98B"/>
<path d="M356.441 27.7865C356.441 18.5328 363.929 11.0451 373.183 11.0451C382.437 11.0451 389.925 18.5328 389.925 27.7865" fill="#F4EFE1"/>
<path d="M386.576 27.7865C386.576 20.3837 380.586 14.3929 373.183 14.3929C365.78 14.3929 359.79 20.3837 359.79 27.7865" fill="#E9D98B"/>
<path d="M363.138 27.7864C363.138 22.2338 367.631 17.7411 373.183 17.7411C378.735 17.7411 383.228 22.2338 383.228 27.7864" fill="#F4EFE1"/>
<path d="M379.88 27.7865C379.88 24.0848 376.885 21.0897 373.183 21.0897C369.482 21.0897 366.487 24.0848 366.487 27.7865" fill="#E9D98B"/>
<path d="M346.396 27.7866C346.396 12.981 334.415 1 319.61 1C304.804 1 292.823 12.981 292.823 27.7866" fill="#E9D98B"/>
<path d="M296.172 27.7865C296.172 14.8311 306.654 4.34827 319.61 4.34827C332.565 4.34827 343.048 14.8311 343.048 27.7865" fill="#F4EFE1"/>
<path d="M339.7 27.7866C339.7 16.682 330.715 7.69678 319.61 7.69678C308.505 7.69678 299.52 16.682 299.52 27.7866" fill="#E9D98B"/>
<path d="M302.868 27.7865C302.868 18.5328 310.356 11.0451 319.61 11.0451C328.863 11.0451 336.352 18.5328 336.352 27.7865" fill="#F4EFE1"/>
<path d="M333.003 27.7865C333.003 20.3837 327.013 14.3929 319.61 14.3929C312.207 14.3929 306.217 20.3837 306.217 27.7865" fill="#E9D98B"/>
<path d="M309.565 27.7864C309.565 22.2338 314.058 17.7411 319.61 17.7411C325.162 17.7411 329.655 22.2338 329.655 27.7864" fill="#F4EFE1"/>
<path d="M326.307 27.7865C326.307 24.0848 323.311 21.0897 319.61 21.0897C315.909 21.0897 312.914 24.0848 312.914 27.7865" fill="#E9D98B"/>
<path d="M292.823 27.7866C292.823 12.981 280.842 1 266.037 1C251.231 1 239.25 12.981 239.25 27.7866" fill="#E9D98B"/>
<path d="M242.599 27.7865C242.599 14.8311 253.081 4.34827 266.037 4.34827C278.992 4.34827 289.475 14.8311 289.475 27.7865" fill="#F4EFE1"/>
<path d="M286.127 27.7866C286.127 16.682 277.141 7.69678 266.037 7.69678C254.932 7.69678 245.947 16.682 245.947 27.7866" fill="#E9D98B"/>
<path d="M249.295 27.7865C249.295 18.5328 256.783 11.0451 266.037 11.0451C275.29 11.0451 282.779 18.5328 282.779 27.7865" fill="#F4EFE1"/>
<path d="M279.43 27.7865C279.43 20.3837 273.44 14.3929 266.037 14.3929C258.634 14.3929 252.643 20.3837 252.643 27.7865" fill="#E9D98B"/>
<path d="M255.992 27.7864C255.992 22.2338 260.484 17.7411 266.037 17.7411C271.589 17.7411 276.082 22.2338 276.082 27.7864" fill="#F4EFE1"/>
<path d="M272.733 27.7865C272.733 24.0848 269.738 21.0897 266.037 21.0897C262.335 21.0897 259.34 24.0848 259.34 27.7865" fill="#E9D98B"/>
<path d="M239.25 27.7866C239.25 12.981 227.269 1 212.463 1C197.658 1 185.677 12.981 185.677 27.7866" fill="#E9D98B"/>
<path d="M189.025 27.7865C189.025 14.8311 199.508 4.34827 212.464 4.34827C225.418 4.34827 235.902 14.8311 235.902 27.7865" fill="#F4EFE1"/>
<path d="M232.553 27.7866C232.553 16.682 223.568 7.69678 212.464 7.69678C201.359 7.69678 192.374 16.682 192.374 27.7866" fill="#E9D98B"/>
<path d="M195.722 27.7865C195.722 18.5328 203.21 11.0451 212.463 11.0451C221.717 11.0451 229.205 18.5328 229.205 27.7865" fill="#F4EFE1"/>
<path d="M225.857 27.7865C225.857 20.3837 219.867 14.3929 212.464 14.3929C205.06 14.3929 199.07 20.3837 199.07 27.7865" fill="#E9D98B"/>
<path d="M0 28.1808H375V16.1808H0V28.1808Z" fill="#CA3828"/>
</g>
<defs>
<clipPath id="clip0_27_548">
<rect width="375" height="28" fill="white"/>
</clipPath>
</defs>
</svg>
