<svg width="375" height="28" viewBox="0 0 375 28" fill="none" xmlns="http://www.w3.org/2000/svg">
<g clip-path="url(#clip0_27_3)">
<path d="M189.293 -1.61158e-05C196.696 -1.61158e-05 202.686 5.99015 202.686 13.393C202.686 20.7965 196.696 26.7866 189.293 26.7866C181.89 26.7866 175.9 20.7965 175.9 13.393C175.9 5.99015 181.89 -1.61158e-05 189.293 -1.61158e-05Z" fill="#E9D98B"/>
<path d="M179.248 13.3934C179.248 18.9453 183.741 23.4386 189.293 23.4386C194.845 23.4386 199.338 18.9453 199.338 13.3934C199.338 7.8414 194.845 3.34878 189.293 3.34878C183.741 3.34878 179.248 7.8414 179.248 13.3934Z" fill="#F4EFE1"/>
<path d="M189.293 6.6966C192.995 6.6966 195.99 9.69168 195.99 13.3934C195.99 17.0945 192.995 20.0896 189.293 20.0896C185.591 20.0896 182.596 17.0945 182.596 13.3934C182.596 9.69168 185.591 6.6966 189.293 6.6966Z" fill="#E9D98B"/>
<path d="M185.945 13.3932C185.945 15.244 187.442 16.7416 189.293 16.7416C191.144 16.7416 192.641 15.244 192.641 13.3932C192.641 11.5423 191.144 10.0448 189.293 10.0448C187.442 10.0448 185.945 11.5423 185.945 13.3932Z" fill="#F4EFE1"/>
<path d="M135.72 -1.61158e-05C143.123 -1.61158e-05 149.113 5.99015 149.113 13.393C149.113 20.7965 143.123 26.7866 135.72 26.7866C128.317 26.7866 122.327 20.7965 122.327 13.393C122.327 5.99015 128.317 -1.61158e-05 135.72 -1.61158e-05Z" fill="#E9D98B"/>
<path d="M125.675 13.3934C125.675 18.9453 130.167 23.4386 135.72 23.4386C141.272 23.4386 145.765 18.9453 145.765 13.3934C145.765 7.8414 141.272 3.34878 135.72 3.34878C130.167 3.34878 125.675 7.8414 125.675 13.3934Z" fill="#F4EFE1"/>
<path d="M135.72 6.6966C139.421 6.6966 142.416 9.69168 142.416 13.3934C142.416 17.0945 139.421 20.0896 135.72 20.0896C132.018 20.0896 129.023 17.0945 129.023 13.3934C129.023 9.69168 132.018 6.6966 135.72 6.6966Z" fill="#E9D98B"/>
<path d="M132.371 13.3932C132.371 15.244 133.869 16.7416 135.72 16.7416C137.571 16.7416 139.068 15.244 139.068 13.3932C139.068 11.5423 137.571 10.0448 135.72 10.0448C133.869 10.0448 132.371 11.5423 132.371 13.3932Z" fill="#F4EFE1"/>
<path d="M82.1464 -1.61158e-05C89.5493 -1.61158e-05 95.5401 5.99015 95.5401 13.393C95.5401 20.7965 89.5493 26.7866 82.1464 26.7866C74.7436 26.7866 68.7534 20.7965 68.7534 13.393C68.7534 5.99015 74.7436 -1.61158e-05 82.1464 -1.61158e-05Z" fill="#E9D98B"/>
<path d="M72.1014 13.3934C72.1014 18.9453 76.5941 23.4386 82.1467 23.4386C87.6986 23.4386 92.1913 18.9453 92.1913 13.3934C92.1913 7.8414 87.6986 3.34878 82.1467 3.34878C76.5941 3.34878 72.1014 7.8414 72.1014 13.3934Z" fill="#F4EFE1"/>
<path d="M82.1465 6.6966C85.8483 6.6966 88.8433 9.69168 88.8433 13.3934C88.8433 17.0945 85.8483 20.0896 82.1465 20.0896C78.4448 20.0896 75.4497 17.0945 75.4497 13.3934C75.4497 9.69168 78.4448 6.6966 82.1465 6.6966Z" fill="#E9D98B"/>
<path d="M78.7982 13.3932C78.7982 15.244 80.2958 16.7416 82.1466 16.7416C83.9975 16.7416 85.495 15.244 85.495 13.3932C85.495 11.5423 83.9975 10.0448 82.1466 10.0448C80.2958 10.0448 78.7982 11.5423 78.7982 13.3932Z" fill="#F4EFE1"/>
<path d="M28.5733 -1.61158e-05C35.9761 -1.61158e-05 41.9669 5.99015 41.9669 13.393C41.9669 20.7965 35.9761 26.7866 28.5733 26.7866C21.1705 26.7866 15.1803 20.7965 15.1803 13.393C15.1803 5.99015 21.1705 -1.61158e-05 28.5733 -1.61158e-05Z" fill="#E9D98B"/>
<path d="M18.5284 13.3934C18.5284 18.9453 23.0211 23.4386 28.5737 23.4386C34.1256 23.4386 38.6183 18.9453 38.6183 13.3934C38.6183 7.8414 34.1256 3.34878 28.5737 3.34878C23.0211 3.34878 18.5284 7.8414 18.5284 13.3934Z" fill="#F4EFE1"/>
<path d="M28.5733 6.6966C32.275 6.6966 35.2701 9.69168 35.2701 13.3934C35.2701 17.0945 32.275 20.0896 28.5733 20.0896C24.8715 20.0896 21.8765 17.0945 21.8765 13.3934C21.8765 9.69168 24.8715 6.6966 28.5733 6.6966Z" fill="#E9D98B"/>
<path d="M25.225 13.3932C25.225 15.244 26.7225 16.7416 28.5734 16.7416C30.4243 16.7416 31.9218 15.244 31.9218 13.3932C31.9218 11.5423 30.4243 10.0448 28.5734 10.0448C26.7225 10.0448 25.225 11.5423 25.225 13.3932Z" fill="#F4EFE1"/>
<path d="M189.293 0.394149C189.293 15.1998 177.313 27.1808 162.506 27.1808C147.701 27.1808 135.72 15.1998 135.72 0.394149" fill="#E9D98B"/>
<path d="M139.068 0.394289C139.068 13.3497 149.552 23.8325 162.506 23.8325C175.461 23.8325 185.945 13.3497 185.945 0.394289" fill="#F4EFE1"/>
<path d="M182.596 0.394185C182.596 11.4988 173.61 20.484 162.506 20.484C151.402 20.484 142.416 11.4988 142.416 0.394185" fill="#E9D98B"/>
<path d="M145.765 0.394267C145.765 9.64797 153.252 17.1357 162.506 17.1357C171.76 17.1357 179.248 9.64797 179.248 0.394267" fill="#F4EFE1"/>
<path d="M175.9 0.394268C175.9 7.7971 169.909 13.7879 162.507 13.7879C155.103 13.7879 149.113 7.7971 149.113 0.394268" fill="#E9D98B"/>
<path d="M152.461 0.394411C152.461 5.94701 156.954 10.4396 162.506 10.4396C168.058 10.4396 172.551 5.94701 172.551 0.394411" fill="#F4EFE1"/>
<path d="M169.203 0.394247C169.203 4.09598 166.208 7.09106 162.506 7.09106C158.805 7.09106 155.81 4.09598 155.81 0.394247" fill="#E9D98B"/>
<path d="M135.72 0.394149C135.72 15.1998 123.739 27.1808 108.933 27.1808C94.1272 27.1808 82.1462 15.1998 82.1462 0.394149" fill="#E9D98B"/>
<path d="M85.4949 0.394289C85.4949 13.3497 95.9777 23.8325 108.933 23.8325C121.888 23.8325 132.371 13.3497 132.371 0.394289" fill="#F4EFE1"/>
<path d="M129.023 0.394185C129.023 11.4988 120.038 20.484 108.933 20.484C97.8286 20.484 88.8434 11.4988 88.8434 0.394185" fill="#E9D98B"/>
<path d="M92.1914 0.394267C92.1914 9.64797 99.6791 17.1357 108.933 17.1357C118.187 17.1357 125.675 9.64797 125.675 0.394267" fill="#F4EFE1"/>
<path d="M122.326 0.394268C122.326 7.7971 116.336 13.7879 108.933 13.7879C101.53 13.7879 95.5397 7.7971 95.5397 0.394268" fill="#E9D98B"/>
<path d="M98.8882 0.394411C98.8882 5.94701 103.381 10.4396 108.933 10.4396C114.485 10.4396 118.978 5.94701 118.978 0.394411" fill="#F4EFE1"/>
<path d="M115.63 0.394247C115.63 4.09598 112.635 7.09106 108.933 7.09106C105.232 7.09106 102.237 4.09598 102.237 0.394247" fill="#E9D98B"/>
<path d="M82.1465 0.394149C82.1465 15.1998 70.1656 27.1808 55.3599 27.1808C40.5542 27.1808 28.5732 15.1998 28.5732 0.394149" fill="#E9D98B"/>
<path d="M31.9218 0.394289C31.9218 13.3497 42.4045 23.8325 55.36 23.8325C68.3148 23.8325 78.7982 13.3497 78.7982 0.394289" fill="#F4EFE1"/>
<path d="M75.4499 0.394185C75.4499 11.4988 66.4647 20.484 55.3601 20.484C44.2555 20.484 35.2703 11.4988 35.2703 0.394185" fill="#E9D98B"/>
<path d="M38.6182 0.394267C38.6182 9.64797 46.1059 17.1357 55.3596 17.1357C64.6133 17.1357 72.1016 9.64797 72.1016 0.394267" fill="#F4EFE1"/>
<path d="M68.7533 0.394268C68.7533 7.7971 62.7631 13.7879 55.3603 13.7879C47.9568 13.7879 41.9667 7.7971 41.9667 0.394268" fill="#E9D98B"/>
<path d="M45.3149 0.394411C45.3149 5.94701 49.8076 10.4396 55.3602 10.4396C60.9121 10.4396 65.4048 5.94701 65.4048 0.394411" fill="#F4EFE1"/>
<path d="M62.0565 0.394247C62.0565 4.09598 59.0614 7.09106 55.3596 7.09106C51.6585 7.09106 48.6635 4.09598 48.6635 0.394247" fill="#E9D98B"/>
<path d="M28.5733 0.394149C28.5733 15.1998 16.5929 27.1808 1.78664 27.1808C-13.019 27.1808 -25 15.1998 -25 0.394149" fill="#E9D98B"/>
<path d="M-21.6515 0.394289C-21.6515 13.3497 -11.1687 23.8325 1.78674 23.8325C14.7416 23.8325 25.225 13.3497 25.225 0.394289" fill="#F4EFE1"/>
<path d="M21.8767 0.394185C21.8767 11.4988 12.8914 20.484 1.78684 20.484C-9.31773 20.484 -18.303 11.4988 -18.303 0.394185" fill="#E9D98B"/>
<path d="M-14.955 0.394267C-14.955 9.64797 -7.46725 17.1357 1.78646 17.1357C11.0402 17.1357 18.5285 9.64797 18.5285 0.394267" fill="#F4EFE1"/>
<path d="M15.1801 0.394268C15.1801 7.7971 9.1899 13.7879 1.78707 13.7879C-5.6164 13.7879 -11.6066 7.7971 -11.6066 0.394268" fill="#E9D98B"/>
<path d="M-8.25806 0.394411C-8.25806 5.94701 -3.76543 10.4396 1.78717 10.4396C7.33914 10.4396 11.8318 5.94701 11.8318 0.394411" fill="#F4EFE1"/>
<path d="M8.48346 0.394247C8.48346 4.09598 5.48837 7.09106 1.78664 7.09106C-1.91446 7.09106 -4.90955 4.09598 -4.90955 0.394247" fill="#E9D98B"/>
<path d="M346.397 -1.61158e-05C353.799 -1.61158e-05 359.79 5.99015 359.79 13.393C359.79 20.7965 353.799 26.7866 346.397 26.7866C338.994 26.7866 333.004 20.7965 333.004 13.393C333.004 5.99015 338.994 -1.61158e-05 346.397 -1.61158e-05Z" fill="#E9D98B"/>
<path d="M336.352 13.3934C336.352 18.9453 340.844 23.4386 346.397 23.4386C351.949 23.4386 356.441 18.9453 356.441 13.3934C356.441 7.8414 351.949 3.34878 346.397 3.34878C340.844 3.34878 336.352 7.8414 336.352 13.3934Z" fill="#F4EFE1"/>
<path d="M346.396 6.6966C350.098 6.6966 353.093 9.69168 353.093 13.3934C353.093 17.0945 350.098 20.0896 346.396 20.0896C342.695 20.0896 339.7 17.0945 339.7 13.3934C339.7 9.69168 342.695 6.6966 346.396 6.6966Z" fill="#E9D98B"/>
<path d="M343.048 13.3932C343.048 15.244 344.546 16.7416 346.397 16.7416C348.247 16.7416 349.745 15.244 349.745 13.3932C349.745 11.5423 348.247 10.0448 346.397 10.0448C344.546 10.0448 343.048 11.5423 343.048 13.3932Z" fill="#F4EFE1"/>
<path d="M292.823 -1.61158e-05C300.226 -1.61158e-05 306.216 5.99015 306.216 13.393C306.216 20.7965 300.226 26.7866 292.823 26.7866C285.42 26.7866 279.43 20.7965 279.43 13.393C279.43 5.99015 285.42 -1.61158e-05 292.823 -1.61158e-05Z" fill="#E9D98B"/>
<path d="M282.778 13.3934C282.778 18.9453 287.271 23.4386 292.824 23.4386C298.376 23.4386 302.868 18.9453 302.868 13.3934C302.868 7.8414 298.376 3.34878 292.824 3.34878C287.271 3.34878 282.778 7.8414 282.778 13.3934Z" fill="#F4EFE1"/>
<path d="M292.823 6.6966C296.525 6.6966 299.52 9.69168 299.52 13.3934C299.52 17.0945 296.525 20.0896 292.823 20.0896C289.122 20.0896 286.127 17.0945 286.127 13.3934C286.127 9.69168 289.122 6.6966 292.823 6.6966Z" fill="#E9D98B"/>
<path d="M289.475 13.3932C289.475 15.244 290.973 16.7416 292.824 16.7416C294.674 16.7416 296.172 15.244 296.172 13.3932C296.172 11.5423 294.674 10.0448 292.824 10.0448C290.973 10.0448 289.475 11.5423 289.475 13.3932Z" fill="#F4EFE1"/>
<path d="M239.25 -1.61158e-05C246.653 -1.61158e-05 252.644 5.99015 252.644 13.393C252.644 20.7965 246.653 26.7866 239.25 26.7866C231.847 26.7866 225.857 20.7965 225.857 13.393C225.857 5.99015 231.847 -1.61158e-05 239.25 -1.61158e-05Z" fill="#E9D98B"/>
<path d="M229.205 13.3934C229.205 18.9453 233.698 23.4386 239.25 23.4386C244.802 23.4386 249.295 18.9453 249.295 13.3934C249.295 7.8414 244.802 3.34878 239.25 3.34878C233.698 3.34878 229.205 7.8414 229.205 13.3934Z" fill="#F4EFE1"/>
<path d="M239.25 6.6966C242.952 6.6966 245.947 9.69168 245.947 13.3934C245.947 17.0945 242.952 20.0896 239.25 20.0896C235.548 20.0896 232.553 17.0945 232.553 13.3934C232.553 9.69168 235.548 6.6966 239.25 6.6966Z" fill="#E9D98B"/>
<path d="M235.902 13.3932C235.902 15.244 237.399 16.7416 239.25 16.7416C241.101 16.7416 242.599 15.244 242.599 13.3932C242.599 11.5423 241.101 10.0448 239.25 10.0448C237.399 10.0448 235.902 11.5423 235.902 13.3932Z" fill="#F4EFE1"/>
<path d="M399.97 0.394149C399.97 15.1998 387.989 27.1808 373.183 27.1808C358.377 27.1808 346.396 15.1998 346.396 0.394149" fill="#E9D98B"/>
<path d="M349.745 0.394289C349.745 13.3497 360.228 23.8325 373.183 23.8325C386.139 23.8325 396.621 13.3497 396.621 0.394289" fill="#F4EFE1"/>
<path d="M393.273 0.394185C393.273 11.4988 384.287 20.484 373.183 20.484C362.079 20.484 353.093 11.4988 353.093 0.394185" fill="#E9D98B"/>
<path d="M356.441 0.394267C356.441 9.64797 363.929 17.1357 373.183 17.1357C382.437 17.1357 389.925 9.64797 389.925 0.394267" fill="#F4EFE1"/>
<path d="M386.576 0.394268C386.576 7.7971 380.586 13.7879 373.183 13.7879C365.78 13.7879 359.79 7.7971 359.79 0.394268" fill="#E9D98B"/>
<path d="M363.138 0.394411C363.138 5.94701 367.631 10.4396 373.183 10.4396C378.735 10.4396 383.228 5.94701 383.228 0.394411" fill="#F4EFE1"/>
<path d="M379.88 0.394247C379.88 4.09598 376.885 7.09106 373.183 7.09106C369.482 7.09106 366.487 4.09598 366.487 0.394247" fill="#E9D98B"/>
<path d="M346.396 0.394149C346.396 15.1998 334.415 27.1808 319.61 27.1808C304.804 27.1808 292.823 15.1998 292.823 0.394149" fill="#E9D98B"/>
<path d="M296.172 0.394289C296.172 13.3497 306.654 23.8325 319.61 23.8325C332.565 23.8325 343.048 13.3497 343.048 0.394289" fill="#F4EFE1"/>
<path d="M339.7 0.394185C339.7 11.4988 330.715 20.484 319.61 20.484C308.505 20.484 299.52 11.4988 299.52 0.394185" fill="#E9D98B"/>
<path d="M302.868 0.394267C302.868 9.64797 310.356 17.1357 319.61 17.1357C328.863 17.1357 336.352 9.64797 336.352 0.394267" fill="#F4EFE1"/>
<path d="M333.003 0.394268C333.003 7.7971 327.013 13.7879 319.61 13.7879C312.207 13.7879 306.217 7.7971 306.217 0.394268" fill="#E9D98B"/>
<path d="M309.565 0.394411C309.565 5.94701 314.058 10.4396 319.61 10.4396C325.162 10.4396 329.655 5.94701 329.655 0.394411" fill="#F4EFE1"/>
<path d="M326.307 0.394247C326.307 4.09598 323.311 7.09106 319.61 7.09106C315.909 7.09106 312.914 4.09598 312.914 0.394247" fill="#E9D98B"/>
<path d="M292.823 0.394149C292.823 15.1998 280.842 27.1808 266.037 27.1808C251.231 27.1808 239.25 15.1998 239.25 0.394149" fill="#E9D98B"/>
<path d="M242.599 0.394289C242.599 13.3497 253.081 23.8325 266.037 23.8325C278.992 23.8325 289.475 13.3497 289.475 0.394289" fill="#F4EFE1"/>
<path d="M286.127 0.394185C286.127 11.4988 277.141 20.484 266.037 20.484C254.932 20.484 245.947 11.4988 245.947 0.394185" fill="#E9D98B"/>
<path d="M249.295 0.394267C249.295 9.64797 256.783 17.1357 266.037 17.1357C275.29 17.1357 282.779 9.64797 282.779 0.394267" fill="#F4EFE1"/>
<path d="M279.43 0.394268C279.43 7.7971 273.44 13.7879 266.037 13.7879C258.634 13.7879 252.643 7.7971 252.643 0.394268" fill="#E9D98B"/>
<path d="M255.992 0.394411C255.992 5.94701 260.484 10.4396 266.037 10.4396C271.589 10.4396 276.082 5.94701 276.082 0.394411" fill="#F4EFE1"/>
<path d="M272.733 0.394247C272.733 4.09598 269.738 7.09106 266.037 7.09106C262.335 7.09106 259.34 4.09598 259.34 0.394247" fill="#E9D98B"/>
<path d="M239.25 0.394149C239.25 15.1998 227.269 27.1808 212.463 27.1808C197.658 27.1808 185.677 15.1998 185.677 0.394149" fill="#E9D98B"/>
<path d="M189.025 0.394289C189.025 13.3497 199.508 23.8325 212.464 23.8325C225.418 23.8325 235.902 13.3497 235.902 0.394289" fill="#F4EFE1"/>
<path d="M232.553 0.394185C232.553 11.4988 223.568 20.484 212.464 20.484C201.359 20.484 192.374 11.4988 192.374 0.394185" fill="#E9D98B"/>
<path d="M195.722 0.394267C195.722 9.64797 203.21 17.1357 212.463 17.1357C221.717 17.1357 229.205 9.64797 229.205 0.394267" fill="#F4EFE1"/>
<path d="M225.857 0.394268C225.857 7.7971 219.867 13.7879 212.464 13.7879C205.06 13.7879 199.07 7.7971 199.07 0.394268" fill="#E9D98B"/>
<path d="M0 0H375V12H0V0Z" fill="#CA3828"/>
</g>
<defs>
<clipPath id="clip0_27_3">
<rect width="375" height="28" fill="white"/>
</clipPath>
</defs>
</svg>
