<svg width="164" height="51" viewBox="0 0 164 51" fill="none" xmlns="http://www.w3.org/2000/svg">
<path d="M3.10352 0H160.897V44H3.10352V0Z" fill="#CA3828"/>
<g filter="url(#filter0_d_50_755)">
<mask id="path-2-inside-1_50_755" fill="white">
<path d="M4.62061 1.51724H159.379V42.6432H4.62061V1.51724Z"/>
</mask>
<path d="M4.62061 1.51724V0.517242H3.62061V1.51724H4.62061ZM159.379 1.51724H160.379V0.517242H159.379V1.51724ZM159.379 42.6432V43.6432H160.379V42.6432H159.379ZM4.62061 42.6432H3.62061V43.6432H4.62061V42.6432ZM4.62061 2.51724H159.379V0.517242H4.62061V2.51724ZM158.379 1.51724V42.6432H160.379V1.51724H158.379ZM159.379 41.6432H4.62061V43.6432H159.379V41.6432ZM5.62061 42.6432V1.51724H3.62061V42.6432H5.62061Z" fill="#D1B163" mask="url(#path-2-inside-1_50_755)"/>
</g>
<path d="M102.592 21.848C102.272 24.344 101.36 26.824 99.0239 27.064C100.464 24.984 100.88 21.848 100.736 19.032C100.688 18.008 100.192 17.544 100.416 17.288C100.672 16.984 102.512 17.528 103.008 18.008H105.312V17.272C105.312 16.248 104.768 15.784 104.976 15.528C105.28 15.176 107.696 15.976 107.696 16.456C107.696 16.728 107.328 16.824 107.328 17.272V18.008H108.976C109.776 18.008 109.968 17.048 110.4 17.048C110.8 17.048 111.488 18.136 111.488 18.44C111.488 18.744 111.008 18.808 110.672 18.808H102.8C102.768 18.872 102.752 18.952 102.752 19.032C102.752 19.608 102.736 20.248 102.688 20.904C103.104 20.984 103.568 21.208 104.368 21.208H104.384V20.952C104.384 19.928 103.84 19.464 104.064 19.208C104.368 18.856 106.784 19.656 106.784 20.136C106.784 20.408 106.4 20.504 106.4 20.952V21.208H108.24V20.792C108.24 19.768 107.696 19.304 107.92 19.048C108.208 18.696 110.64 19.496 110.64 19.976C110.64 20.248 110.256 20.344 110.256 20.792V21.08C110.688 20.824 110.88 20.248 111.232 20.248C111.616 20.248 112.304 21.336 112.304 21.64C112.304 21.96 111.824 22.008 111.488 22.008H110.256V23.304C110.256 23.672 109.904 23.88 109.504 23.992C110.016 24.312 110.736 24.984 110.736 25.304C110.736 25.56 110.592 25.64 110.32 25.752C110 26.296 109.664 26.776 109.296 27.192C110.288 27.352 111.2 27.368 111.888 27.32C111.888 27.32 111.456 27.672 111.056 28.44C110.656 29.208 110.72 29.608 110.432 29.592C109.92 29.576 108.656 29.432 107.456 28.728C105.696 29.736 103.792 29.752 102.336 29.208C103.6 28.936 104.976 28.328 106.096 27.576C105.68 27.064 105.328 26.424 105.088 25.624C104.656 25.704 104.576 25.832 104.432 25.832C104.064 25.832 103.584 24.44 103.856 24.44C104.336 24.44 104.832 24.776 105.808 24.776H107.664C108.176 24.776 108.448 24.36 108.688 24.072C108.464 24.072 108.288 24.04 108.24 24.008C108.112 23.928 108.16 23.816 108.192 23.56H106.4V23.624C106.4 24.216 105.504 24.392 104.896 24.392C104.64 24.392 104.448 24.376 104.384 24.328C104.192 24.184 104.384 24.008 104.384 23.24V22.008H104.368C103.264 22.008 103.2 22.264 102.992 22.264C102.864 22.264 102.72 22.088 102.592 21.848ZM108.24 22.008H106.4V22.76H108.24V22.008ZM107.248 26.632C107.584 26.28 107.856 25.928 108.032 25.576H105.808C105.664 25.576 105.552 25.576 105.44 25.592C106 26.024 106.608 26.376 107.248 26.632Z" fill="white"/>
<path d="M84.192 23.24C83.824 23.24 83.36 21.848 83.632 21.848C84.112 21.848 84.608 22.184 85.568 22.184H93.952C94.752 22.184 94.944 21.224 95.392 21.224C95.776 21.224 96.464 22.312 96.464 22.616C96.464 22.936 95.984 22.984 95.648 22.984H85.568C84.464 22.984 84.4 23.24 84.192 23.24Z" fill="white"/>
<path d="M73.552 18.296C72.768 17.784 72.016 16.952 71.728 15.816C74.56 17.176 74.976 16.12 75.856 16.744C76.48 17.192 76.432 18.376 75.84 18.856C75.792 18.888 75.728 18.92 75.664 18.936C74.592 19.256 74.176 18.904 73.072 19.576C73.072 19.576 73.04 19.096 73.776 18.632C73.904 18.536 73.744 18.424 73.552 18.296ZM71.488 23.512C70.288 23.64 69.456 22.392 70.128 20.696C71.024 22.376 71.888 19.912 75.088 20.472C77.744 20.92 78.592 23.4 77.616 25.944C76.672 28.408 74.016 29.928 71.456 28.712C75.36 28.12 76.896 22.84 74.96 22.2C73.216 21.624 73.024 23.352 71.488 23.512Z" fill="white"/>
<path d="M54.7838 23.112H54.9278C55.0238 22.312 55.1518 21.512 55.2478 20.808C54.2078 20.824 54.1438 21.08 53.9358 21.08C53.5678 21.08 53.0718 19.704 53.3438 19.704C53.7758 19.688 54.3518 20.024 55.3438 20.008C55.3758 19.736 55.3918 19.496 55.3918 19.256C55.3918 19.256 55.4078 18.376 55.1838 18.008C55.0398 17.8 54.7198 17.72 54.4158 17.72C54.4158 17.72 54.1758 17.304 55.5358 17.032C56.9438 16.76 57.6318 17.512 57.6318 18.024C57.6318 18.712 57.5678 19.352 57.4878 19.976C58.2558 19.928 58.4318 19 58.8638 19C59.2478 18.984 59.9518 20.072 59.9518 20.376C59.9678 20.68 59.4878 20.744 59.1518 20.744L57.3438 20.776C57.1998 21.576 57.0238 22.296 56.8638 22.968L58.5278 22.84C59.3118 22.76 59.4238 21.816 59.8558 21.784C60.2398 21.752 61.0238 22.792 61.0398 23.096C61.0558 23.4 60.5918 23.496 60.2558 23.512L56.7038 23.784C56.5598 24.664 56.5438 25.384 56.8958 25.96C57.8238 27.448 61.5838 26.936 61.6958 23.64C63.0878 26.104 61.3598 29.72 57.4238 28.936C54.9758 28.44 54.6718 26.232 54.8478 23.912C53.7438 23.992 53.7118 24.264 53.5038 24.28C53.1358 24.312 52.5598 22.952 52.8318 22.936C53.3118 22.888 53.8238 23.192 54.7838 23.112Z" fill="white"/>
<defs>
<filter id="filter0_d_50_755" x="0.620605" y="1.51724" width="162.759" height="49.126" filterUnits="userSpaceOnUse" color-interpolation-filters="sRGB">
<feFlood flood-opacity="0" result="BackgroundImageFix"/>
<feColorMatrix in="SourceAlpha" type="matrix" values="0 0 0 0 0 0 0 0 0 0 0 0 0 0 0 0 0 0 127 0" result="hardAlpha"/>
<feOffset dy="4"/>
<feGaussianBlur stdDeviation="2"/>
<feComposite in2="hardAlpha" operator="out"/>
<feColorMatrix type="matrix" values="0 0 0 0 0 0 0 0 0 0 0 0 0 0 0 0 0 0 0.25 0"/>
<feBlend mode="normal" in2="BackgroundImageFix" result="effect1_dropShadow_50_755"/>
<feBlend mode="normal" in="SourceGraphic" in2="effect1_dropShadow_50_755" result="shape"/>
</filter>
</defs>
</svg>
